<?xml version="1.0" standalone="no"?>
<!DOCTYPE svg PUBLIC "-//W3C//DTD SVG 1.1//EN" "http://www.w3.org/Graphics/SVG/1.1/DTD/svg11.dtd" >
<svg xmlns="http://www.w3.org/2000/svg">
<metadata>
Generated by SVGconv.
Copyright   : Copyright  2000 ParaType Inc., ParaType Ltd. All rights reserved.
Designer    : Albert Kapitonov
Foundry     : ParaType Ltd
Foundry URL : http://www.paratype.com
</metadata>
<defs>
<font id="ReformaGroteskWebMedium" horiz-adv-x="270" >
<font-face units-per-em="1000" ascent="956" descent="270" />
<missing-glyph horiz-adv-x="440" />
<glyph unicode="&#32;" horiz-adv-x="233" />
<glyph unicode="&#33;" horiz-adv-x="138" d="M50 212l-20 401v87h78v-87l-20 -401zM30 0v120h78l0 -120z" />
<glyph unicode="&#34;" horiz-adv-x="228" d="M153 462l-18 126v112h63v-112l-17 -126zM47 462l-17 126v112h63v-112l-18 -126z" />
<glyph unicode="&#35;" horiz-adv-x="408" d="M249 432h-70l-24 -120h70zM164 0l48 247h-70l-48 -247h-65l47 247h-71l14 65h71l24 120h-67l15 65h68l39 203h65l-40 -203h70l40 203h65l-41 -203h75l-14 -65h-75l-24 -120h72l-13 -65h-72l-48 -247z" />
<glyph unicode="&#36;" horiz-adv-x="284" d="M95 233v-104q0 -7 1 -19.5q1 -12.5 3 -18.5q6 -20 19 -23.5q13 -3.5 24 -3.5q8 0 15.5 1.5q7.5 1.5 13.5 8.5q7 8 8.5 21q1.5 13 1.5 28v40q0 32 -8 58q-8 26 -24 52l-66 104q-11 17 -21 37q-10 20 -17 38q-9 24 -14.5 52q-5.5 28 -5.5 54v18q0 21 5.5 45.5q5.5 24.5 22.5 47.5q16 20 31.5 27.5q15.5 7.5 23.5 9.5l0 68h66v-67q22 -5 36.5 -16.5q14.5 -11.5 22.5 -23.5q17 -26 19.5 -54.5q2.5 -28.5 2.5 -51.5v-71h-70v82q0 23 -3.5 34q-3.5 11 -7.5 16q-11 14 -32 14q-19 0 -29 -16q-10 -14 -10 -37v-10q0 -35 7 -64q7 -29 28 -62l65 -101q10 -16 20 -34q10 -18 18 -40.5q8 -22.5 13 -51q5 -28.5 5 -64.5v-12q0 -28 -3 -59q-3 -31 -23 -57q-15 -20 -31.5 -27.5q-16.5 -7.5 -28.5 -9.5l0 -67h-65v70q-27 6 -48 26q-13 12 -20 28q-7 16 -10.5 32.5q-3.5 16.5 -4 33.5q-0.5 17 -0.5 32l0 87z" />
<glyph unicode="&#37;" horiz-adv-x="491" d="M413 249q0 8 -0.5 15q-0.5 7 -4.5 13q-5 8 -11.5 10q-6.5 2 -13.5 2q-7 0 -13 -2q-6 -2 -11 -10q-3 -5 -4.5 -13.5q-1.5 -8.5 -1.5 -14.5v-156q0 -6 1.5 -14.5q1.5 -8.5 4.5 -13.5q5 -8 11 -10q6 -2 13 -2q7 0 13.5 2q6.5 2 11.5 10q4 6 4.5 13q0.5 7 0.5 15v156zM471 138q0 -23 -2.5 -49.5q-2.5 -26.5 -16.5 -49.5q-5 -9 -22 -24q-17 -15 -48 -15q-30 0 -46.5 15q-16.5 15 -22.5 24q-15 24 -16.5 49.5q-1.5 25.5 -1.5 49.5v66q0 24 1.5 49.5q1.5 25.5 16.5 49.5q6 9 22.5 24q16.5 15 46.5 15q31 0 48 -15q17 -15 22 -24q14 -23 16.5 -49.5q2.5 -26.5 2.5 -49.5zM112 0l200 700h60l-201 -700zM138 607q0 8 -0.5 15q-0.5 7 -4.5 13q-5 8 -11.5 10q-6.5 2 -13.5 2q-7 0 -13 -2q-6 -2 -11 -10q-3 -5 -4.5 -13.5q-1.5 -8.5 -1.5 -14.5v-156q0 -6 1.5 -14.5q1.5 -8.5 4.5 -13.5q5 -8 11 -10q6 -2 13 -2q7 0 13.5 2q6.5 2 11.5 10q4 6 4.5 13q0.5 7 0.5 15v156zM196 496q0 -29 -3 -54q-3 -25 -15 -45q-8 -14 -25.5 -26.5q-17.5 -12.5 -44.5 -12.5q-30 0 -46.5 15q-16.5 15 -22.5 24q-14 23 -16.5 49.5q-2.5 26.5 -2.5 49.5v66q0 23 2.5 49.5q2.5 26.5 16.5 49.5q6 9 22.5 24q16.5 15 46.5 15q27 0 44.5 -12.5q17.5 -12.5 25.5 -26.5q12 -20 15 -45q3 -25 3 -54z" />
<glyph unicode="&#38;" horiz-adv-x="354" d="M179 482q11 21 13 32.5q2 11.5 2 28.5v46q0 9 -1.5 19.5q-1.5 10.5 -7.5 18.5q-11 13 -33 13q-11 0 -21.5 -3.5q-10.5 -3.5 -15.5 -10.5q-6 -8 -7.5 -18q-1.5 -10 -1.5 -17v-38q0 -11 3.5 -24q3.5 -13 7.5 -22l33 -77zM133 313l-24 -45q-7 -12 -8.5 -25.5q-1.5 -13.5 -1.5 -45.5v-76q0 -6 1.5 -17.5q1.5 -11.5 10.5 -20.5q11 -13 34 -13h41q14 0 24.5 11.5q10.5 11.5 15.5 22.5zM278 0l-15 34q-14 -18 -31.5 -26q-17.5 -8 -29.5 -8h-72q-38 0 -56.5 15.5q-18.5 15.5 -25.5 27.5q-17 26 -20 48.5q-3 22.5 -3 47.5v90q0 13 2.5 28q2.5 15 6.5 28q5 14 10 23.5q5 9.5 12 19.5l39 55l-40 84q-8 17 -15.5 40.5q-7.5 23.5 -7.5 45.5v28q0 26 6 51.5q6 25.5 26 45.5q17 17 41 24.5q24 7.5 47 7.5q20 0 43 -6q23 -6 43 -29q21 -24 25.5 -51.5q4.5 -27.5 4.5 -43.5v-40q0 -6 -0.5 -18q-0.5 -12 -4 -26.5q-3.5 -14.5 -10 -31.5q-6.5 -17 -18.5 -33l-46 -64l75 -162v146h67v-115q0 -30 -4 -63.5q-4 -33.5 -23 -68.5l45 -104z" />
<glyph unicode="&#39;" horiz-adv-x="124" d="M48 462l-18 126v112h64v-112l-18 -126z" />
<glyph unicode="&#40;" horiz-adv-x="169" d="M159 -160q-21 11 -46.5 34q-25.5 23 -49.5 66q-9 17 -15 33q-6 16 -9.5 33.5q-3.5 17.5 -5 37.5q-1.5 20 -1.5 46v370q0 25 1.5 45.5q1.5 20.5 5 38q3.5 17.5 9.5 33.5q6 16 15 33q24 43 49.5 66q25.5 23 46.5 34l0 -75q-16 -14 -27 -30.5q-11 -16.5 -18 -39.5q-8 -26 -9 -50.5q-1 -24.5 -1 -46.5v-386q0 -22 1 -46.5q1 -24.5 9 -50.5q7 -23 18 -39.5q11 -16.5 27 -30.5z" />
<glyph unicode="&#41;" horiz-adv-x="169" d="M10 -85q16 14 27 30.5q11 16.5 18 39.5q8 26 9 50.5q1 24.5 1 46.5v386q0 22 -1 46.5q-1 24.5 -9 50.5q-7 23 -18 39.5q-11 16.5 -27 30.5l0 75q21 -11 46.5 -34q25.5 -23 49.5 -66q9 -17 15 -33q6 -16 9.5 -33.5q3.5 -17.5 5 -38q1.5 -20.5 1.5 -45.5v-370q0 -26 -1.5 -46q-1.5 -20 -5 -37.5q-3.5 -17.5 -9.5 -33.5q-6 -16 -15 -33q-24 -43 -49.5 -66q-25.5 -23 -46.5 -34z" />
<glyph unicode="&#42;" horiz-adv-x="244" d="M136 602l63 48l15 -72l-70 -12l52 -69l-44 -43l-30 89l-31 -89l-43 44l52 68l-70 13l16 71l62 -48l-12 98l51 0z" />
<glyph unicode="&#43;" horiz-adv-x="410" d="M175 196v135h-135v60h135v135h60v-135h135v-60h-135l0 -135z" />
<glyph unicode="&#44;" horiz-adv-x="139" d="M30 -132l33 132h-32v120h78v-129l-43 -123z" />
<glyph unicode="&#45;" horiz-adv-x="174" d="M10 298h154v-62l-154 0z" />
<glyph unicode="&#46;" horiz-adv-x="138" d="M30 120h78v-120l-78 0z" />
<glyph unicode="&#47;" horiz-adv-x="318" d="M5 -160l248 860h60l-248 -860z" />
<glyph unicode="&#48;" horiz-adv-x="304" d="M194 571q0 12 -1 23.5q-1 11.5 -6 21.5q-10 20 -35 20q-25 0 -35 -20q-5 -10 -6 -21.5q-1 -11.5 -1 -23.5v-445q0 -11 0.5 -23q0.5 -12 7.5 -23q6 -10 14.5 -13q8.5 -3 19.5 -3q11 0 19.5 3q8.5 3 14.5 13q7 11 7.5 23q0.5 12 0.5 23zM152 -10q-30 0 -49.5 9.5q-19.5 9.5 -30.5 20.5q-15 15 -23 33.5q-8 18.5 -12 37q-4 18.5 -4.5 36.5q-0.5 18 -0.5 31v369q0 35 3.5 71q3.5 36 28.5 68q18 23 41.5 33.5q23.5 10.5 46.5 10.5q23 0 46.5 -10.5q23.5 -10.5 41.5 -33.5q25 -32 28.5 -68q3.5 -36 3.5 -71v-369q0 -13 -0.5 -31q-0.5 -18 -4.5 -36.5q-4 -18.5 -12 -37q-8 -18.5 -23 -33.5q-11 -11 -30.5 -20.5t-49.5 -9.5z" />
<glyph unicode="&#49;" horiz-adv-x="183" d="M70 0v557q-20 -15 -35.5 -20q-15.5 -5 -24.5 -7l0 70q11 4 22.5 11.5q11.5 7.5 19.5 15.5q12 14 20.5 35.5q8.5 21.5 10.5 37.5l65 0l0 -700z" />
<glyph unicode="&#50;" horiz-adv-x="290" d="M20 0q-2 35 3 88q5 53 28 109q11 26 24 48.5q13 22.5 27 45.5q12 20 20 34q8 14 16 30q14 26 24.5 51q10.5 25 17.5 59q5 22 6 43.5q1 21.5 1 43.5q0 17 -1.5 30.5q-1.5 13.5 -6.5 23.5q-10 20 -36 20q-17 0 -26 -8q-9 -8 -13 -15q-4 -8 -5.5 -20.5q-1.5 -12.5 -1.5 -37.5v-62l-70 1v28q0 55 4.5 88.5q4.5 33.5 20.5 55.5q14 18 39.5 31q25.5 13 57.5 13q30 0 52 -10.5q22 -10.5 36 -29.5q19 -25 23 -54q4 -29 5 -51q2 -42 -2.5 -78q-4.5 -36 -17.5 -75q-12 -36 -28 -67q-16 -31 -32 -59q-8 -15 -14.5 -25q-6.5 -10 -12.5 -19.5q-6 -9.5 -13 -21q-7 -11.5 -17 -28.5q-14 -25 -23.5 -50.5q-9.5 -25.5 -12.5 -57.5l166 0l0 -74z" />
<glyph unicode="&#51;" horiz-adv-x="283" d="M90 230v-82q0 -29 2 -42q2 -13 6 -20q11 -22 36 -22q17 0 25 7q8 7 11 15q2 4 3.5 14q1.5 10 1.5 37v126q0 41 -5 55q-5 15 -13 19q-8 4 -18 4h-39v74h36q12 0 24 11.5q12 11.5 12 44.5v110q0 17 -3 26q-3 9 -5 13q-5 7 -13 11.5q-8 4.5 -20 4.5q-10 0 -18 -4.5q-8 -4.5 -13 -10.5q-6 -9 -7 -20.5q-1 -11.5 -1 -22.5v-73h-68v52q0 35 3.5 56.5q3.5 21.5 10.5 36.5q4 8 11 18.5q7 10.5 18 19.5q11 9 27.5 15.5q16.5 6.5 39.5 6.5q8 0 20 -1.5q12 -1.5 25.5 -6.5q13.5 -5 26.5 -16q13 -11 24 -30q14 -23 17 -49q3 -26 3 -42v-55q0 -28 -3.5 -56.5q-3.5 -28.5 -18.5 -50.5q-7 -10 -15 -16q-8 -6 -21 -9l0 -3q25 -9 36.5 -23q11.5 -14 17.5 -33q5 -15 6 -28.5q1 -13.5 1 -24.5v-107q0 -26 -2.5 -54.5q-2.5 -28.5 -13.5 -52.5q-5 -10 -12.5 -21q-7.5 -11 -19.5 -20q-12 -9 -29 -15q-17 -6 -40 -6q-12 0 -26 2.5q-14 2.5 -27 9q-13 6.5 -24.5 18.5q-11.5 12 -20.5 32q-8 18 -13 45q-5 27 -5 73l0 60z" />
<glyph unicode="&#52;" horiz-adv-x="318" d="M175 527l-100 -305h100zM175 0v152h-165v69l169 479h74v-478h50v-70h-50l0 -152z" />
<glyph unicode="&#53;" horiz-adv-x="291" d="M98 203v-67q0 -13 1.5 -27q1.5 -14 9.5 -26q12 -19 37 -19q8 0 18 2.5q10 2.5 16 13.5q2 3 5 14q3 11 3 42v189q0 14 -1.5 28q-1.5 14 -7.5 25q-12 19 -37 19q-8 0 -18.5 -3.5q-10.5 -3.5 -19.5 -14.5q-6 -8 -7.5 -15.5q-1.5 -7.5 -1.5 -15.5v-21h-60v373h210v-74h-150v-197q4 2 12.5 9q8.5 7 13.5 9q8 5 22 10.5q14 5.5 34 5.5q21 0 37.5 -8q16.5 -8 28.5 -28q14 -23 18.5 -58q4.5 -35 4.5 -89v-118q0 -37 -3 -60q-3 -23 -9 -40q-8 -22 -20 -36q-12 -14 -26 -22q-14 -8 -28.5 -11q-14.5 -3 -26.5 -3q-15 0 -31 3.5q-16 3.5 -31 12q-15 8.5 -27.5 23q-12.5 14.5 -21.5 36.5q-11 26 -13 52.5q-2 26.5 -3 54.5l-1 31z" />
<glyph unicode="&#54;" horiz-adv-x="298" d="M150 64q8 0 17.5 2.5q9.5 2.5 15.5 13.5q2 3 4.5 13.5q2.5 10.5 2.5 40.5v138q0 14 -1 28q-1 14 -7 25q-6 11 -14 14q-8 3 -19 3q-8 0 -16 -3q-8 -3 -14 -13q-6 -10 -7.5 -24.5q-1.5 -14.5 -1.5 -31.5v-136q0 -14 1 -26.5q1 -12.5 7 -24.5q11 -19 32 -19zt0 0zM154 -10q-9 0 -23 2q-14 2 -29.5 9.5q-15.5 7.5 -30 22.5q-14.5 15 -24.5 41q-10 27 -12.5 63q-2.5 36 -2.5 91v290q0 61 7 94.5q7 33.5 18 52.5q10 18 22 28.5q12 10.5 25 16q13 5.5 25 7.5q12 2 21 2q36 0 58.5 -17.5q22.5 -17.5 31.5 -33.5q14 -25 16 -54.5q2 -29.5 2 -51.5v-58h-68v70q0 26 -2 37.5q-2 11.5 -5 16.5q-5 11 -13 14q-8 3 -19 3q-7 0 -16 -2.5q-9 -2.5 -16 -13.5q-8 -11 -8.5 -27.5q-0.5 -16.5 -0.5 -29.5v-191q11 15 26 25q9 6 20.5 10.5q11.5 4.5 22.5 4.5q18 0 34 -7.5q16 -7.5 27 -21.5q12 -15 20 -46q8 -31 8 -90v-82q0 -22 -1.5 -49.5q-1.5 -27.5 -11.5 -53.5q-16 -42 -43.5 -57t-57.5 -15z" />
<glyph unicode="&#55;" horiz-adv-x="249" d="M50 0q0 25 3 87q3 62 19 151q4 23 10.5 56q6.5 33 14.5 68.5q8 35.5 17 70q9 34.5 17 61.5q5 17 17 51.5q12 34.5 31 80.5l-164 0v74h224v-60q-5 -16 -10.5 -36q-5.5 -20 -10.5 -40q-5 -20 -9.5 -37.5q-4.5 -17.5 -7.5 -27.5q-29 -118 -41 -193q-12 -75 -17 -115q-5 -48 -9 -93q-4 -45 -6 -98z" />
<glyph unicode="&#56;" horiz-adv-x="290" d="M145 413q17 0 25.5 6.5q8.5 6.5 11.5 14.5q2 5 3.5 14q1.5 9 1.5 26v106q0 9 -1.5 20.5q-1.5 11.5 -7.5 20.5q-7 10 -16 12.5q-9 2.5 -17 2.5q-8 0 -17 -2.5q-9 -2.5 -16 -12.5q-6 -9 -7.5 -20.5q-1.5 -11.5 -1.5 -20.5v-106q0 -17 1.5 -26q1.5 -9 3.5 -14q3 -8 11.5 -14.5q8.5 -6.5 25.5 -6.5zt0 0zM145 64q8 0 18.5 3q10.5 3 17.5 17q3 6 4.5 18q1.5 12 1.5 40v119q0 29 -1.5 41.5q-1.5 12.5 -3.5 19.5q-9 27 -37 27q-28 0 -37 -27q-2 -7 -3.5 -19.5q-1.5 -12.5 -1.5 -41.5v-119q0 -28 1.5 -40q1.5 -12 4.5 -18q7 -14 17.5 -17q10.5 -3 18.5 -3zt0 0zM146 -10q-9 0 -21 1.5q-12 1.5 -25 6.5q-13 5 -26 14.5q-13 9.5 -24 26.5q-9 13 -14 29.5q-5 16.5 -7.5 31.5q-2.5 15 -3 27.5q-0.5 12.5 -0.5 17.5v107q0 20 2.5 40q2.5 20 8.5 36q5 11 15 26q10 15 34 26q-16 7 -28 22q-17 21 -22 45.5q-5 24.5 -5 60.5v47q0 37 7 68q7 31 26 53q11 13 31 23.5q20 10.5 51 10.5q31 0 51 -10.5q20 -10.5 31 -23.5q19 -22 26 -53q7 -31 7 -68v-47q0 -36 -5 -60.5q-5 -24.5 -22 -45.5q-12 -15 -28 -22q24 -11 34 -26q10 -15 15 -26q6 -16 8.5 -36q2.5 -20 2.5 -40v-107q0 -5 -0.5 -17.5q-0.5 -12.5 -3 -27.5q-2.5 -15 -7.5 -31.5q-5 -16.5 -14 -29.5q-12 -17 -25 -27q-13 -10 -26 -15q-13 -5 -24.5 -6t-18.5 -1z" />
<glyph unicode="&#57;" horiz-adv-x="293" d="M144 636q-23 0 -33 -18q-6 -10 -7 -23.5q-1 -13.5 -1 -28.5v-138q0 -16 1 -30q1 -14 7 -24q10 -16 33 -16q20 0 30 19q5 7 7 20q2 13 2 36v133q0 15 -1 28q-1 13 -7 24q-10 18 -31 18zt0 0zM139 710q9 0 23 -2q14 -2 29.5 -9.5q15.5 -7.5 30 -22.5q14.5 -15 24.5 -41q10 -27 12.5 -63q2.5 -36 2.5 -91v-290q0 -61 -7 -94.5q-7 -33.5 -18 -52.5q-17 -31 -42 -42.5q-25 -11.5 -51 -11.5q-37 0 -57.5 17.5q-20.5 17.5 -29.5 33.5q-15 26 -18 57q-3 31 -3 63v44h68v-54q0 -28 1.5 -42q1.5 -14 5.5 -23q10 -22 33 -22q12 0 19 4.5q7 4.5 12 11.5q4 5 6.5 17q2.5 12 2.5 40v191q-11 -15 -26 -25q-23 -15 -48 -15q-17 0 -32 8.5q-15 8.5 -24 20.5q-12 15 -20 46q-8 31 -8 90v82q0 22 1.5 49.5q1.5 27.5 11.5 53.5q16 42 43.5 57t57.5 15z" />
<glyph unicode="&#58;" horiz-adv-x="138" d="M30 512h78v-120h-78zM30 120h78v-120l-78 0z" />
<glyph unicode="&#59;" horiz-adv-x="139" d="M30 -132l33 132h-32v120h78v-129l-43 -123zM31 512h78v-120l-78 0z" />
<glyph unicode="&#60;" horiz-adv-x="410" d="M370 152l-330 179v28l330 179v-60l-247 -131l247 -135z" />
<glyph unicode="&#61;" horiz-adv-x="410" d="M40 310h330v-60h-330zM40 457h330v-60l-330 0z" />
<glyph unicode="&#62;" horiz-adv-x="410" d="M40 212l247 135l-247 131v60l330 -179v-28l-330 -179z" />
<glyph unicode="&#63;" horiz-adv-x="244" d="M71 0v120h78v-120zM81 200v89q0 29 8 48q8 19 18 43l30 72q14 32 17 59q3 27 3 53v13q0 8 -1.5 19q-1.5 11 -3.5 19q-9 25 -34 25q-26 0 -35 -24q-4 -11 -5 -24.5q-1 -13.5 -1 -33.5q0 -18 1 -34.5q1 -16.5 4 -36.5l-67 0v93q0 22 4 47.5q4 25.5 21 45.5q13 16 34.5 26.5q21.5 10.5 49.5 10.5q29 0 51.5 -13q22.5 -13 33.5 -30q10 -15 15 -42.5q5 -27.5 5 -47.5v-35q0 -24 -5 -51q-5 -27 -16 -53q-5 -12 -11 -24q-6 -12 -12 -23.5q-6 -11.5 -11 -20q-5 -8.5 -8 -12.5q-11 -17 -19 -33.5q-8 -16.5 -8 -36.5l0 -88z" />
<glyph unicode="&#64;" horiz-adv-x="439" d="M196 227q0 -6 0.5 -15.5q0.5 -9.5 2.5 -15.5q2 -6 5.5 -12q3.5 -6 14.5 -6q4 0 10.5 3.5q6.5 3.5 10.5 16.5q2 8 3.5 21q1.5 13 1.5 21v223q0 8 -0.5 21.5q-0.5 13.5 -3.5 20.5q-3 8 -9 12q-6 4 -11 4q-11 0 -18 -7q-7 -7 -7 -20zM150 0q-18 0 -40.5 5q-22.5 5 -42.5 25q-14 13 -21 27.5q-7 14.5 -10 28q-3 13.5 -3.5 25q-0.5 11.5 -0.5 19.5v432q0 26 6 52.5q6 26.5 26 48.5q14 15 36.5 26q22.5 11 47.5 11h152q21 0 36 -5q15 -5 25 -12q10 -7 15.5 -13.5q5.5 -6.5 7.5 -9.5q5 -7 9 -14.5q4 -7.5 7 -18.5q3 -11 5 -26.5q2 -15.5 2 -37.5v-311q0 -19 -2.5 -41.5q-2.5 -22.5 -12.5 -42.5q-12 -23 -29 -30.5q-17 -7.5 -30 -7.5h-37q-18 0 -32 9.5q-14 9.5 -16 30.5q-2 -10 -6 -18q-4 -8 -9 -14q-14 -18 -39 -18q-14 0 -27.5 7.5q-13.5 7.5 -21.5 28.5q-5 13 -6 29q-1 16 -1 35v262q0 40 10 63q10 23 24.5 28.5q14.5 5.5 23.5 5.5q18 0 33 -18q5 -7 10 -15q5 -8 7 -16l0 41h59v-365q0 -11 3.5 -16q3.5 -5 8 -6q4.5 -1 9.5 0q5 1 7 2q8 5 12 16q4 11 4 21v333q0 20 -1.5 38.5q-1.5 18.5 -15.5 31.5q-8 8 -22.5 12q-14.5 4 -26.5 4h-120q-27 0 -42 -12.5q-15 -12.5 -22 -27.5q-8 -17 -8.5 -35.5q-0.5 -18.5 -0.5 -35.5v-381q0 -17 0.5 -36.5q0.5 -19.5 19.5 -37.5q14 -13 27 -15.5q13 -2.5 24 -2.5h246l0 -58z" />
<glyph unicode="&#65;" horiz-adv-x="290" d="M182 203l-36 346l-2 1l-36 -347zM203 0l-14 129h-88l-14 -129h-80l88 700h100l88 -700z" />
<glyph unicode="&#66;" horiz-adv-x="295" d="M144 406q8 0 19 2q11 2 20 12q8 9 10 23.5q2 14.5 2 31.5v84q0 11 -1.5 25.5q-1.5 14.5 -11.5 25.5q-7 7 -18.5 11.5q-11.5 4.5 -27.5 4.5h-23v-220zM146 74q8 0 21 2.5q13 2.5 21 14.5q9 13 9 48v104q0 20 -1 37q-1 17 -9 30q-11 17 -26 20.5q-15 3.5 -25 3.5h-23v-260zM35 700h120q36 0 57.5 -12.5q21.5 -12.5 32.5 -25.5q19 -23 23 -53.5q4 -30.5 4 -59.5v-70q0 -19 -2 -39q-2 -20 -12 -37q-9 -17 -22 -25q-13 -8 -28 -11l-1 -3q26 -8 39.5 -22.5q13.5 -14.5 19.5 -29.5q7 -17 8 -36q1 -19 1 -40v-100q0 -23 -2 -46.5q-2 -23.5 -15 -44.5q-11 -17 -30.5 -31q-19.5 -14 -53.5 -14l-139 0z" />
<glyph unicode="&#67;" horiz-adv-x="295" d="M151 64q15 0 23 6.5q8 6.5 10 11.5q5 9 6.5 24.5q1.5 15.5 1.5 42.5v115h78v-118q0 -45 -7 -70.5q-7 -25.5 -16 -39.5q-10 -14 -32 -30q-22 -16 -63 -16q-38 0 -60.5 16q-22.5 16 -33.5 31q-10 15 -15.5 32q-5.5 17 -7.5 34.5q-2 17.5 -2.5 34q-0.5 16.5 -0.5 29.5v384q0 31 3.5 60q3.5 29 22.5 55q11 14 34 29q23 15 64 15q26 0 48.5 -9q22.5 -9 39.5 -32q11 -15 16.5 -32q5.5 -17 7.5 -34.5q2 -17.5 2 -33.5q0 -16 0 -28v-77h-74v105q0 12 -1.5 27q-1.5 15 -9.5 26q-5 5 -12.5 9.5q-7.5 4.5 -19.5 4.5q-12 0 -19.5 -4.5q-7.5 -4.5 -12.5 -9.5q-8 -11 -9.5 -26q-1.5 -15 -1.5 -27v-420q0 -27 1.5 -42.5q1.5 -15.5 6.5 -24.5q2 -5 10 -11.5t23 -6.5z" />
<glyph unicode="&#68;" horiz-adv-x="309" d="M146 74q11 0 25 4q14 4 22 21q2 5 4 16.5q2 11.5 2 40.5v392q0 15 -1.5 32q-1.5 17 -6.5 26q-8 15 -22 17.5q-14 2.5 -22 2.5h-34v-552zM35 700h121q24 0 41 -5q17 -5 29 -12q12 -7 19 -14.5q7 -7.5 10 -12.5q6 -8 14 -32.5q8 -24.5 8 -81.5v-402q0 -22 -5 -50.5q-5 -28.5 -25 -51.5q-20 -24 -44.5 -31q-24.5 -7 -44.5 -7l-123 0z" />
<glyph unicode="&#69;" horiz-adv-x="251" d="M35 700h206v-74h-128v-219h82v-74h-82v-259h128v-74l-206 0z" />
<glyph unicode="&#70;" horiz-adv-x="247" d="M35 0v700h205v-74h-127v-217h78v-74h-78l0 -335z" />
<glyph unicode="&#71;" horiz-adv-x="300" d="M268 0h-39l-4 46h-3q-7 -20 -22 -35q-11 -10 -23.5 -15.5q-12.5 -5.5 -30.5 -5.5q-29 0 -51 10.5q-22 10.5 -36 27.5q-19 24 -23 52q-4 28 -4 56v437q0 25 5 52q5 27 27 50q15 16 38 25.5q23 9.5 48 9.5q25 0 48 -8q23 -8 39 -25q17 -18 24 -44q7 -26 7 -47v-110h-74v88q0 17 -1 32q-1 15 -9 26q-7 9 -15.5 11.5q-8.5 2.5 -16.5 2.5q-8 0 -16.5 -2.5q-8.5 -2.5 -15.5 -11.5q-8 -11 -9 -26.5q-1 -15.5 -1 -33.5v-432q0 -22 2.5 -33q2.5 -11 6.5 -17q6 -9 14.5 -12.5q8.5 -3.5 17.5 -3.5q22 0 32 16q8 11 9.5 25q1.5 14 1.5 28v158h-46v74l120 0z" />
<glyph unicode="&#72;" horiz-adv-x="310" d="M113 341v-341h-78v700h78v-285h84v285h78v-700h-78l0 341z" />
<glyph unicode="&#73;" horiz-adv-x="148" d="M35 700h78v-700l-78 0z" />
<glyph unicode="&#74;" horiz-adv-x="281" d="M246 154q0 -13 0 -29q0 -16 -2 -32.5q-2 -16.5 -7 -32.5q-5 -16 -15 -29q-11 -16 -31 -28.5q-20 -12.5 -52 -12.5q-31 0 -55 11.5q-24 11.5 -38 29.5q-11 14 -16.5 30q-5.5 16 -7.5 32q-2 16 -2 31q0 16 0 30v133h70v-153q0 -15 0.5 -28.5q0.5 -13.5 7.5 -24.5q4 -6 11 -11.5q7 -5.5 21 -5.5q12 0 19 4.5q7 4.5 12 12.5q5 10 6 23q1 13 1 30v566l78 0z" />
<glyph unicode="&#75;" horiz-adv-x="305" d="M35 0v700h78v-297l91 297h83l-106 -331l119 -369h-83l-104 338l0 -338z" />
<glyph unicode="&#76;" horiz-adv-x="247" d="M35 0v700h78v-626h129l0 -74z" />
<glyph unicode="&#77;" horiz-adv-x="432" d="M187 0l-78 567h-3l7 -93v-474h-78v700h120l60 -450h2l60 450h120v-700h-78v474l7 93h-3l-78 -567z" />
<glyph unicode="&#78;" horiz-adv-x="350" d="M112 536l-3 -1l4 -64v-471h-78v700h111l93 -520h3l-5 59v461h78v-700l-104 0z" />
<glyph unicode="&#79;" horiz-adv-x="302" d="M110 137q0 -26 1.5 -37.5q1.5 -11.5 4.5 -16.5q4 -8 12.5 -13.5q8.5 -5.5 22.5 -5.5q14 0 22.5 5.5q8.5 5.5 12.5 13.5q3 5 4.5 16.5q1.5 11.5 1.5 37.5v426q0 26 -1.5 37.5q-1.5 11.5 -4.5 16.5q-4 8 -12.5 13.5q-8.5 5.5 -22.5 5.5q-14 0 -22.5 -5.5q-8.5 -5.5 -12.5 -13.5q-3 -5 -4.5 -16.5q-1.5 -11.5 -1.5 -37.5zM151 -10q-41 0 -63 15q-22 15 -30 26q-11 14 -16.5 30q-5.5 16 -7.5 32q-2 16 -2 31q0 16 0 30v392q0 13 0 29q0 16 2 32q2 16 7.5 32q5.5 16 16.5 30q4 5 11.5 12q7.5 7 18.5 13.5q11 6.5 26.5 11q15.5 4.5 36.5 4.5q21 0 36.5 -4.5q15.5 -4.5 26.5 -11q11 -6.5 18.5 -13.5q7.5 -7 11.5 -12q11 -14 16.5 -30q5.5 -16 7.5 -32q2 -16 2 -32q0 -16 0 -29v-392q0 -14 0 -30q0 -15 -2 -31q-2 -16 -7.5 -32q-5.5 -16 -16.5 -30q-8 -11 -30 -26t-63 -15z" />
<glyph unicode="&#80;" horiz-adv-x="295" d="M149 389q10 0 22.5 1.5q12.5 1.5 20.5 18.5q2 3 3.5 12.5q1.5 9.5 1.5 35.5v111q0 4 -1.5 19q-1.5 15 -10.5 26q-8 9 -18.5 11q-10.5 2 -18.5 2h-35v-237zM35 0v700h122q9 0 20.5 -1q11.5 -1 24 -5.5q12.5 -4.5 25 -13q12.5 -8.5 23.5 -22.5q17 -23 21 -50q4 -27 4 -47v-119q0 -26 -6 -52q-6 -26 -19 -43q-14 -20 -33 -27.5q-19 -7.5 -39 -8.5q-14 -1 -33.5 0.5q-19.5 1.5 -31.5 3.5l0 -315z" />
<glyph unicode="&#81;" horiz-adv-x="302" d="M110 137q0 -26 1.5 -37.5q1.5 -11.5 4.5 -16.5q4 -8 12.5 -13.5q8.5 -5.5 22.5 -5.5q14 0 22.5 5.5q8.5 5.5 12.5 13.5q3 5 4.5 16.5q1.5 11.5 1.5 37.5v426q0 26 -1.5 37.5q-1.5 11.5 -4.5 16.5q-4 8 -12.5 13.5q-8.5 5.5 -22.5 5.5q-14 0 -22.5 -5.5q-8.5 -5.5 -12.5 -13.5q-3 -5 -4.5 -16.5q-1.5 -11.5 -1.5 -37.5zM175 -19q0 -2 0.5 -4.5q0.5 -2.5 2.5 -4.5q2 -2 6.5 -3q4.5 -1 8.5 -1h52v-68h-73q-9 0 -20.5 2.5q-11.5 2.5 -19.5 16.5q-3 5 -5 14q-2 9 -2 24v35q-21 4 -38.5 14.5q-17.5 10.5 -28.5 24.5q-11 14 -16.5 30q-5.5 16 -7.5 32q-2 16 -2 31q0 16 0 30v392q0 13 0 29q0 16 2 32q2 16 7.5 32q5.5 16 16.5 30q4 5 11.5 12q7.5 7 18.5 13.5q11 6.5 26.5 11q15.5 4.5 36.5 4.5q21 0 36.5 -4.5q15.5 -4.5 26.5 -11q11 -6.5 18.5 -13.5q7.5 -7 11.5 -12q11 -14 16.5 -30q5.5 -16 7.5 -32q2 -16 2 -32q0 -16 0 -29v-392q0 -28 -2 -61q-2 -33 -24 -62q-11 -14 -28.5 -25.5q-17.5 -11.5 -40.5 -14.5z" />
<glyph unicode="&#82;" horiz-adv-x="297" d="M143 396q8 0 21.5 2.5q13.5 2.5 22.5 15.5q3 4 6.5 15q3.5 11 3.5 39v96q0 11 -1.5 24.5q-1.5 13.5 -10.5 23.5q-10 11 -24 12.5q-14 1.5 -22 1.5h-26v-230zM201 0q-8 15 -11 33q-3 18 -3 50v168q0 14 -1.5 27.5q-1.5 13.5 -8.5 23.5q-6 8 -17 14q-11 6 -25 6h-22v-322h-78v700h118q9 0 21.5 -1.5q12.5 -1.5 26 -6q13.5 -4.5 26 -14q12.5 -9.5 23.5 -24.5q8 -12 12.5 -25q4.5 -13 6.5 -25.5q2 -12.5 2.5 -24q0.5 -11.5 0.5 -18.5v-84q0 -21 -3 -45.5q-3 -24.5 -17 -41.5q-16 -21 -47 -27l0 -3q14 -5 22 -11q8 -6 12 -11q20 -22 23 -47q3 -25 3 -42v-150q0 -34 2.5 -54.5q2.5 -20.5 19.5 -39.5l0 -5z" />
<glyph unicode="&#83;" horiz-adv-x="284" d="M95 233v-104q0 -7 1 -19.5q1 -12.5 3 -18.5q6 -20 19 -23.5q13 -3.5 24 -3.5q8 0 15.5 1.5q7.5 1.5 13.5 9.5q7 10 8.5 26.5q1.5 16.5 1.5 24.5v37q0 32 -8 58q-8 26 -24 52l-66 104q-11 17 -21 37q-10 20 -17 38q-8 23 -14 50q-6 27 -6 56v18q0 21 5.5 45.5q5.5 24.5 22.5 47.5q18 23 40 32q22 9 48 9q26 0 50 -8.5q24 -8.5 42 -34.5q17 -26 19.5 -54.5q2.5 -28.5 2.5 -51.5v-71h-70v82q0 23 -3.5 34q-3.5 11 -7.5 16q-11 14 -32 14q-19 0 -29 -16q-10 -14 -10 -37v-10q0 -30 6 -60.5q6 -30.5 29 -65.5l65 -101q10 -16 20 -34q10 -18 18 -40.5q8 -22.5 13 -51q5 -28.5 5 -64.5v-12q0 -28 -3 -58.5q-3 -30.5 -23 -57.5q-19 -26 -41.5 -32q-22.5 -6 -46.5 -6q-20 0 -43 6q-23 6 -42 24q-13 12 -20 28q-7 16 -10.5 32.5q-3.5 16.5 -4 33.5q-0.5 17 -0.5 32l0 87z" />
<glyph unicode="&#84;" horiz-adv-x="272" d="M97 0v626h-92v74h262v-74h-92l0 -626z" />
<glyph unicode="&#85;" horiz-adv-x="304" d="M111 700v-566q0 -26 2 -36q2 -10 4 -15q4 -8 12.5 -13.5q8.5 -5.5 22.5 -5.5q14 0 22.5 5.5q8.5 5.5 12.5 13.5q2 5 4 15q2 10 2 36v566h78v-546q0 -14 0 -30q0 -15 -2 -31q-2 -16 -7.5 -32q-5.5 -16 -16.5 -30q-8 -11 -30 -26q-22 -15 -63 -15q-41 0 -63 15q-22 15 -30 26q-11 14 -16.5 30q-5.5 16 -7.5 32q-2 16 -2 31q0 16 0 30l0 546z" />
<glyph unicode="&#86;" horiz-adv-x="286" d="M103 0l-95 700h78l54 -473l1 -38h4l1 38l54 473h78l-95 -700z" />
<glyph unicode="&#87;" horiz-adv-x="450" d="M271 0l-42 436l-2 61h-4l-2 -61l-42 -436h-91l-78 700h80l41 -470v-40h5l3 55l41 455h90l41 -455l3 -55h5v40l41 470h80l-78 -700z" />
<glyph unicode="&#88;" horiz-adv-x="312" d="M221 0l-60 212l-4 28h-2l-4 -28l-60 -212h-86l112 368l-101 332h86l51 -197l2 -22h2l2 22l51 197h86l-101 -331l112 -369z" />
<glyph unicode="&#89;" horiz-adv-x="298" d="M112 0v293l-107 407h80l60 -273l2 -25h4l2 25l60 273h80l-107 -407l0 -293z" />
<glyph unicode="&#90;" horiz-adv-x="258" d="M15 0v63l134 563h-125v74h211v-58l-135 -568h143l0 -74z" />
<glyph unicode="&#91;" horiz-adv-x="205" d="M35 -150v850h160v-71h-89v-708h89l0 -71z" />
<glyph unicode="&#92;" horiz-adv-x="318" d="M5 700h60l248 -860l-60 0z" />
<glyph unicode="&#93;" horiz-adv-x="205" d="M10 -150v71h89v708h-89v71h160l0 -850z" />
<glyph unicode="&#94;" horiz-adv-x="324" d="M10 490l152 195l152 -195v-68l-152 163l-152 -163z" />
<glyph unicode="&#95;" horiz-adv-x="330" d="M0 391h330v-60l-330 0z" />
<glyph unicode="&#96;" horiz-adv-x="215" d="M160 554l-142 114l58 56l103 -152z" />
<glyph unicode="&#97;" horiz-adv-x="238" d="M145 256q-5 -4 -13 -11.5q-8 -7.5 -16.5 -16.5q-8.5 -9 -16 -18.5q-7.5 -9.5 -10.5 -16.5q-2 -5 -4 -16q-2 -11 -2 -34v-42q0 -17 1 -24.5q1 -7.5 3 -12.5q5 -13 18 -13q19 0 29 17q8 12 9.5 22.5q1.5 10.5 1.5 20.5v145zM159 0l-9 31q-5 -9 -12.5 -16.5q-7.5 -7.5 -14.5 -12.5q-10 -7 -20.5 -9.5q-10.5 -2.5 -21.5 -2.5q-16 0 -28 5q-12 5 -22 20q-11 16 -13.5 33.5q-2.5 17.5 -2.5 30.5v75q0 15 1 27q1 12 5.5 24q4.5 12 12.5 24q8 12 22 26q16 16 35 31.5q19 15.5 54 40.5l0 93q0 7 -1 14q-1 7 -4 13q-5 8 -11 10.5q-6 2.5 -14 2.5q-8 0 -14 -2.5q-6 -2.5 -11 -10.5q-3 -6 -4 -13q-1 -7 -1 -14v-81h-68v70q0 19 2.5 40q2.5 21 18.5 41q7 8 25 20q18 12 53 12q19 0 33.5 -4q14.5 -4 23.5 -9.5q9 -5.5 14 -11q5 -5.5 7 -7.5q14 -18 16.5 -41.5q2.5 -23.5 2.5 -40.5l0 -408z" />
<glyph unicode="&#98;" horiz-adv-x="255" d="M162 377q0 29 -1.5 39q-1.5 10 -3.5 15q-7 17 -24 17q-19 0 -28 -19q-5 -11 -6 -25q-1 -14 -1 -29v-254q0 -22 2 -32.5q2 -10.5 4 -15.5q4 -8 11 -14.5q7 -6.5 18 -6.5q20 0 25 16q1 3 2.5 12.5q1.5 9.5 1.5 34.5zM98 481q6 7 15 15q18 14 43 14q25 0 39 -11q14 -11 21 -23q8 -14 11 -34q3 -20 3 -49v-288q0 -33 -2 -48.5q-2 -15.5 -6 -23.5q-8 -18 -27 -30.5q-19 -12.5 -48 -12.5q-24 0 -46 16q-17 12 -25 31l-6 -37h-40v700l68 0z" />
<glyph unicode="&#99;" horiz-adv-x="245" d="M225 118q0 -32 -2.5 -47.5q-2.5 -15.5 -5.5 -24.5q-8 -23 -29 -39.5q-21 -16.5 -62 -16.5q-26 0 -50.5 11q-24.5 11 -38.5 43q-2 5 -7 23q-5 18 -5 56v261q0 25 1.5 48q1.5 23 11.5 41q8 16 29.5 32.5q21.5 16.5 56.5 16.5q26 0 50.5 -10.5q24.5 -10.5 37.5 -39.5q7 -15 9 -37q2 -22 2 -61v-59h-68v96q0 15 -1.5 22.5q-1.5 7.5 -3.5 10.5q-3 5 -9 9.5q-6 4.5 -17 4.5q-12 0 -18 -5q-6 -5 -8 -9q-2 -2 -3.5 -9q-1.5 -7 -1.5 -24v-305q0 -6 1 -17.5q1 -11.5 5 -19.5q8 -15 27 -15q11 0 17 4.5q6 4.5 9 10.5q1 2 3 10q2 8 2 28v89l68 0z" />
<glyph unicode="&#100;" horiz-adv-x="255" d="M93 117q0 -24 1 -36q1 -12 6 -20q5 -7 10 -9q5 -2 11 -2q9 0 16 2.5q7 2.5 12 11.5q5 8 6.5 19.5q1.5 11.5 1.5 22.5v267q0 12 -1 27.5q-1 15.5 -6 26.5q-10 21 -31 21q-16 0 -22 -14q-3 -8 -3.5 -16q-0.5 -8 -0.5 -17v-284zM225 700v-700h-66v21q-9 -11 -20 -20q-9 -6 -17 -8.5q-8 -2.5 -22 -2.5q-20 0 -37 8.5q-17 8.5 -28 32.5q-6 14 -8 29q-2 15 -2 35v320q0 14 1.5 30.5q1.5 16.5 9.5 30.5q18 34 55 34q12 0 24.5 -3q12.5 -3 22.5 -10q11 -7 17 -16l2 0l0 219z" />
<glyph unicode="&#101;" horiz-adv-x="246" d="M153 414q0 9 -1 18.5q-1 9.5 -6 15.5q-2 3 -7.5 6.5q-5.5 3.5 -15.5 3.5q-10 0 -15.5 -3.5q-5.5 -3.5 -7.5 -6.5q-5 -6 -6 -15.5q-1 -9.5 -1 -18.5v-114h60zM221 102q0 -32 -5.5 -50q-5.5 -18 -12.5 -28q-8 -12 -26.5 -23q-18.5 -11 -49.5 -11q-30 0 -49 10.5q-19 10.5 -29 22.5q-17 21 -20.5 46.5q-3.5 25.5 -3.5 45.5v283q0 24 2.5 47.5q2.5 23.5 20.5 44.5q12 14 31.5 23q19.5 9 43.5 9q24 0 43.5 -9q19.5 -9 31.5 -23q18 -21 20.5 -44.5q2.5 -23.5 2.5 -47.5v-156h-128v-137q0 -19 2 -27q2 -8 4 -11q8 -13 26 -13q18 0 26 13q2 5 4 13q2 8 2 26v85l64 0z" />
<glyph unicode="&#102;" horiz-adv-x="166" d="M49 0v454h-39v58h38v110q0 11 2.5 25q2.5 14 10.5 26q14 19 32.5 23q18.5 4 32.5 4h30v-64h-9q-7 0 -13.5 -1q-6.5 -1 -11.5 -9q-5 -9 -5 -34v-80h38v-58h-38l0 -454z" />
<glyph unicode="&#103;" horiz-adv-x="255" d="M93 -27v-21q0 -9 1 -17q1 -8 5 -16q5 -9 11 -12q6 -3 15 -3q7 0 14 2q7 2 12 11q6 10 6 36v86q-7 -10 -13.5 -15.5q-6.5 -5.5 -14.5 -10.5q-7 -5 -16 -8.5q-9 -3.5 -23 -3.5q-17 0 -30 9.5q-13 9.5 -21 24.5q-10 18 -12 36q-2 18 -2 33v305q0 10 0 23q0 13 2 26q2 13 8 25.5q6 12.5 17 22.5q11 9 21 12.5q10 3.5 19 3.5q11 0 21.5 -4q10.5 -4 21.5 -14q7 -6 11 -12q4 -6 7 -11l2 0v31h70v-511q0 -47 -3 -72.5q-3 -25.5 -13 -40.5q-14 -23 -37 -30.5q-23 -7.5 -43 -7.5q-20 0 -43.5 5.5q-23.5 5.5 -40.5 28.5q-13 18 -16.5 41q-3.5 23 -3.5 48zM93 124q0 -8 1 -20q1 -12 3 -20q4 -14 12 -17.5q8 -3.5 14 -3.5q8 0 15.5 4q7.5 4 12.5 13q4 8 5 17q1 9 1 19v282q0 20 -2 29.5q-2 9.5 -4 13.5q-4 8 -10 13.5q-6 5.5 -17 5.5q-19 0 -26 -17q-4 -8 -4.5 -18q-0.5 -10 -0.5 -19z" />
<glyph unicode="&#104;" horiz-adv-x="260" d="M162 0v389q0 38 -5 52q-6 16 -24 16q-8 0 -16 -4q-8 -4 -14 -17q-4 -8 -4.5 -15.5q-0.5 -7.5 -0.5 -16.5v-404h-68v700h68v-213q9 12 23 21q14 8 26 11q12 3 21 3q34 0 50 -33q6 -12 9 -31q3 -19 3 -52l0 -406z" />
<glyph unicode="&#105;" horiz-adv-x="128" d="M30 600v100h68v-100zM30 0v512h68l0 -512z" />
<glyph unicode="&#106;" horiz-adv-x="128" d="M30 600v100h68v-100zM-15 -90h24q16 0 18.5 12.5q2.5 12.5 2.5 22.5v567h68v-552q0 -24 -1 -45q-1 -21 -10 -36q-11 -19 -27 -24q-16 -5 -30 -5l-45 0z" />
<glyph unicode="&#107;" horiz-adv-x="235" d="M158 0l-58 219h-2v-219h-68v700h68v-387h3l61 199h70l-77 -251l72 -261z" />
<glyph unicode="&#108;" horiz-adv-x="128" d="M30 0v700h68l0 -700z" />
<glyph unicode="&#109;" horiz-adv-x="390" d="M292 0v385q0 29 -1 38q-1 9 -3 12q-5 12 -13 14.5q-8 2.5 -14 2.5q-7 0 -14.5 -3q-7.5 -3 -12.5 -14q-3 -7 -4 -17q-1 -10 -1 -30v-388h-68v385q0 8 -0.5 24q-0.5 16 -2.5 23q-4 13 -11.5 16.5q-7.5 3.5 -14.5 3.5q-15 0 -25 -15q-2 -2 -5.5 -11q-3.5 -9 -3.5 -27v-399h-68v512h63l9 -27q2 4 7.5 10.5q5.5 6.5 13.5 12.5q10 8 20.5 11q10.5 3 21.5 3q22 0 39 -15q8 -7 13 -14.5q5 -7.5 7 -9.5q6 8 13 15q7 7 17 12q19 12 43 12q16 0 28 -7q12 -7 20 -18q10 -14 12.5 -32q2.5 -18 2.5 -34l0 -431z" />
<glyph unicode="&#110;" horiz-adv-x="260" d="M162 0v391q0 24 -1.5 33.5q-1.5 9.5 -2.5 11.5q-2 5 -7.5 11.5q-5.5 6.5 -18.5 6.5q-11 0 -18 -5.5q-7 -5.5 -10 -12.5q-2 -3 -4 -11q-2 -8 -2 -23v-402h-68v512h63l1 -33q4 7 10 14.5q6 7.5 15 13.5q10 7 22.5 11q12.5 4 25.5 4q22 0 33 -9.5q11 -9.5 16 -16.5q7 -11 10.5 -31q3.5 -20 3.5 -61l0 -404z" />
<glyph unicode="&#111;" horiz-adv-x="254" d="M229 127q0 -23 -1.5 -49q-1.5 -26 -15.5 -48q-10 -14 -30 -27q-20 -13 -55 -13q-35 0 -55 13q-20 13 -30 27q-14 22 -15.5 48q-1.5 26 -1.5 49v272q0 17 1.5 39.5q1.5 22.5 15.5 43.5q7 11 27 25.5q20 14.5 58 14.5q38 0 58 -14.5q20 -14.5 27 -25.5q14 -21 15.5 -43.5q1.5 -22.5 1.5 -39.5zM161 413q0 7 -1 14.5q-1 7.5 -4 14.5q-6 11 -14 13.5q-8 2.5 -15 2.5q-7 0 -15 -2.5q-8 -2.5 -14 -13.5q-3 -7 -4 -14.5q-1 -7.5 -1 -14.5v-314q0 -7 1 -14.5q1 -7.5 4 -14.5q6 -11 14 -13.5q8 -2.5 15 -2.5q7 0 15 2.5q8 2.5 14 13.5q3 7 4 14.5q1 7.5 1 14.5l0 314z" />
<glyph unicode="&#112;" horiz-adv-x="255" d="M162 410q0 9 -0.5 18.5q-0.5 9.5 -4.5 17.5q-6 14 -22 14q-8 0 -16 -3.5q-8 -3.5 -14 -14.5q-5 -9 -6 -19.5q-1 -10.5 -1 -18.5v-290q0 -8 1 -21q1 -13 5 -24q3 -8 10 -18q7 -10 22 -10q18 0 22 16q1 4 2.5 14q1.5 10 1.5 36v303zM30 -150v662h60l8 -23q4 7 9 11.5q5 4.5 11 9.5q9 6 18 9q9 3 21 3q30 0 44.5 -14q14.5 -14 20.5 -29q4 -11 6 -27q2 -16 2 -45v-307q0 -21 -2.5 -46q-2.5 -25 -10.5 -41q-11 -21 -26.5 -27.5q-15.5 -6.5 -29.5 -6.5q-29 0 -46 16q-12 11 -17 25l0 -170z" />
<glyph unicode="&#113;" horiz-adv-x="251" d="M93 105q0 -14 1 -25q1 -11 4 -21q2 -5 6 -11.5q4 -6.5 15 -6.5q8 0 15 5q7 5 12 16q3 6 4 14q1 8 2 15.5q1 7.5 1 13.5q0 7 0 9v278q0 8 -1 21.5q-1 13.5 -5 23.5q-5 14 -13.5 18.5q-8.5 4.5 -14.5 4.5q-15 0 -21 -12q-5 -11 -5 -49zM25 403q0 16 0.5 36q0.5 20 10.5 40q9 20 25 31.5q16 11.5 41 11.5q17 0 28 -5q11 -5 18 -10q7 -5 13 -13.5q6 -8.5 10 -15.5l9 34h41v-662h-68v170q-5 -15 -17 -25q-9 -8 -18.5 -12q-9.5 -4 -23.5 -4q-21 0 -34 9q-13 9 -21 21q-8 13 -11 32.5q-3 19.5 -3 54.5l0 307z" />
<glyph unicode="&#114;" horiz-adv-x="190" d="M30 0v512h68v-37h2q4 20 20 33q17 14 40 14h22v-78h-28q-11 0 -22 -2q-11 -2 -21 -16q-9 -12 -11 -28q-2 -16 -2 -32l0 -366z" />
<glyph unicode="&#115;" horiz-adv-x="234" d="M83 186v-82q0 -8 2 -20q2 -12 5 -17q6 -9 14.5 -11q8.5 -2 13.5 -2q11 0 16.5 3q5.5 3 10.5 13q2 5 4 14.5q2 9.5 2 29.5q0 35 -3 54q-3 19 -14 33l-65 84q-8 11 -16 21.5q-8 10.5 -18 30.5q-9 19 -13 35.5q-4 16.5 -4 39.5q0 28 11 54q5 11 10.5 19q5.5 8 16.5 16q28 21 65 21q24 0 40.5 -8q16.5 -8 27.5 -20q17 -19 22 -45q5 -26 5 -56v-37h-62v58q0 8 -1.5 17q-1.5 9 -7.5 17q-4 4 -10 7q-6 3 -15 3q-17 0 -26 -13q-5 -8 -6.5 -16.5q-1.5 -8.5 -1.5 -17.5q0 -18 3.5 -32.5q3.5 -14.5 20.5 -35.5l71 -90q20 -25 29 -53q9 -28 9 -73q0 -19 -2.5 -42.5q-2.5 -23.5 -12.5 -43.5q-6 -12 -15.5 -22.5q-9.5 -10.5 -20.5 -16.5q-11 -6 -26.5 -9q-15.5 -3 -26.5 -3q-8 0 -21.5 2.5q-13.5 2.5 -22.5 6.5q-8 4 -17.5 12q-9.5 8 -18.5 22q-10 16 -15 36q-5 20 -5 52l0 65z" />
<glyph unicode="&#116;" horiz-adv-x="172" d="M127 0q-11 0 -23.5 1q-12.5 1 -23.5 7q-11 6 -16 14.5q-5 8.5 -7 17.5q-2 9 -3.5 21q-1.5 12 -1.5 21v372h-42v58h42v188h68v-188h42v-58h-42v-361q0 -9 1 -22q1 -13 14 -13h27l0 -58z" />
<glyph unicode="&#117;" horiz-adv-x="260" d="M98 512v-387q0 -10 0.5 -27q0.5 -17 2.5 -25q3 -12 10.5 -16.5q7.5 -4.5 15.5 -4.5q20 0 29 17q6 12 6 32v411h68v-512h-63l-1 28q-8 -10 -14.5 -16q-6.5 -6 -10.5 -9q-10 -7 -19 -10q-9 -3 -22 -3q-33 0 -51 25q-11 16 -15 39.5q-4 23.5 -4 53.5l0 404z" />
<glyph unicode="&#118;" horiz-adv-x="220" d="M69 0l-62 512h68l31 -338l2 -46h3l2 46l32 338h68l-63 -512z" />
<glyph unicode="&#119;" horiz-adv-x="316" d="M184 0l-26 312l-26 -312h-71l-54 512h68l24 -321l2 -45l2 -1l24 367h62l24 -367l2 1l2 45l24 321h68l-54 -512z" />
<glyph unicode="&#120;" horiz-adv-x="212" d="M132 512h68l-60 -236l68 -276h-68l-34 180l-34 -180h-68l68 276l-60 236h68l26 -155z" />
<glyph unicode="&#121;" horiz-adv-x="220" d="M23 -86q8 -2 15 -2.5q7 -0.5 16 -0.5q8 0 18 2q10 2 16 13q5 9 3 23q-2 14 -6 39l-75 524h68l33 -361h3l28 361h68l-61 -574q-2 -16 -6 -34q-4 -18 -15 -32q-13 -16 -29 -21q-16 -5 -30 -5q-26 0 -46 7z" />
<glyph unicode="&#122;" horiz-adv-x="197" d="M12 0v86l110 368h-100v58h160v-90l-110 -364h110l0 -58z" />
<glyph unicode="&#123;" horiz-adv-x="260" d="M30 316q32 3 48 33.5q16 30.5 16 103.5v108q0 23 4 51.5q4 28.5 18.5 54q14.5 25.5 41.5 43.5q27 18 72 20l0 -52q-19 -6 -30 -17.5q-11 -11.5 -17 -25.5q-6 -14 -7.5 -28.5q-1.5 -14.5 -1.5 -25.5v-128q0 -27 -4.5 -54q-4.5 -27 -14.5 -49.5q-10 -22.5 -25 -39q-15 -16.5 -37 -23.5l0 -4q22 -7 37 -23.5q15 -16.5 25 -39q10 -22.5 14.5 -49.5q4.5 -27 4.5 -54v-128q0 -11 1.5 -25.5q1.5 -14.5 7.5 -28.5q6 -14 17 -25.5q11 -11.5 30 -17.5l0 -52q-45 2 -72 20q-27 18 -41.5 43.5q-14.5 25.5 -18.5 54q-4 28.5 -4 51.5v108q0 73 -16 103.5q-16 30.5 -48 33.5z" />
<glyph unicode="&#124;" horiz-adv-x="130" d="M35 700h60v-700l-60 0z" />
<glyph unicode="&#125;" horiz-adv-x="260" d="M230 254q-32 -3 -48 -33.5q-16 -30.5 -16 -103.5v-108q0 -23 -4 -51.5q-4 -28.5 -18.5 -54q-14.5 -25.5 -41.5 -43.5q-27 -18 -72 -20l0 52q19 6 30 17.5q11 11.5 17 25.5q6 14 7.5 28.5q1.5 14.5 1.5 25.5v128q0 27 4.5 54q4.5 27 14 49.5q9.5 22.5 25 39q15.5 16.5 37.5 23.5l0 4q-22 7 -37.5 23.5q-15.5 16.5 -25 39q-9.5 22.5 -14 49.5q-4.5 27 -4.5 54v128q0 11 -1.5 25.5q-1.5 14.5 -7.5 28.5q-6 14 -17 25.5q-11 11.5 -30 17.5l0 52q45 -2 72 -20q27 -18 41.5 -43.5q14.5 -25.5 18.5 -54q4 -28.5 4 -51.5v-108q0 -73 16 -103.5q16 -30.5 48 -33.5z" />
<glyph unicode="&#126;" horiz-adv-x="338" d="M10 418q9 14 22.5 28.5q13.5 14.5 29.5 24.5q23 14 49 14q14 0 23.5 -6q9.5 -6 17.5 -12l61 -45q20 -15 40 -10q11 3 23 15q12 12 18 20l16 22l18 -57q-16 -26 -42 -47q-8 -7 -18.5 -13.5q-10.5 -6.5 -21.5 -6.5q-7 0 -15 0.5q-8 0.5 -18 5.5q-10 5 -16.5 9.5q-6.5 4.5 -13.5 9.5l-53 37q-3 2 -11 6q-8 4 -20 5q-9 1 -20 -2.5q-11 -3.5 -22 -13.5q-10 -8 -20.5 -23q-10.5 -15 -17.5 -28z" />
<glyph unicode="&#160;" horiz-adv-x="233" />
<glyph unicode="&#161;" horiz-adv-x="138" d="M88 288l20 -401v-87h-78v87l20 401zM108 500v-120h-78l0 120z" />
<glyph unicode="&#162;" horiz-adv-x="245" d="M225 118q0 -32 -2.5 -47.5q-2.5 -15.5 -5.5 -24.5q-4 -11 -16.5 -28.5q-12.5 -17.5 -41.5 -23.5l0 -87h-60v86q-26 5 -40.5 20.5q-14.5 15.5 -21.5 30.5q-2 5 -7 23q-5 18 -5 56v261q0 24 1.5 48q1.5 24 11.5 41q8 16 24.5 29.5q16.5 13.5 32.5 14.5l0 80h60v-80q18 -1 33.5 -14.5q15.5 -13.5 23.5 -30.5q7 -15 9 -37q2 -22 2 -61v-59h-68v96q0 15 -1.5 22.5q-1.5 7.5 -3.5 10.5q-3 5 -9 9.5q-6 4.5 -17 4.5q-12 0 -18 -5q-6 -5 -8 -9q-2 -2 -3.5 -9q-1.5 -7 -1.5 -24v-305q0 -6 1 -17.5q1 -11.5 5 -19.5q8 -15 27 -15q11 0 17 4.5q6 4.5 9 10.5q1 2 3 10q2 8 2 28v89l68 0z" />
<glyph unicode="&#163;" horiz-adv-x="314" d="M30 0v74h39q14 33 19.5 63.5q5.5 30.5 6.5 67.5q1 56 -4 86.5q-5 30.5 -10 49.5l-66 0v70h55q-2 13 -4.5 32.5q-2.5 19.5 -5 41q-2.5 21.5 -4 42.5q-1.5 21 -1.5 36q0 8 1 23q1 15 4.5 32.5q3.5 17.5 10.5 35q7 17.5 20 31.5q14 15 37 26q23 11 48 11q26 0 51.5 -10.5q25.5 -10.5 41.5 -28.5q20 -23 25 -50.5q5 -27.5 5 -55.5v-26h-78v38q0 12 -1.5 23.5q-1.5 11.5 -7.5 19.5q-8 11 -17.5 13.5q-9.5 2.5 -17.5 2.5q-10 0 -18 -4q-8 -4 -15 -15q-5 -8 -8 -22q-3 -14 -3 -41q0 -32 4.5 -76q4.5 -44 10.5 -79l110 0v-70h-99q9 -35 11 -63q2 -28 2 -63q0 -19 -1 -35.5q-1 -16.5 -3.5 -33.5q-2.5 -17 -7.5 -34.5q-5 -17.5 -13 -37.5l157 0l0 -74z" />
<glyph unicode="&#164;" horiz-adv-x="326" d="M258 140l-44 44q-25 -13 -50 -13q-27 0 -51 14l-45 -45l-43 43l45 45q-13 26 -13 52q0 22 13 48l-45 45l43 43l44 -44q25 14 53 14q13 0 25 -3.5q12 -3.5 25 -9.5l43 43l43 -43l-43 -43q12 -22 14 -48q1 -27 -14 -56l43 -43zM111 279q0 -23 15.5 -38.5q15.5 -15.5 37.5 -15.5q23 0 38.5 15.5q15.5 15.5 15.5 38.5q0 22 -15.5 37.5q-15.5 15.5 -38.5 15.5q-22 0 -37.5 -15.5t-15.5 -37.5z" />
<glyph unicode="&#165;" horiz-adv-x="298" d="M112 0v112h-77v62h77v44h-77v62h77v13l-107 407h80l60 -273l2 -25h4l2 25l60 273h80l-107 -407v-13h77v-62h-77v-44h76v-62h-76l0 -112z" />
<glyph unicode="&#166;" horiz-adv-x="130" d="M35 0v270h60v-270zM95 700v-270h-60l0 270z" />
<glyph unicode="&#167;" horiz-adv-x="274" d="M146 234q4 6 13 21q9 15 12 23q4 9 6 20.5q2 11.5 2 21.5q0 12 -2.5 25.5q-2.5 13.5 -7.5 21.5l-28 42q-9 -6 -18.5 -14.5q-9.5 -8.5 -15.5 -17.5q-12 -18 -12 -48q0 -10 4 -22q4 -12 12 -24zM202 157q17 -28 24 -54.5q7 -26.5 7 -58.5q0 -11 -3 -32q-3 -21 -13 -39q-5 -10 -14.5 -20.5q-9.5 -10.5 -20.5 -16.5q-11 -6 -26 -9q-15 -3 -26 -3q-23 0 -44 10q-13 6 -21 13.5q-8 7.5 -15 18.5q-9 14 -14.5 34q-5.5 20 -5.5 55v50h70v-61q0 -20 2 -28q2 -8 4 -12q5 -8 11 -9q6 -1 12 -1q10 0 16.5 1.5q6.5 1.5 11.5 11.5q5 8 5.5 17q0.5 9 0.5 17q0 22 -2 38.5q-2 16.5 -17 36.5l-78 103q-9 12 -16 23.5q-7 11.5 -13 28.5q-6 17 -9 30q-3 13 -3 29q0 16 2 30.5q2 14.5 8 28.5q7 21 22 37q8 9 19.5 17q11.5 8 21.5 13l-17 24q-12 17 -18.5 29.5q-6.5 12.5 -9.5 18.5q-7 16 -10 30.5q-3 14.5 -3 32.5q0 13 1 25.5q1 12.5 6 26.5q4 11 10 21.5q6 10.5 14 18.5q13 14 32 20.5q19 6.5 38 6.5q24 0 41 -8.5q17 -8.5 27 -19.5q10 -12 16 -26q6 -14 8 -28q2 -14 2.5 -26q0.5 -12 0.5 -21v-37h-70v54q0 14 -1.5 21q-1.5 7 -4.5 12q-5 7 -10 8q-5 1 -11 1q-5 0 -10 -1q-5 -1 -10 -7q-6 -7 -7.5 -15.5q-1.5 -8.5 -1.5 -16.5q0 -20 4.5 -35.5q4.5 -15.5 18.5 -33.5l80 -107q2 -3 8 -12.5q6 -9.5 12 -23.5q6 -14 11 -33q5 -19 5 -41q0 -23 -5 -41.5q-5 -18.5 -16 -39.5q-7 -13 -16.5 -26.5q-9.5 -13.5 -23.5 -27.5z" />
<glyph unicode="&#168;" horiz-adv-x="215" d="M14 614v86h68v-86zM132 614v86h68l0 -86z" />
<glyph unicode="&#169;" horiz-adv-x="432" d="M301 210q0 -21 -4.5 -41.5q-4.5 -20.5 -15.5 -34.5q-11 -14 -28.5 -23q-17.5 -9 -35.5 -9q-18 0 -35 9q-17 9 -28 24q-14 20 -18 42.5q-4 22.5 -4 46.5v264q0 17 4 38.5q4 21.5 18 40.5q14 17 30.5 24q16.5 7 32.5 7q17 0 33 -8.5q16 -8.5 26 -20.5q9 -11 13.5 -24.5q4.5 -13.5 7 -26.5q2.5 -13 3 -23q0.5 -10 0.5 -14v-53h-56v72q0 8 -1 16q-1 8 -6 15q-7 11 -21 11q-5 0 -10 -1.5q-5 -1.5 -10 -7.5q-3 -5 -5.5 -13q-2.5 -8 -2.5 -23v-294q0 -8 0.5 -16.5q0.5 -8.5 6.5 -16.5q9 -12 23 -12q10 0 15 4q5 4 7 8q5 10 5 30v91h56zM86 150q0 -17 2 -33.5q2 -16.5 10 -32.5q9 -18 20.5 -24q11.5 -6 28.5 -6h138q16 0 28.5 6q12.5 6 20.5 24q6 13 9 33.5q3 20.5 3 32.5v400q0 13 -3 33q-3 20 -9 32q-11 21 -26.5 26q-15.5 5 -25.5 5h-133q-14 0 -27 -6q-13 -6 -24 -25q-12 -21 -12 -65zM143 0q-38 0 -59.5 19q-21.5 19 -32.5 40q-13 26 -16 54.5q-3 28.5 -3 57.5v358q0 29 3 57.5q3 28.5 16 54.5q11 21 32.5 40q21.5 19 59.5 19h146q38 0 60 -19q22 -19 33 -40q15 -29 16.5 -59q1.5 -30 1.5 -53v-358q0 -42 -4.5 -68.5q-4.5 -26.5 -13.5 -43.5q-11 -21 -33.5 -40q-22.5 -19 -59.5 -19z" />
<glyph unicode="&#170;" horiz-adv-x="163" d="M95 571q-1 -1 -8 -9.5q-7 -8.5 -12 -19.5q-5 -11 -6 -23q-1 -12 -1 -17v-12q0 -7 2.5 -13.5q2.5 -6.5 10.5 -6.5q7 0 11 7q2 3 2.5 8.5q0.5 5.5 0.5 10.5zM99 440l-1 17q-2 -4 -5 -8q-3 -4 -6 -7q-9 -8 -23 -8q-10 0 -15 4q-5 4 -10 12q-6 12 -7.5 25q-1.5 13 -1.5 25q0 20 4.5 35.5q4.5 15.5 16.5 31.5q6 8 17.5 19.5q11.5 11.5 26.5 21.5l0 33q0 5 -0.5 9q-0.5 4 -2.5 8q-4 5 -10 5q-6 0 -10 -6q-3 -6 -3 -16v-29h-37v29q0 8 1.5 18.5q1.5 10.5 7.5 20.5q5 6 14.5 13q9.5 7 27.5 7q9 0 21 -3q12 -3 20 -17q6 -10 7.5 -22q1.5 -12 1.5 -24l0 -194z" />
<glyph unicode="&#171;" horiz-adv-x="327" d="M260 0l-104 256l104 256h57l-87 -256l87 -256zM114 0l-104 256l104 256h57l-87 -256l87 -256z" />
<glyph unicode="&#172;" horiz-adv-x="330" d="M330 196h-60v135h-270v60l330 0z" />
<glyph unicode="&#173;" horiz-adv-x="174" d="M10 298h154v-62l-154 0z" />
<glyph unicode="&#174;" horiz-adv-x="432" d="M86 150q0 -17 2 -33.5q2 -16.5 10 -32.5q9 -18 20.5 -24q11.5 -6 28.5 -6h138q17 0 28.5 6q11.5 6 20.5 24q8 16 10 32.5q2 16.5 2 33.5v400q0 44 -12 65q-11 19 -24.5 25q-13.5 6 -27.5 6h-133q-14 0 -27 -6q-13 -6 -24 -25q-12 -21 -12 -65zM143 0q-38 0 -59.5 19q-21.5 19 -32.5 40q-13 26 -16 54.5q-3 28.5 -3 57.5v358q0 29 3 57.5q3 28.5 16 54.5q11 21 32.5 40q21.5 19 59.5 19h146q38 0 60 -19q22 -19 33 -40q15 -29 16.5 -59q1.5 -30 1.5 -53v-358q0 -42 -4.5 -68.5q-4.5 -26.5 -13.5 -43.5q-11 -21 -33.5 -40q-22.5 -19 -59.5 -19zM215 384q6 0 10.5 1q4.5 1 9.5 6q8 8 9.5 15.5q1.5 7.5 1.5 15.5v73q0 5 -0.5 14q-0.5 9 -4.5 15q-5 8 -10 9.5q-5 1.5 -10 1.5h-30v-151zM251 109q-4 8 -6.5 20.5q-2.5 12.5 -2.5 36.5v123q0 5 -1.5 14q-1.5 9 -7.5 17q-5 5 -10 6.5q-5 1.5 -10 1.5h-22v-219h-56v482h103q33 0 50 -31q9 -16 11.5 -31.5q2.5 -15.5 2.5 -29.5v-62q0 -16 -2.5 -28.5q-2.5 -12.5 -13.5 -29.5q-5 -8 -11 -12.5q-6 -4.5 -15 -6.5l0 -4q18 -11 21 -14q7 -7 10.5 -15.5q3.5 -8.5 5 -17.5q1.5 -9 1.5 -17q0 -7 0 -11v-104q0 -30 1.5 -42.5q1.5 -12.5 14.5 -20.5l0 -5z" />
<glyph unicode="&#175;" horiz-adv-x="215" d="M21 680h172v-68l-172 0z" />
<glyph unicode="&#176;" horiz-adv-x="260" d="M74 600q0 -23 16.5 -39.5q16.5 -16.5 39.5 -16.5q23 0 39.5 16.5q16.5 16.5 16.5 39.5q0 23 -16.5 39.5q-16.5 16.5 -39.5 16.5q-23 0 -39.5 -16.5q-16.5 -16.5 -16.5 -39.5zt0 0zM30 600q0 21 7.5 39q7.5 18 21 31.5q13.5 13.5 32 21.5q18.5 8 39.5 8q21 0 39 -8q18 -8 31.5 -21.5q13.5 -13.5 21.5 -31.5q8 -18 8 -39q0 -21 -8 -39.5q-8 -18.5 -21.5 -32q-13.5 -13.5 -31.5 -21q-18 -7.5 -39 -7.5q-21 0 -39.5 7.5q-18.5 7.5 -32 21q-13.5 13.5 -21 32t-7.5 39.5z" />
<glyph unicode="&#177;" horiz-adv-x="410" d="M40 223h330v-60h-330zM175 293v135h-135v60h135v135h60v-135h135v-60h-135l0 -135z" />
<glyph unicode="&#178;" horiz-adv-x="183" d="M20 351q-2 36 4.5 59.5q6.5 23.5 13.5 37.5q5 9 14 23.5q9 14.5 16 23.5q6 8 11 14q5 6 13 20q8 14 12.5 25q4.5 11 4.5 30v31q0 6 -0.5 13q-0.5 7 -2.5 12q-4 12 -16 12q-11 0 -15 -11q-2 -5 -2.5 -14.5q-0.5 -9.5 -0.5 -14.5v-46h-48v41q0 23 2.5 35.5q2.5 12.5 4.5 18.5q5 13 19 26.5q14 13.5 40 13.5q28 0 39.5 -11.5q11.5 -11.5 16.5 -21.5q6 -12 8.5 -27q2.5 -15 2.5 -47q0 -27 -2 -40q-2 -13 -3 -16q-4 -16 -11 -27.5q-7 -11.5 -15 -22.5q-8 -11 -17.5 -23q-9.5 -12 -17.5 -23q-8 -10 -12.5 -19.5q-4.5 -9.5 -7.5 -24.5l87 0l0 -47z" />
<glyph unicode="&#179;" horiz-adv-x="189" d="M69 465v-29q0 -7 0.5 -16q0.5 -9 2.5 -14q2 -8 6.5 -10q4.5 -2 10.5 -2q14 0 18 11q2 5 2.5 13.5q0.5 8.5 0.5 13.5v33q0 20 -1.5 27.5q-1.5 7.5 -3.5 9.5q-3 5 -10.5 9q-7.5 4 -19.5 4h-16v49h27q11 0 16 8q5 8 5 20v38q0 3 -0.5 9q-0.5 6 -2.5 9q-3 6 -6.5 7q-3.5 1 -8.5 1q-9 0 -14 -7q-1 -2 -2.5 -6.5q-1.5 -4.5 -1.5 -15.5v-24h-50v26q0 17 3.5 28q3.5 11 7.5 18q11 19 28.5 24.5q17.5 5.5 28.5 5.5q12 0 29 -4.5q17 -4.5 28 -22.5q7 -11 9 -22.5q2 -11.5 2 -22.5v-28q0 -25 -4 -36.5q-4 -11.5 -8 -16.5q-3 -4 -8.5 -8q-5.5 -4 -13.5 -6q14 -5 22 -15.5q8 -10.5 10 -19.5q2 -8 3 -21.5q1 -13.5 1 -23.5v-28q0 -12 -2 -26.5q-2 -14.5 -7 -25.5q-7 -15 -21.5 -24q-14.5 -9 -39.5 -9q-26 0 -38 9.5q-12 9.5 -19 21.5q-5 8 -8.5 22q-3.5 14 -3.5 37l0 30z" />
<glyph unicode="&#180;" horiz-adv-x="215" d="M36 572l103 152l58 -56l-142 -114z" />
<glyph unicode="&#181;" horiz-adv-x="256" d="M30 -150v662h68v-381q0 -27 1.5 -38q1.5 -11 3.5 -16q2 -7 7 -12.5q5 -5.5 15 -5.5q5 0 13.5 4.5q8.5 4.5 13.5 21.5q3 11 4.5 25q1.5 14 1.5 25v377h68v-512h-54l-8 32q-5 -17 -17 -27.5q-12 -10.5 -24 -10.5q-12 0 -17.5 6q-5.5 6 -7.5 11l0 -161z" />
<glyph unicode="&#182;" horiz-adv-x="370" d="M123 640q-13 2 -19.5 -3q-6.5 -5 -9.5 -12.5q-3 -7.5 -3.5 -15.5q-0.5 -8 -0.5 -11v-221q0 -5 0.5 -13.5q0.5 -8.5 4 -16.5q3.5 -8 10 -12.5q6.5 -4.5 18.5 -2.5zM247 -150v790h-56v-790h-68v422h-23q-19 0 -31.5 8.5q-12.5 8.5 -20.5 17.5q-17 20 -20 44q-3 24 -3 50v179q0 6 0.5 15.5q0.5 9.5 1 20q0.5 10.5 2 21q1.5 10.5 3.5 16.5q2 7 7 16.5q5 9.5 15 18.5q10 9 25 15q15 6 37 6h249v-60h-50l0 -790z" />
<glyph unicode="&#183;" horiz-adv-x="138" d="M30 401h78v-120l-78 0z" />
<glyph unicode="&#184;" horiz-adv-x="215" d="M46 -148q4 -2 11.5 -4q7.5 -2 12.5 -3q4 -1 7 -1.5q3 -0.5 8 -0.5q8 0 15.5 1.5q7.5 1.5 11.5 9.5q1 2 3 7.5q2 5.5 2 19.5q0 19 -7 30q-7 13 -23 13h-26v76h43v-40q29 -3 45 -20q10 -11 15 -26.5q5 -15.5 5 -29.5q0 -17 -4.5 -32.5q-4.5 -15.5 -12.5 -26.5q-19 -25 -51 -25q-9 0 -17 1q-8 1 -16 2q-5 1 -10 2q-5 1 -12 3z" />
<glyph unicode="&#185;" horiz-adv-x="131" d="M47 351v271q-14 -8 -21.5 -10.5q-7.5 -2.5 -15.5 -3.5l0 43q7 2 14 5.5q7 3.5 12 8.5q15 13 18 36l42 0l0 -350z" />
<glyph unicode="&#186;" horiz-adv-x="164" d="M134 503q0 -12 -1.5 -24q-1.5 -12 -10.5 -25q-8 -12 -18 -16q-10 -4 -22 -4q-11 0 -21.5 4.5q-10.5 4.5 -18.5 15.5q-9 12 -10.5 24.5q-1.5 12.5 -1.5 24.5v129q0 11 1.5 23.5q1.5 12.5 10.5 24.5q8 11 18.5 15.5q10.5 4.5 21.5 4.5q12 0 22 -4q10 -4 18 -16q9 -13 10.5 -25q1.5 -12 1.5 -23zM69 494q0 -3 0.5 -8q0.5 -5 2.5 -7q4 -6 10 -6q3 0 6 1q3 1 5 5q1 2 1.5 7.5q0.5 5.5 0.5 8.5v146q0 4 -0.5 8q-0.5 4 -2.5 7q-4 5 -10 5q-6 0 -10 -5q-2 -3 -2.5 -7q-0.5 -4 -0.5 -8z" />
<glyph unicode="&#187;" horiz-adv-x="327" d="M97 256l-87 256h57l104 -256l-104 -256h-57zM243 256l-87 256h57l104 -256l-104 -256l-57 0z" />
<glyph unicode="&#188;" horiz-adv-x="347" d="M10 0l241 700h62l-242 -700zM251 230l-37 -119h37zM251 0v64h-81v47l81 239h49v-239h22v-47h-22v-64zM47 350v271q-12 -8 -21 -10.5q-9 -2.5 -15 -3.5l0 43q13 4 25 14q10 8 14 17q4 9 5 19l42 0l0 -350z" />
<glyph unicode="&#189;" horiz-adv-x="363" d="M10 0l241 700h62l-242 -700zM200 0q-2 36 4.5 59.5q6.5 23.5 13.5 37.5q5 9 14 23.5q9 14.5 16 23.5q6 8 11 14q5 6 13 20q8 14 12.5 25q4.5 11 4.5 30v31q0 6 -0.5 13q-0.5 7 -2.5 12q-4 12 -16 12q-11 0 -15 -11q-2 -5 -2.5 -14.5q-0.5 -9.5 -0.5 -14.5v-46h-48v41q0 23 2.5 35.5q2.5 12.5 4.5 18.5q5 13 19 26.5q14 13.5 40 13.5q28 0 39.5 -11.5q11.5 -11.5 16.5 -21.5q6 -12 8.5 -27q2.5 -15 2.5 -47q0 -27 -2 -40q-2 -13 -3 -16q-4 -16 -11 -27.5q-7 -11.5 -15 -22.5q-8 -11 -17.5 -23q-9.5 -12 -17.5 -23q-8 -10 -12.5 -19.5q-4.5 -9.5 -7.5 -24.5l87 0v-47zM48 351v271q-14 -8 -21.5 -10.5q-7.5 -2.5 -15.5 -3.5l0 43q7 2 14 5.5q7 3.5 12 8.5q15 13 18 36l42 0l0 -350z" />
<glyph unicode="&#190;" horiz-adv-x="403" d="M60 0l241 700h63l-243 -700zM307 230l-37 -119h37zM307 0v64h-83v47l83 239h49v-239h22v-47h-22v-64zM74 465v-29q0 -7 0.5 -16q0.5 -9 2.5 -14q2 -8 6.5 -10q4.5 -2 10.5 -2q14 0 18 11q2 5 2.5 13.5q0.5 8.5 0.5 13.5v33q0 20 -1.5 27.5q-1.5 7.5 -3.5 9.5q-3 5 -10.5 9q-7.5 4 -19.5 4h-16v49h27q11 0 16 8q5 8 5 20v38q0 3 -0.5 9q-0.5 6 -2.5 9q-3 6 -6.5 7q-3.5 1 -8.5 1q-9 0 -14 -7q-1 -2 -2.5 -6.5q-1.5 -4.5 -1.5 -15.5v-24h-50v26q0 17 3.5 28q3.5 11 7.5 18q11 19 28.5 24.5q17.5 5.5 28.5 5.5q12 0 29 -4.5q17 -4.5 28 -22.5q7 -11 9 -22.5q2 -11.5 2 -22.5v-28q0 -25 -4 -36.5q-4 -11.5 -8 -16.5q-3 -4 -8.5 -8q-5.5 -4 -13.5 -6q14 -5 22 -15.5q8 -10.5 10 -19.5q2 -8 3 -21.5q1 -13.5 1 -23.5v-28q0 -12 -2 -26.5q-2 -14.5 -7 -25.5q-7 -15 -21.5 -24q-14.5 -9 -39.5 -9q-26 0 -38 9.5q-12 9.5 -19 21.5q-5 8 -8.5 22q-3.5 14 -3.5 37l0 30z" />
<glyph unicode="&#191;" horiz-adv-x="244" d="M139 212q0 -20 8 -36.5q8 -16.5 19 -33.5q3 -4 8 -12.5q5 -8.5 11 -20q6 -11.5 12 -23.5q6 -12 11 -24q11 -26 16 -53q5 -27 5 -51v-35q0 -43 -8 -64q-8 -21 -12 -26q-11 -17 -33 -30q-22 -13 -52 -13q-28 0 -49.5 10.5q-21.5 10.5 -34.5 26.5q-17 20 -21 45.5q-4 25.5 -4 47.5v93h67q-3 -20 -4 -36.5q-1 -16.5 -1 -34.5q0 -20 1 -33.5q1 -13.5 5 -24.5q9 -24 35 -24q25 0 34 25q2 8 3.5 19q1.5 11 1.5 19v13q0 26 -3 53q-3 27 -17 59l-30 72q-10 24 -18 43q-8 19 -8 48v89h58zM149 380h-78v120l78 0z" />
<glyph unicode="&#192;" horiz-adv-x="290" d="M182 203l-36 346l-2 1l-36 -347zM203 0l-14 129h-88l-14 -129h-80l88 700h100l88 -700zM225 734l-173 59l35 74l149 -109z" />
<glyph unicode="&#193;" horiz-adv-x="290" d="M182 203l-36 346l-2 1l-36 -347zM203 0l-14 129h-88l-14 -129h-80l88 700h100l88 -700zM52 758l149 109l35 -74l-173 -59z" />
<glyph unicode="&#194;" horiz-adv-x="290" d="M182 203l-36 346l-2 1l-36 -347zM203 0l-14 129h-88l-14 -129h-80l88 700h100l88 -700zM50 772l95 89l94 -89v-36l-94 58l-95 -58z" />
<glyph unicode="&#195;" horiz-adv-x="290" d="M182 203l-36 346l-2 1l-36 -347zM203 0l-14 129h-88l-14 -129h-80l88 700h100l88 -700zM42 792q5 8 14.5 18.5q9.5 10.5 17.5 15.5q14 9 30 9q9 0 16 -3.5q7 -3.5 13 -8.5l39 -28q5 -4 10.5 -6.5q5.5 -2.5 10.5 -2.5q5 0 11 3q7 4 13 11.5q6 7.5 10 12.5l8 12l11 -52q-3 -4 -10 -12.5q-7 -8.5 -18 -16.5q-5 -3 -10.5 -6.5q-5.5 -3.5 -13.5 -3.5q-5 0 -11 1q-6 1 -11 3q-5 2 -10 5.5q-5 3.5 -9 5.5l-35 25q-10 7 -20 7q-8 0 -15 -3.5q-7 -3.5 -11 -6.5q-6 -5 -13 -14.5q-7 -9.5 -12 -18.5z" />
<glyph unicode="&#196;" horiz-adv-x="290" d="M182 203l-36 346l-2 1l-36 -347zM203 0l-14 129h-88l-14 -129h-80l88 700h100l88 -700zM166 860h71v-82h-71zM52 860h71v-82l-71 0z" />
<glyph unicode="&#197;" horiz-adv-x="290" d="M182 203l-36 346l-2 1l-36 -347zM203 0l-14 129h-88l-14 -129h-80l88 700h100l88 -700zM73 807q0 29 21.5 50.5q21.5 21.5 50.5 21.5q29 0 50.5 -21.5q21.5 -21.5 21.5 -50.5q0 -29 -21.5 -50.5q-21.5 -21.5 -50.5 -21.5q-29 0 -50.5 21.5q-21.5 21.5 -21.5 50.5zt0 0zM109 807q0 -15 10.5 -25.5q10.5 -10.5 25.5 -10.5q15 0 25.5 10.5q10.5 10.5 10.5 25.5q0 15 -10.5 25.5q-10.5 10.5 -25.5 10.5q-15 0 -25.5 -10.5t-10.5 -25.5z" />
<glyph unicode="&#198;" horiz-adv-x="414" d="M198 220v369l-66 -369zM404 700v-74h-128v-219h82v-74h-82v-259h128v-74h-206v146h-82l-29 -146h-80l142 700z" />
<glyph unicode="&#199;" horiz-adv-x="295" d="M151 64q15 0 23 6.5q8 6.5 10 11.5q5 9 6.5 24.5q1.5 15.5 1.5 42.5v115h78v-118q0 -45 -7 -70.5q-7 -25.5 -16 -39.5q-10 -15 -28.5 -28.5q-18.5 -13.5 -47.5 -16.5l0 -31q29 -3 45 -20q8 -10 14 -24.5q6 -14.5 6 -31.5q0 -20 -5 -34.5q-5 -14.5 -12 -23.5q-11 -14 -23 -20q-12 -6 -28 -6q-10 0 -18 1q-8 1 -15 2q-5 1 -10 2q-5 1 -12 3l0 44q4 -2 11.5 -4q7.5 -2 12.5 -3q3 -1 10.5 -2q7.5 -1 11.5 -1q8 0 12.5 4q4.5 4 6.5 8q4 7 5 14q1 7 1 13q0 8 -1 15q-1 7 -6 15q-7 13 -23 13h-26v69q-28 5 -45 18.5q-17 13.5 -25 25.5q-10 15 -15.5 32q-5.5 17 -7.5 34.5q-2 17.5 -2.5 34q-0.5 16.5 -0.5 29.5v384q0 31 3.5 60q3.5 29 22.5 55q11 14 34 29q23 15 64 15q26 0 48.5 -9q22.5 -9 39.5 -32q11 -15 16.5 -32q5.5 -17 7.5 -34.5q2 -17.5 2 -33.5q0 -16 0 -28v-77h-74v105q0 12 -1.5 27q-1.5 15 -9.5 26q-5 5 -12.5 9.5q-7.5 4.5 -19.5 4.5q-12 0 -19.5 -4.5q-7.5 -4.5 -12.5 -9.5q-8 -11 -9.5 -26q-1.5 -15 -1.5 -27v-420q0 -27 1.5 -42.5q1.5 -15.5 6.5 -24.5q2 -5 10 -11.5t23 -6.5z" />
<glyph unicode="&#200;" horiz-adv-x="251" d="M35 700h206v-74h-128v-219h82v-74h-82v-259h128v-74h-206zM215 734l-173 59l35 74l149 -109z" />
<glyph unicode="&#201;" horiz-adv-x="251" d="M35 700h206v-74h-128v-219h82v-74h-82v-259h128v-74h-206zM43 758l149 109l35 -74l-173 -59z" />
<glyph unicode="&#202;" horiz-adv-x="251" d="M35 700h206v-74h-128v-219h82v-74h-82v-259h128v-74h-206zM40 772l95 89l94 -89v-36l-94 58l-95 -58z" />
<glyph unicode="&#203;" horiz-adv-x="251" d="M35 700h206v-74h-128v-219h82v-74h-82v-259h128v-74h-206zM156 860h71v-82h-71zM42 860h71v-82l-71 0z" />
<glyph unicode="&#204;" horiz-adv-x="148" d="M35 700h78v-700h-78zM155 734l-173 59l35 74l149 -109z" />
<glyph unicode="&#205;" horiz-adv-x="148" d="M35 700h78v-700h-78zM-18 758l149 109l35 -74l-173 -59z" />
<glyph unicode="&#206;" horiz-adv-x="148" d="M35 700h78v-700h-78zM-20 772l95 89l94 -89v-36l-94 58l-95 -58z" />
<glyph unicode="&#207;" horiz-adv-x="148" d="M35 700h78v-700h-78zM96 860h71v-82h-71zM-18 860h71v-82l-71 0z" />
<glyph unicode="&#208;" horiz-adv-x="340" d="M177 74q4 0 10 0.5q6 0.5 13 3q7 2.5 13.5 7.5q6.5 5 10.5 14q2 5 4 15.5q2 10.5 2 41.5v392q0 15 -1.5 32q-1.5 17 -6.5 26q-8 15 -22 17.5q-14 2.5 -22 2.5h-34v-222h56v-74h-56v-256zM66 330h-61v74h61v296h124q38 0 61.5 -14.5q23.5 -14.5 34.5 -29.5q6 -8 14 -32.5q8 -24.5 8 -81.5v-402q0 -22 -5 -50.5q-5 -28.5 -25 -51.5q-20 -24 -44.5 -31q-24.5 -7 -44.5 -7l-123 0z" />
<glyph unicode="&#209;" horiz-adv-x="350" d="M112 536l-3 -1l4 -64v-471h-78v700h111l93 -520h3l-5 59v461h78v-700h-104zM72 792q5 8 14.5 18.5q9.5 10.5 17.5 15.5q14 9 30 9q9 0 16 -3.5q7 -3.5 13 -8.5l39 -28q5 -4 10.5 -6.5q5.5 -2.5 10.5 -2.5q5 0 11 3q7 4 13 11.5q6 7.5 10 12.5l8 12l11 -52q-3 -4 -10 -12.5q-7 -8.5 -18 -16.5q-5 -3 -10.5 -6.5q-5.5 -3.5 -13.5 -3.5q-5 0 -11 1q-6 1 -11 3q-5 2 -10 5.5q-5 3.5 -9 5.5l-35 25q-10 7 -20 7q-8 0 -15 -3.5q-7 -3.5 -11 -6.5q-6 -5 -13 -14.5q-7 -9.5 -12 -18.5z" />
<glyph unicode="&#210;" horiz-adv-x="302" d="M110 137q0 -26 1.5 -37.5q1.5 -11.5 4.5 -16.5q4 -8 12.5 -13.5q8.5 -5.5 22.5 -5.5q14 0 22.5 5.5q8.5 5.5 12.5 13.5q3 5 4.5 16.5q1.5 11.5 1.5 37.5v426q0 26 -1.5 37.5q-1.5 11.5 -4.5 16.5q-4 8 -12.5 13.5q-8.5 5.5 -22.5 5.5q-14 0 -22.5 -5.5q-8.5 -5.5 -12.5 -13.5q-3 -5 -4.5 -16.5q-1.5 -11.5 -1.5 -37.5zM151 -10q-41 0 -63 15q-22 15 -30 26q-11 14 -16.5 30q-5.5 16 -7.5 32q-2 16 -2 31q0 16 0 30v392q0 13 0 29q0 16 2 32q2 16 7.5 32q5.5 16 16.5 30q4 5 11.5 12q7.5 7 18.5 13.5q11 6.5 26.5 11q15.5 4.5 36.5 4.5q21 0 36.5 -4.5q15.5 -4.5 26.5 -11q11 -6.5 18.5 -13.5q7.5 -7 11.5 -12q11 -14 16.5 -30q5.5 -16 7.5 -32q2 -16 2 -32q0 -16 0 -29v-392q0 -14 0 -30q0 -15 -2 -31q-2 -16 -7.5 -32q-5.5 -16 -16.5 -30q-8 -11 -30 -26q-22 -15 -63 -15zt0 0zM231 734l-173 59l35 74l149 -109z" />
<glyph unicode="&#211;" horiz-adv-x="302" d="M110 137q0 -26 1.5 -37.5q1.5 -11.5 4.5 -16.5q4 -8 12.5 -13.5q8.5 -5.5 22.5 -5.5q14 0 22.5 5.5q8.5 5.5 12.5 13.5q3 5 4.5 16.5q1.5 11.5 1.5 37.5v426q0 26 -1.5 37.5q-1.5 11.5 -4.5 16.5q-4 8 -12.5 13.5q-8.5 5.5 -22.5 5.5q-14 0 -22.5 -5.5q-8.5 -5.5 -12.5 -13.5q-3 -5 -4.5 -16.5q-1.5 -11.5 -1.5 -37.5zM151 -10q-41 0 -63 15q-22 15 -30 26q-11 14 -16.5 30q-5.5 16 -7.5 32q-2 16 -2 31q0 16 0 30v392q0 13 0 29q0 16 2 32q2 16 7.5 32q5.5 16 16.5 30q4 5 11.5 12q7.5 7 18.5 13.5q11 6.5 26.5 11q15.5 4.5 36.5 4.5q21 0 36.5 -4.5q15.5 -4.5 26.5 -11q11 -6.5 18.5 -13.5q7.5 -7 11.5 -12q11 -14 16.5 -30q5.5 -16 7.5 -32q2 -16 2 -32q0 -16 0 -29v-392q0 -14 0 -30q0 -15 -2 -31q-2 -16 -7.5 -32q-5.5 -16 -16.5 -30q-8 -11 -30 -26q-22 -15 -63 -15zt0 0zM58 758l149 109l35 -74l-173 -59z" />
<glyph unicode="&#212;" horiz-adv-x="302" d="M110 137q0 -26 1.5 -37.5q1.5 -11.5 4.5 -16.5q4 -8 12.5 -13.5q8.5 -5.5 22.5 -5.5q14 0 22.5 5.5q8.5 5.5 12.5 13.5q3 5 4.5 16.5q1.5 11.5 1.5 37.5v426q0 26 -1.5 37.5q-1.5 11.5 -4.5 16.5q-4 8 -12.5 13.5q-8.5 5.5 -22.5 5.5q-14 0 -22.5 -5.5q-8.5 -5.5 -12.5 -13.5q-3 -5 -4.5 -16.5q-1.5 -11.5 -1.5 -37.5zM151 -10q-41 0 -63 15q-22 15 -30 26q-11 14 -16.5 30q-5.5 16 -7.5 32q-2 16 -2 31q0 16 0 30v392q0 13 0 29q0 16 2 32q2 16 7.5 32q5.5 16 16.5 30q4 5 11.5 12q7.5 7 18.5 13.5q11 6.5 26.5 11q15.5 4.5 36.5 4.5q21 0 36.5 -4.5q15.5 -4.5 26.5 -11q11 -6.5 18.5 -13.5q7.5 -7 11.5 -12q11 -14 16.5 -30q5.5 -16 7.5 -32q2 -16 2 -32q0 -16 0 -29v-392q0 -14 0 -30q0 -15 -2 -31q-2 -16 -7.5 -32q-5.5 -16 -16.5 -30q-8 -11 -30 -26q-22 -15 -63 -15zt0 0zM56 772l95 89l94 -89v-36l-94 58l-95 -58z" />
<glyph unicode="&#213;" horiz-adv-x="302" d="M110 137q0 -26 1.5 -37.5q1.5 -11.5 4.5 -16.5q4 -8 12.5 -13.5q8.5 -5.5 22.5 -5.5q14 0 22.5 5.5q8.5 5.5 12.5 13.5q3 5 4.5 16.5q1.5 11.5 1.5 37.5v426q0 26 -1.5 37.5q-1.5 11.5 -4.5 16.5q-4 8 -12.5 13.5q-8.5 5.5 -22.5 5.5q-14 0 -22.5 -5.5q-8.5 -5.5 -12.5 -13.5q-3 -5 -4.5 -16.5q-1.5 -11.5 -1.5 -37.5zM151 -10q-41 0 -63 15q-22 15 -30 26q-11 14 -16.5 30q-5.5 16 -7.5 32q-2 16 -2 31q0 16 0 30v392q0 13 0 29q0 16 2 32q2 16 7.5 32q5.5 16 16.5 30q4 5 11.5 12q7.5 7 18.5 13.5q11 6.5 26.5 11q15.5 4.5 36.5 4.5q21 0 36.5 -4.5q15.5 -4.5 26.5 -11q11 -6.5 18.5 -13.5q7.5 -7 11.5 -12q11 -14 16.5 -30q5.5 -16 7.5 -32q2 -16 2 -32q0 -16 0 -29v-392q0 -14 0 -30q0 -15 -2 -31q-2 -16 -7.5 -32q-5.5 -16 -16.5 -30q-8 -11 -30 -26q-22 -15 -63 -15zt0 0zM48 792q5 8 14.5 18.5q9.5 10.5 17.5 15.5q14 9 30 9q9 0 16 -3.5q7 -3.5 13 -8.5l39 -28q5 -4 10.5 -6.5q5.5 -2.5 10.5 -2.5q5 0 11 3q7 4 13 11.5q6 7.5 10 12.5l8 12l11 -52q-3 -4 -10 -12.5q-7 -8.5 -18 -16.5q-5 -3 -10.5 -6.5q-5.5 -3.5 -13.5 -3.5q-5 0 -11 1q-6 1 -11 3q-5 2 -10 5.5q-5 3.5 -9 5.5l-35 25q-10 7 -20 7q-8 0 -15 -3.5q-7 -3.5 -11 -6.5q-6 -5 -13 -14.5q-7 -9.5 -12 -18.5z" />
<glyph unicode="&#214;" horiz-adv-x="302" d="M110 137q0 -26 1.5 -37.5q1.5 -11.5 4.5 -16.5q4 -8 12.5 -13.5q8.5 -5.5 22.5 -5.5q14 0 22.5 5.5q8.5 5.5 12.5 13.5q3 5 4.5 16.5q1.5 11.5 1.5 37.5v426q0 26 -1.5 37.5q-1.5 11.5 -4.5 16.5q-4 8 -12.5 13.5q-8.5 5.5 -22.5 5.5q-14 0 -22.5 -5.5q-8.5 -5.5 -12.5 -13.5q-3 -5 -4.5 -16.5q-1.5 -11.5 -1.5 -37.5zM151 -10q-41 0 -63 15q-22 15 -30 26q-11 14 -16.5 30q-5.5 16 -7.5 32q-2 16 -2 31q0 16 0 30v392q0 13 0 29q0 16 2 32q2 16 7.5 32q5.5 16 16.5 30q4 5 11.5 12q7.5 7 18.5 13.5q11 6.5 26.5 11q15.5 4.5 36.5 4.5q21 0 36.5 -4.5q15.5 -4.5 26.5 -11q11 -6.5 18.5 -13.5q7.5 -7 11.5 -12q11 -14 16.5 -30q5.5 -16 7.5 -32q2 -16 2 -32q0 -16 0 -29v-392q0 -14 0 -30q0 -15 -2 -31q-2 -16 -7.5 -32q-5.5 -16 -16.5 -30q-8 -11 -30 -26q-22 -15 -63 -15zt0 0zM172 860h71v-82h-71zM58 860h71v-82l-71 0z" />
<glyph unicode="&#215;" horiz-adv-x="410" d="M300 223l-95 96l-95 -96l-43 43l96 95l-96 95l43 43l95 -96l95 96l43 -43l-96 -95l96 -95z" />
<glyph unicode="&#216;" horiz-adv-x="321" d="M123 137q0 -4 0 -12q0 -7 0.5 -15q0.5 -8 2 -15.5q1.5 -7.5 3.5 -11.5q4 -8 12.5 -13.5q8.5 -5.5 22.5 -5.5q14 0 22.5 5.5q8.5 5.5 12.5 13.5q2 5 4 15q2 10 2 36v272zM123 297l82 272q1 10 -0.5 25q-1.5 15 -5.5 23q-4 8 -12.5 13.5q-8.5 5.5 -22.5 5.5q-14 0 -22.5 -5.5q-8.5 -5.5 -12.5 -13.5q-2 -5 -4 -15q-2 -10 -2 -36zM164 -10q-26 0 -43.5 6.5q-17.5 6.5 -30.5 16.5l-37 -98h-50l51 148q-7 22 -8 40q-1 18 -1 51v392q0 13 0 29q0 16 2 32q2 16 7.5 32q5.5 16 16.5 30q4 5 11.5 12q7.5 7 18.5 13.5q11 6.5 26.5 11q15.5 4.5 36.5 4.5q26 0 43.5 -6.5q17.5 -6.5 30.5 -15.5l23 62h50l-38 -112q4 -12 6 -21.5q2 -9.5 3 -19.5q1 -10 1 -22q0 -12 0 -29v-392q0 -14 0 -30q0 -15 -2 -31q-2 -16 -7.5 -32q-5.5 -16 -16.5 -30q-8 -11 -30 -26t-63 -15z" />
<glyph unicode="&#217;" horiz-adv-x="304" d="M111 700v-566q0 -26 2 -36q2 -10 4 -15q4 -8 12.5 -13.5q8.5 -5.5 22.5 -5.5q14 0 22.5 5.5q8.5 5.5 12.5 13.5q2 5 4 15q2 10 2 36v566h78v-546q0 -14 0 -30q0 -15 -2 -31q-2 -16 -7.5 -32q-5.5 -16 -16.5 -30q-8 -11 -30 -26q-22 -15 -63 -15q-41 0 -63 15q-22 15 -30 26q-11 14 -16.5 30q-5.5 16 -7.5 32q-2 16 -2 31q0 16 0 30v546zM232 734l-173 59l35 74l149 -109z" />
<glyph unicode="&#218;" horiz-adv-x="304" d="M111 700v-566q0 -26 2 -36q2 -10 4 -15q4 -8 12.5 -13.5q8.5 -5.5 22.5 -5.5q14 0 22.5 5.5q8.5 5.5 12.5 13.5q2 5 4 15q2 10 2 36v566h78v-546q0 -14 0 -30q0 -15 -2 -31q-2 -16 -7.5 -32q-5.5 -16 -16.5 -30q-8 -11 -30 -26q-22 -15 -63 -15q-41 0 -63 15q-22 15 -30 26q-11 14 -16.5 30q-5.5 16 -7.5 32q-2 16 -2 31q0 16 0 30v546zM59 758l149 109l35 -74l-173 -59z" />
<glyph unicode="&#219;" horiz-adv-x="304" d="M111 700v-566q0 -26 2 -36q2 -10 4 -15q4 -8 12.5 -13.5q8.5 -5.5 22.5 -5.5q14 0 22.5 5.5q8.5 5.5 12.5 13.5q2 5 4 15q2 10 2 36v566h78v-546q0 -14 0 -30q0 -15 -2 -31q-2 -16 -7.5 -32q-5.5 -16 -16.5 -30q-8 -11 -30 -26q-22 -15 -63 -15q-41 0 -63 15q-22 15 -30 26q-11 14 -16.5 30q-5.5 16 -7.5 32q-2 16 -2 31q0 16 0 30v546zM57 772l95 89l94 -89v-36l-94 58l-95 -58z" />
<glyph unicode="&#220;" horiz-adv-x="304" d="M111 700v-566q0 -26 2 -36q2 -10 4 -15q4 -8 12.5 -13.5q8.5 -5.5 22.5 -5.5q14 0 22.5 5.5q8.5 5.5 12.5 13.5q2 5 4 15q2 10 2 36v566h78v-546q0 -14 0 -30q0 -15 -2 -31q-2 -16 -7.5 -32q-5.5 -16 -16.5 -30q-8 -11 -30 -26q-22 -15 -63 -15q-41 0 -63 15q-22 15 -30 26q-11 14 -16.5 30q-5.5 16 -7.5 32q-2 16 -2 31q0 16 0 30v546zM173 860h71v-82h-71zM59 860h71v-82l-71 0z" />
<glyph unicode="&#221;" horiz-adv-x="298" d="M112 0v293l-107 407h80l60 -273l2 -25h4l2 25l60 273h80l-107 -407v-293zM56 758l149 109l35 -74l-173 -59z" />
<glyph unicode="&#222;" horiz-adv-x="293" d="M128 201q21 0 33.5 11.5q12.5 11.5 18.5 22.5q5 10 8.5 28q3.5 18 3.5 51v88q0 17 -1 38.5q-1 21.5 -14 38.5q-6 8 -18.5 16q-12.5 8 -33.5 8h-12v-302zM35 0v700h78v-123h14q31 0 57.5 -11.5q26.5 -11.5 43.5 -28.5q25 -24 33.5 -59.5q8.5 -35.5 8.5 -90.5v-64q0 -27 -1 -47.5q-1 -20.5 -5 -37q-4 -16.5 -10.5 -30q-6.5 -13.5 -16.5 -27.5q-5 -7 -14 -16q-9 -9 -22 -17.5q-13 -8.5 -31 -14.5q-18 -6 -42 -6h-15l0 -127z" />
<glyph unicode="&#223;" horiz-adv-x="260" d="M30 0v596q0 29 5.5 54q5.5 25 31.5 43q13 9 30 13q17 4 34 4q36 0 64 -23q21 -18 26.5 -44.5q5.5 -26.5 5.5 -56.5v-41q0 -16 -2.5 -34q-2.5 -18 -13.5 -34q-13 -20 -36 -29q15 -6 29 -19q14 -13 22 -33q5 -14 7 -33.5q2 -19.5 2 -35.5v-211q0 -11 -0.5 -25q-0.5 -14 -3 -28.5q-2.5 -14.5 -8 -28.5q-5.5 -14 -14.5 -24q-8 -9 -24 -16.5q-16 -7.5 -38 0.5q-13 5 -19 9.5q-6 4.5 -10 9.5l9 50q7 -10 16.5 -12q9.5 -2 15.5 3q5 5 6.5 17q1.5 12 1.5 38v225q0 27 -3 38.5q-3 11.5 -5 14.5q-5 10 -17 19q-12 9 -26 7l0 60q5 -1 14 0q9 1 17 12q7 9 9.5 23q2.5 14 2.5 24v67q0 8 0 19q0 11 -6 20q-5 8 -11 10q-6 2 -13 2q-8 0 -13.5 -2q-5.5 -2 -10.5 -10q-6 -9 -6.5 -19q-0.5 -10 -0.5 -21l0 -598z" />
<glyph unicode="&#224;" horiz-adv-x="238" d="M145 256q-5 -4 -13 -11.5q-8 -7.5 -16.5 -16.5q-8.5 -9 -16 -18.5q-7.5 -9.5 -10.5 -16.5q-2 -5 -4 -16q-2 -11 -2 -34v-42q0 -17 1 -24.5q1 -7.5 3 -12.5q5 -13 18 -13q19 0 29 17q8 12 9.5 22.5q1.5 10.5 1.5 20.5v145zM159 0l-9 31q-5 -9 -12.5 -16.5q-7.5 -7.5 -14.5 -12.5q-10 -7 -20.5 -9.5q-10.5 -2.5 -21.5 -2.5q-16 0 -28 5q-12 5 -22 20q-11 16 -13.5 33.5q-2.5 17.5 -2.5 30.5v75q0 15 1 27q1 12 5.5 24q4.5 12 12.5 24q8 12 22 26q16 16 35 31.5q19 15.5 54 40.5l0 93q0 7 -1 14q-1 7 -4 13q-5 8 -11 10.5q-6 2.5 -14 2.5q-8 0 -14 -2.5q-6 -2.5 -11 -10.5q-3 -6 -4 -13q-1 -7 -1 -14v-81h-68v70q0 19 2.5 40q2.5 21 18.5 41q7 8 25 20q18 12 53 12q19 0 33.5 -4q14.5 -4 23.5 -9.5q9 -5.5 14 -11q5 -5.5 7 -7.5q14 -18 16.5 -41.5q2.5 -23.5 2.5 -40.5v-408zM171 554l-142 114l58 56l103 -152z" />
<glyph unicode="&#225;" horiz-adv-x="238" d="M145 256q-5 -4 -13 -11.5q-8 -7.5 -16.5 -16.5q-8.5 -9 -16 -18.5q-7.5 -9.5 -10.5 -16.5q-2 -5 -4 -16q-2 -11 -2 -34v-42q0 -17 1 -24.5q1 -7.5 3 -12.5q5 -13 18 -13q19 0 29 17q8 12 9.5 22.5q1.5 10.5 1.5 20.5v145zM159 0l-9 31q-5 -9 -12.5 -16.5q-7.5 -7.5 -14.5 -12.5q-10 -7 -20.5 -9.5q-10.5 -2.5 -21.5 -2.5q-16 0 -28 5q-12 5 -22 20q-11 16 -13.5 33.5q-2.5 17.5 -2.5 30.5v75q0 15 1 27q1 12 5.5 24q4.5 12 12.5 24q8 12 22 26q16 16 35 31.5q19 15.5 54 40.5l0 93q0 7 -1 14q-1 7 -4 13q-5 8 -11 10.5q-6 2.5 -14 2.5q-8 0 -14 -2.5q-6 -2.5 -11 -10.5q-3 -6 -4 -13q-1 -7 -1 -14v-81h-68v70q0 19 2.5 40q2.5 21 18.5 41q7 8 25 20q18 12 53 12q19 0 33.5 -4q14.5 -4 23.5 -9.5q9 -5.5 14 -11q5 -5.5 7 -7.5q14 -18 16.5 -41.5q2.5 -23.5 2.5 -40.5v-408zM47 572l103 152l58 -56l-142 -114z" />
<glyph unicode="&#226;" horiz-adv-x="238" d="M145 256q-5 -4 -13 -11.5q-8 -7.5 -16.5 -16.5q-8.5 -9 -16 -18.5q-7.5 -9.5 -10.5 -16.5q-2 -5 -4 -16q-2 -11 -2 -34v-42q0 -17 1 -24.5q1 -7.5 3 -12.5q5 -13 18 -13q19 0 29 17q8 12 9.5 22.5q1.5 10.5 1.5 20.5v145zM159 0l-9 31q-5 -9 -12.5 -16.5q-7.5 -7.5 -14.5 -12.5q-10 -7 -20.5 -9.5q-10.5 -2.5 -21.5 -2.5q-16 0 -28 5q-12 5 -22 20q-11 16 -13.5 33.5q-2.5 17.5 -2.5 30.5v75q0 15 1 27q1 12 5.5 24q4.5 12 12.5 24q8 12 22 26q16 16 35 31.5q19 15.5 54 40.5l0 93q0 7 -1 14q-1 7 -4 13q-5 8 -11 10.5q-6 2.5 -14 2.5q-8 0 -14 -2.5q-6 -2.5 -11 -10.5q-3 -6 -4 -13q-1 -7 -1 -14v-81h-68v70q0 19 2.5 40q2.5 21 18.5 41q7 8 25 20q18 12 53 12q19 0 33.5 -4q14.5 -4 23.5 -9.5q9 -5.5 14 -11q5 -5.5 7 -7.5q14 -18 16.5 -41.5q2.5 -23.5 2.5 -40.5v-408zM23 611l95 89l94 -89v-36l-94 58l-95 -58z" />
<glyph unicode="&#227;" horiz-adv-x="238" d="M145 256q-5 -4 -13 -11.5q-8 -7.5 -16.5 -16.5q-8.5 -9 -16 -18.5q-7.5 -9.5 -10.5 -16.5q-2 -5 -4 -16q-2 -11 -2 -34v-42q0 -17 1 -24.5q1 -7.5 3 -12.5q5 -13 18 -13q19 0 29 17q8 12 9.5 22.5q1.5 10.5 1.5 20.5v145zM159 0l-9 31q-5 -9 -12.5 -16.5q-7.5 -7.5 -14.5 -12.5q-10 -7 -20.5 -9.5q-10.5 -2.5 -21.5 -2.5q-16 0 -28 5q-12 5 -22 20q-11 16 -13.5 33.5q-2.5 17.5 -2.5 30.5v75q0 15 1 27q1 12 5.5 24q4.5 12 12.5 24q8 12 22 26q16 16 35 31.5q19 15.5 54 40.5l0 93q0 7 -1 14q-1 7 -4 13q-5 8 -11 10.5q-6 2.5 -14 2.5q-8 0 -14 -2.5q-6 -2.5 -11 -10.5q-3 -6 -4 -13q-1 -7 -1 -14v-81h-68v70q0 19 2.5 40q2.5 21 18.5 41q7 8 25 20q18 12 53 12q19 0 33.5 -4q14.5 -4 23.5 -9.5q9 -5.5 14 -11q5 -5.5 7 -7.5q14 -18 16.5 -41.5q2.5 -23.5 2.5 -40.5v-408zM16 657q5 8 14.5 18.5q9.5 10.5 17.5 15.5q14 9 30 9q11 0 17 -3q6 -3 12 -8l39 -29q7 -6 15 -6q8 0 18 7q2 2 9 8q7 6 10 10l11 13l11 -51q-6 -9 -13.5 -17q-7.5 -8 -14.5 -13q-5 -5 -11 -8q-6 -3 -13 -3q-6 0 -11.5 0.5q-5.5 0.5 -10.5 2.5q-2 2 -5 3.5q-3 1.5 -8 4.5l-41 28q-10 7 -20 7q-8 0 -14.5 -2.5q-6.5 -2.5 -11.5 -6.5q-6 -5 -13 -15q-7 -10 -12 -19z" />
<glyph unicode="&#228;" horiz-adv-x="238" d="M145 256q-5 -4 -13 -11.5q-8 -7.5 -16.5 -16.5q-8.5 -9 -16 -18.5q-7.5 -9.5 -10.5 -16.5q-2 -5 -4 -16q-2 -11 -2 -34v-42q0 -17 1 -24.5q1 -7.5 3 -12.5q5 -13 18 -13q19 0 29 17q8 12 9.5 22.5q1.5 10.5 1.5 20.5v145zM159 0l-9 31q-5 -9 -12.5 -16.5q-7.5 -7.5 -14.5 -12.5q-10 -7 -20.5 -9.5q-10.5 -2.5 -21.5 -2.5q-16 0 -28 5q-12 5 -22 20q-11 16 -13.5 33.5q-2.5 17.5 -2.5 30.5v75q0 15 1 27q1 12 5.5 24q4.5 12 12.5 24q8 12 22 26q16 16 35 31.5q19 15.5 54 40.5l0 93q0 7 -1 14q-1 7 -4 13q-5 8 -11 10.5q-6 2.5 -14 2.5q-8 0 -14 -2.5q-6 -2.5 -11 -10.5q-3 -6 -4 -13q-1 -7 -1 -14v-81h-68v70q0 19 2.5 40q2.5 21 18.5 41q7 8 25 20q18 12 53 12q19 0 33.5 -4q14.5 -4 23.5 -9.5q9 -5.5 14 -11q5 -5.5 7 -7.5q14 -18 16.5 -41.5q2.5 -23.5 2.5 -40.5v-408zM18 614v86h68v-86zM136 614v86h68l0 -86z" />
<glyph unicode="&#229;" horiz-adv-x="238" d="M145 256q-5 -4 -13 -11.5q-8 -7.5 -16.5 -16.5q-8.5 -9 -16 -18.5q-7.5 -9.5 -10.5 -16.5q-2 -5 -4 -16q-2 -11 -2 -34v-42q0 -17 1 -24.5q1 -7.5 3 -12.5q5 -13 18 -13q19 0 29 17q8 12 9.5 22.5q1.5 10.5 1.5 20.5v145zM159 0l-9 31q-5 -9 -12.5 -16.5q-7.5 -7.5 -14.5 -12.5q-10 -7 -20.5 -9.5q-10.5 -2.5 -21.5 -2.5q-16 0 -28 5q-12 5 -22 20q-11 16 -13.5 33.5q-2.5 17.5 -2.5 30.5v75q0 15 1 27q1 12 5.5 24q4.5 12 12.5 24q8 12 22 26q16 16 35 31.5q19 15.5 54 40.5l0 93q0 7 -1 14q-1 7 -4 13q-5 8 -11 10.5q-6 2.5 -14 2.5q-8 0 -14 -2.5q-6 -2.5 -11 -10.5q-3 -6 -4 -13q-1 -7 -1 -14v-81h-68v70q0 19 2.5 40q2.5 21 18.5 41q7 8 25 20q18 12 53 12q19 0 33.5 -4q14.5 -4 23.5 -9.5q9 -5.5 14 -11q5 -5.5 7 -7.5q14 -18 16.5 -41.5q2.5 -23.5 2.5 -40.5v-408zM41 634q0 29 21.5 50.5q21.5 21.5 50.5 21.5q29 0 50.5 -21.5q21.5 -21.5 21.5 -50.5q0 -29 -21.5 -50.5q-21.5 -21.5 -50.5 -21.5q-29 0 -50.5 21.5q-21.5 21.5 -21.5 50.5zt0 0zM77 634q0 -15 10.5 -25.5q10.5 -10.5 25.5 -10.5q15 0 25.5 10.5q10.5 10.5 10.5 25.5q0 15 -10.5 25.5q-10.5 10.5 -25.5 10.5q-15 0 -25.5 -10.5t-10.5 -25.5z" />
<glyph unicode="&#230;" horiz-adv-x="366" d="M273 416q0 9 -1 18.5q-1 9.5 -6 15.5q-2 3 -7.5 6.5q-5.5 3.5 -15.5 3.5q-10 0 -15.5 -3.5q-5.5 -3.5 -7.5 -6.5q-5 -6 -6 -15.5q-1 -9.5 -1 -18.5v-114h60zM145 256q-5 -4 -13 -11.5q-8 -7.5 -16.5 -16.5q-8.5 -9 -16 -18.5q-7.5 -9.5 -10.5 -16.5q-2 -5 -4 -16q-2 -11 -2 -34v-43q0 -6 0.5 -17q0.5 -11 2.5 -16q2 -5 5.5 -10.5q3.5 -5.5 13.5 -5.5q12 0 19 6q7 6 10 11q7 11 9 21q2 10 2 18v149zM213 105q0 -19 2 -27q2 -8 4 -11q8 -13 26 -13q18 0 26 13q2 5 4 13q2 8 2 26v85h64v-89q0 -32 -5.5 -50q-5.5 -18 -12.5 -28q-8 -12 -26.5 -23q-18.5 -11 -49.5 -11q-20 0 -39 6q-19 6 -30 20l-12 15q-8 -9 -18.5 -17.5q-10.5 -8.5 -19.5 -13.5q-10 -5 -23 -7.5q-13 -2.5 -24 -2.5q-17 0 -28 5q-11 5 -21 20q-8 14 -12.5 31q-4.5 17 -4.5 33v75q0 15 1 27q1 12 5.5 24q4.5 12 12.5 24q8 12 22 26q16 16 35 31.5q19 15.5 54 40.5l0 93q0 7 -1 14q-1 7 -4 13q-5 8 -11 10.5q-6 2.5 -14 2.5q-8 0 -14 -2.5q-6 -2.5 -11 -10.5q-3 -6 -4 -13q-1 -7 -1 -14v-81h-68v70q0 19 2.5 40q2.5 21 18.5 41q11 12 29 22q18 10 49 10q23 0 37.5 -5.5q14.5 -5.5 27.5 -20.5q8 11 21 18.5q13 7.5 41 7.5q29 0 46.5 -10q17.5 -10 28.5 -22q18 -21 20.5 -44.5q2.5 -23.5 2.5 -47.5v-156h-128l0 -137z" />
<glyph unicode="&#231;" horiz-adv-x="245" d="M225 118q0 -32 -2.5 -47.5q-2.5 -15.5 -5.5 -24.5q-2 -5 -6.5 -13.5q-4.5 -8.5 -13 -17q-8.5 -8.5 -21 -15.5q-12.5 -7 -30.5 -9l0 -31q29 -3 45 -20q8 -10 14 -24.5q6 -14.5 6 -31.5q0 -20 -5 -34.5q-5 -14.5 -12 -23.5q-11 -14 -23 -20q-12 -6 -28 -6q-10 0 -18 1q-8 1 -15 2q-5 1 -10 2q-5 1 -12 3l0 44q4 -2 11.5 -4q7.5 -2 12.5 -3q3 -1 10.5 -2q7.5 -1 11.5 -1q8 0 12.5 4q4.5 4 6.5 8q4 7 5 14q1 7 1 13q0 8 -1 15q-1 7 -6 15q-7 13 -23 13h-26v68q-30 5 -45.5 22q-15.5 17 -20.5 30q-2 5 -7 23q-5 18 -5 56v261q0 25 1.5 48q1.5 23 11.5 41q8 16 30 32.5q22 16.5 60 16.5q10 0 22 -2q12 -2 23.5 -7.5q11.5 -5.5 21.5 -15.5q10 -10 17 -25q7 -15 9 -37q2 -22 2 -61v-59h-68v96q0 15 -1.5 22.5q-1.5 7.5 -3.5 10.5q-5 9 -11.5 11.5q-6.5 2.5 -14.5 2.5q-5 0 -13 -2.5q-8 -2.5 -13 -11.5q-5 -9 -5 -31v-307q0 -7 1 -18q1 -11 5 -19q8 -15 26 -15q12 0 18 5q6 5 9 10q3 7 4 18q1 11 1 19v90l68 0z" />
<glyph unicode="&#232;" horiz-adv-x="246" d="M153 414q0 9 -1 18.5q-1 9.5 -6 15.5q-2 3 -7.5 6.5q-5.5 3.5 -15.5 3.5q-10 0 -15.5 -3.5q-5.5 -3.5 -7.5 -6.5q-5 -6 -6 -15.5q-1 -9.5 -1 -18.5v-114h60zM221 102q0 -32 -5.5 -50q-5.5 -18 -12.5 -28q-8 -12 -26.5 -23q-18.5 -11 -49.5 -11q-30 0 -49 10.5q-19 10.5 -29 22.5q-17 21 -20.5 46.5q-3.5 25.5 -3.5 45.5v283q0 24 2.5 47.5q2.5 23.5 20.5 44.5q12 14 31.5 23q19.5 9 43.5 9q24 0 43.5 -9q19.5 -9 31.5 -23q18 -21 20.5 -44.5q2.5 -23.5 2.5 -47.5v-156h-128v-137q0 -19 2 -27q2 -8 4 -11q8 -13 26 -13q18 0 26 13q2 5 4 13q2 8 2 26v85h64zM175 554l-142 114l58 56l103 -152z" />
<glyph unicode="&#233;" horiz-adv-x="246" d="M153 414q0 9 -1 18.5q-1 9.5 -6 15.5q-2 3 -7.5 6.5q-5.5 3.5 -15.5 3.5q-10 0 -15.5 -3.5q-5.5 -3.5 -7.5 -6.5q-5 -6 -6 -15.5q-1 -9.5 -1 -18.5v-114h60zM221 102q0 -32 -5.5 -50q-5.5 -18 -12.5 -28q-8 -12 -26.5 -23q-18.5 -11 -49.5 -11q-30 0 -49 10.5q-19 10.5 -29 22.5q-17 21 -20.5 46.5q-3.5 25.5 -3.5 45.5v283q0 24 2.5 47.5q2.5 23.5 20.5 44.5q12 14 31.5 23q19.5 9 43.5 9q24 0 43.5 -9q19.5 -9 31.5 -23q18 -21 20.5 -44.5q2.5 -23.5 2.5 -47.5v-156h-128v-137q0 -19 2 -27q2 -8 4 -11q8 -13 26 -13q18 0 26 13q2 5 4 13q2 8 2 26v85h64zM51 572l103 152l58 -56l-142 -114z" />
<glyph unicode="&#234;" horiz-adv-x="246" d="M153 414q0 9 -1 18.5q-1 9.5 -6 15.5q-2 3 -7.5 6.5q-5.5 3.5 -15.5 3.5q-10 0 -15.5 -3.5q-5.5 -3.5 -7.5 -6.5q-5 -6 -6 -15.5q-1 -9.5 -1 -18.5v-114h60zM221 102q0 -32 -5.5 -50q-5.5 -18 -12.5 -28q-8 -12 -26.5 -23q-18.5 -11 -49.5 -11q-30 0 -49 10.5q-19 10.5 -29 22.5q-17 21 -20.5 46.5q-3.5 25.5 -3.5 45.5v283q0 24 2.5 47.5q2.5 23.5 20.5 44.5q12 14 31.5 23q19.5 9 43.5 9q24 0 43.5 -9q19.5 -9 31.5 -23q18 -21 20.5 -44.5q2.5 -23.5 2.5 -47.5v-156h-128v-137q0 -19 2 -27q2 -8 4 -11q8 -13 26 -13q18 0 26 13q2 5 4 13q2 8 2 26v85h64zM27 611l95 89l94 -89v-36l-94 58l-95 -58z" />
<glyph unicode="&#235;" horiz-adv-x="246" d="M153 414q0 9 -1 18.5q-1 9.5 -6 15.5q-2 3 -7.5 6.5q-5.5 3.5 -15.5 3.5q-10 0 -15.5 -3.5q-5.5 -3.5 -7.5 -6.5q-5 -6 -6 -15.5q-1 -9.5 -1 -18.5v-114h60zM221 102q0 -32 -5.5 -50q-5.5 -18 -12.5 -28q-8 -12 -26.5 -23q-18.5 -11 -49.5 -11q-30 0 -49 10.5q-19 10.5 -29 22.5q-17 21 -20.5 46.5q-3.5 25.5 -3.5 45.5v283q0 24 2.5 47.5q2.5 23.5 20.5 44.5q12 14 31.5 23q19.5 9 43.5 9q24 0 43.5 -9q19.5 -9 31.5 -23q18 -21 20.5 -44.5q2.5 -23.5 2.5 -47.5v-156h-128v-137q0 -19 2 -27q2 -8 4 -11q8 -13 26 -13q18 0 26 13q2 5 4 13q2 8 2 26v85h64zM29 614v86h68v-86zM147 614v86h68l0 -86z" />
<glyph unicode="&#236;" horiz-adv-x="128" d="M30 0v512h68v-512zM117 554l-142 114l58 56l103 -152z" />
<glyph unicode="&#237;" horiz-adv-x="128" d="M30 0v512h68v-512zM-7 572l103 152l58 -56l-142 -114z" />
<glyph unicode="&#238;" horiz-adv-x="128" d="M30 0v512h68v-512zM-31 611l95 89l94 -89v-36l-94 58l-95 -58z" />
<glyph unicode="&#239;" horiz-adv-x="128" d="M30 0v512h68v-512zM-29 614v86h68v-86zM89 614v86h68l0 -86z" />
<glyph unicode="&#240;" horiz-adv-x="261" d="M125 54q18 0 26 13q2 3 4 11q2 8 2 27v270q0 5 -1 22.5q-1 17.5 -6 29.5q-10 21 -31 21q-11 0 -15 -3.5q-4 -3.5 -6 -10.5q-4 -10 -4.5 -16q-0.5 -6 -0.5 -17v-296q0 -19 2 -27q2 -8 4 -11q8 -13 26 -13zt0 0zM125 -10q-25 0 -45 6.5q-20 6.5 -35 26.5q-14 18 -17 37q-3 19 -3 37v296q0 25 1 45.5q1 20.5 10 37.5q18 34 55 34q12 0 24.5 -3q12.5 -3 22.5 -10q11 -7 17 -16l2 0q0 28 -3.5 43.5q-3.5 15.5 -7.5 23.5l-17 36l-58 -39l-26 44l58 41l-48 70h79l26 -39l45 31l26 -44l-43 -31l18 -39q7 -16 11 -36.5q4 -20.5 5.5 -41q1.5 -20.5 2 -38.5q0.5 -18 0.5 -28v-337q0 -14 -2.5 -33.5q-2.5 -19.5 -17.5 -39.5q-16 -21 -35 -27.5t-45 -6.5z" />
<glyph unicode="&#241;" horiz-adv-x="260" d="M162 0v391q0 24 -1.5 33.5q-1.5 9.5 -2.5 11.5q-2 5 -7.5 11.5q-5.5 6.5 -18.5 6.5q-11 0 -18 -5.5q-7 -5.5 -10 -12.5q-2 -3 -4 -11q-2 -8 -2 -23v-402h-68v512h63l1 -33q4 7 10 14.5q6 7.5 15 13.5q10 7 22.5 11q12.5 4 25.5 4q22 0 33 -9.5q11 -9.5 16 -16.5q7 -11 10.5 -31q3.5 -20 3.5 -61v-404zM27 657q5 8 14.5 18.5q9.5 10.5 17.5 15.5q14 9 30 9q11 0 17 -3q6 -3 12 -8l39 -29q7 -6 15 -6q8 0 18 7q2 2 9 8q7 6 10 10l11 13l11 -51q-6 -9 -13.5 -17q-7.5 -8 -14.5 -13q-5 -5 -11 -8q-6 -3 -13 -3q-6 0 -11.5 0.5q-5.5 0.5 -10.5 2.5q-2 2 -5 3.5q-3 1.5 -8 4.5l-41 28q-10 7 -20 7q-8 0 -14.5 -2.5q-6.5 -2.5 -11.5 -6.5q-6 -5 -13 -15q-7 -10 -12 -19z" />
<glyph unicode="&#242;" horiz-adv-x="254" d="M229 127q0 -23 -1.5 -49q-1.5 -26 -15.5 -48q-10 -14 -30 -27q-20 -13 -55 -13q-35 0 -55 13q-20 13 -30 27q-14 22 -15.5 48q-1.5 26 -1.5 49v272q0 17 1.5 39.5q1.5 22.5 15.5 43.5q7 11 27 25.5q20 14.5 58 14.5q38 0 58 -14.5q20 -14.5 27 -25.5q14 -21 15.5 -43.5q1.5 -22.5 1.5 -39.5zM161 413q0 7 -1 14.5q-1 7.5 -4 14.5q-6 11 -14 13.5q-8 2.5 -15 2.5q-7 0 -15 -2.5q-8 -2.5 -14 -13.5q-3 -7 -4 -14.5q-1 -7.5 -1 -14.5v-314q0 -7 1 -14.5q1 -7.5 4 -14.5q6 -11 14 -13.5q8 -2.5 15 -2.5q7 0 15 2.5q8 2.5 14 13.5q3 7 4 14.5q1 7.5 1 14.5v314zM179 554l-142 114l58 56l103 -152z" />
<glyph unicode="&#243;" horiz-adv-x="254" d="M229 127q0 -23 -1.5 -49q-1.5 -26 -15.5 -48q-10 -14 -30 -27q-20 -13 -55 -13q-35 0 -55 13q-20 13 -30 27q-14 22 -15.5 48q-1.5 26 -1.5 49v272q0 17 1.5 39.5q1.5 22.5 15.5 43.5q7 11 27 25.5q20 14.5 58 14.5q38 0 58 -14.5q20 -14.5 27 -25.5q14 -21 15.5 -43.5q1.5 -22.5 1.5 -39.5zM161 413q0 7 -1 14.5q-1 7.5 -4 14.5q-6 11 -14 13.5q-8 2.5 -15 2.5q-7 0 -15 -2.5q-8 -2.5 -14 -13.5q-3 -7 -4 -14.5q-1 -7.5 -1 -14.5v-314q0 -7 1 -14.5q1 -7.5 4 -14.5q6 -11 14 -13.5q8 -2.5 15 -2.5q7 0 15 2.5q8 2.5 14 13.5q3 7 4 14.5q1 7.5 1 14.5v314zM55 572l103 152l58 -56l-142 -114z" />
<glyph unicode="&#244;" horiz-adv-x="254" d="M229 127q0 -23 -1.5 -49q-1.5 -26 -15.5 -48q-10 -14 -30 -27q-20 -13 -55 -13q-35 0 -55 13q-20 13 -30 27q-14 22 -15.5 48q-1.5 26 -1.5 49v272q0 17 1.5 39.5q1.5 22.5 15.5 43.5q7 11 27 25.5q20 14.5 58 14.5q38 0 58 -14.5q20 -14.5 27 -25.5q14 -21 15.5 -43.5q1.5 -22.5 1.5 -39.5zM161 413q0 7 -1 14.5q-1 7.5 -4 14.5q-6 11 -14 13.5q-8 2.5 -15 2.5q-7 0 -15 -2.5q-8 -2.5 -14 -13.5q-3 -7 -4 -14.5q-1 -7.5 -1 -14.5v-314q0 -7 1 -14.5q1 -7.5 4 -14.5q6 -11 14 -13.5q8 -2.5 15 -2.5q7 0 15 2.5q8 2.5 14 13.5q3 7 4 14.5q1 7.5 1 14.5v314zM31 611l95 89l94 -89v-36l-94 58l-95 -58z" />
<glyph unicode="&#245;" horiz-adv-x="254" d="M229 127q0 -23 -1.5 -49q-1.5 -26 -15.5 -48q-10 -14 -30 -27q-20 -13 -55 -13q-35 0 -55 13q-20 13 -30 27q-14 22 -15.5 48q-1.5 26 -1.5 49v272q0 17 1.5 39.5q1.5 22.5 15.5 43.5q7 11 27 25.5q20 14.5 58 14.5q38 0 58 -14.5q20 -14.5 27 -25.5q14 -21 15.5 -43.5q1.5 -22.5 1.5 -39.5zM161 413q0 7 -1 14.5q-1 7.5 -4 14.5q-6 11 -14 13.5q-8 2.5 -15 2.5q-7 0 -15 -2.5q-8 -2.5 -14 -13.5q-3 -7 -4 -14.5q-1 -7.5 -1 -14.5v-314q0 -7 1 -14.5q1 -7.5 4 -14.5q6 -11 14 -13.5q8 -2.5 15 -2.5q7 0 15 2.5q8 2.5 14 13.5q3 7 4 14.5q1 7.5 1 14.5v314zM24 657q5 8 14.5 18.5q9.5 10.5 17.5 15.5q14 9 30 9q11 0 17 -3q6 -3 12 -8l39 -29q7 -6 15 -6q8 0 18 7q2 2 9 8q7 6 10 10l11 13l11 -51q-6 -9 -13.5 -17q-7.5 -8 -14.5 -13q-5 -5 -11 -8q-6 -3 -13 -3q-6 0 -11.5 0.5q-5.5 0.5 -10.5 2.5q-2 2 -5 3.5q-3 1.5 -8 4.5l-41 28q-10 7 -20 7q-8 0 -14.5 -2.5q-6.5 -2.5 -11.5 -6.5q-6 -5 -13 -15q-7 -10 -12 -19z" />
<glyph unicode="&#246;" horiz-adv-x="254" d="M229 127q0 -23 -1.5 -49q-1.5 -26 -15.5 -48q-10 -14 -30 -27q-20 -13 -55 -13q-35 0 -55 13q-20 13 -30 27q-14 22 -15.5 48q-1.5 26 -1.5 49v272q0 17 1.5 39.5q1.5 22.5 15.5 43.5q7 11 27 25.5q20 14.5 58 14.5q38 0 58 -14.5q20 -14.5 27 -25.5q14 -21 15.5 -43.5q1.5 -22.5 1.5 -39.5zM161 413q0 7 -1 14.5q-1 7.5 -4 14.5q-6 11 -14 13.5q-8 2.5 -15 2.5q-7 0 -15 -2.5q-8 -2.5 -14 -13.5q-3 -7 -4 -14.5q-1 -7.5 -1 -14.5v-314q0 -7 1 -14.5q1 -7.5 4 -14.5q6 -11 14 -13.5q8 -2.5 15 -2.5q7 0 15 2.5q8 2.5 14 13.5q3 7 4 14.5q1 7.5 1 14.5v314zM33 614v86h68v-86zM151 614v86h68l0 -86z" />
<glyph unicode="&#247;" horiz-adv-x="410" d="M173 572h64v-100h-64zM173 244h64v-100h-64zM40 391h330v-60l-330 0z" />
<glyph unicode="&#248;" horiz-adv-x="270" d="M241 127q0 -21 -0.5 -47.5q-0.5 -26.5 -16.5 -49.5q-7 -11 -27 -25.5q-20 -14.5 -58 -14.5q-24 0 -39 6q-15 6 -24 12l-22 -50h-49l38 96q-7 23 -6.5 38q0.5 15 0.5 35v258q0 21 0.5 47.5q0.5 26.5 16.5 49.5q10 14 30 27q20 13 55 13q23 0 36.5 -5q13.5 -5 22.5 -11l17 37h50l-32 -80q9 -25 8.5 -41q-0.5 -16 -0.5 -37zM172 424q-2 10 -3 13q-1 3 -2 5q-5 11 -13 13.5q-8 2.5 -15 2.5q-7 0 -15 -2.5q-8 -2.5 -14 -13.5q-3 -7 -4 -14.5q-1 -7.5 -1 -14.5v-184zM105 96q0 -6 1 -13.5q1 -7.5 4 -12.5q5 -11 13.5 -13.5q8.5 -2.5 15.5 -2.5q7 0 15 2.5q8 2.5 14 13.5q3 7 4 14.5q1 7.5 1 14.5l0 194z" />
<glyph unicode="&#249;" horiz-adv-x="260" d="M98 512v-387q0 -10 0.5 -27q0.5 -17 2.5 -25q3 -12 10.5 -16.5q7.5 -4.5 15.5 -4.5q20 0 29 17q6 12 6 32v411h68v-512h-63l-1 28q-8 -10 -14.5 -16q-6.5 -6 -10.5 -9q-10 -7 -19 -10q-9 -3 -22 -3q-33 0 -51 25q-11 16 -15 39.5q-4 23.5 -4 53.5v404zM182 554l-142 114l58 56l103 -152z" />
<glyph unicode="&#250;" horiz-adv-x="260" d="M98 512v-387q0 -10 0.5 -27q0.5 -17 2.5 -25q3 -12 10.5 -16.5q7.5 -4.5 15.5 -4.5q20 0 29 17q6 12 6 32v411h68v-512h-63l-1 28q-8 -10 -14.5 -16q-6.5 -6 -10.5 -9q-10 -7 -19 -10q-9 -3 -22 -3q-33 0 -51 25q-11 16 -15 39.5q-4 23.5 -4 53.5v404zM58 572l103 152l58 -56l-142 -114z" />
<glyph unicode="&#251;" horiz-adv-x="260" d="M98 512v-387q0 -10 0.5 -27q0.5 -17 2.5 -25q3 -12 10.5 -16.5q7.5 -4.5 15.5 -4.5q20 0 29 17q6 12 6 32v411h68v-512h-63l-1 28q-8 -10 -14.5 -16q-6.5 -6 -10.5 -9q-10 -7 -19 -10q-9 -3 -22 -3q-33 0 -51 25q-11 16 -15 39.5q-4 23.5 -4 53.5v404zM34 611l95 89l94 -89v-36l-94 58l-95 -58z" />
<glyph unicode="&#252;" horiz-adv-x="260" d="M98 512v-387q0 -10 0.5 -27q0.5 -17 2.5 -25q3 -12 10.5 -16.5q7.5 -4.5 15.5 -4.5q20 0 29 17q6 12 6 32v411h68v-512h-63l-1 28q-8 -10 -14.5 -16q-6.5 -6 -10.5 -9q-10 -7 -19 -10q-9 -3 -22 -3q-33 0 -51 25q-11 16 -15 39.5q-4 23.5 -4 53.5v404zM36 614v86h68v-86zM154 614v86h68l0 -86z" />
<glyph unicode="&#253;" horiz-adv-x="220" d="M23 -86q8 -2 15 -2.5q7 -0.5 16 -0.5q8 0 18 2q10 2 16 13q5 9 3 23q-2 14 -6 39l-75 524h68l33 -361h3l28 361h68l-61 -574q-2 -16 -6 -34q-4 -18 -15 -32q-13 -16 -29 -21q-16 -5 -30 -5q-26 0 -46 7zM38 572l103 152l58 -56l-142 -114z" />
<glyph unicode="&#254;" horiz-adv-x="251" d="M98 133q0 -25 2 -35.5q2 -10.5 3 -12.5q5 -14 14.5 -19.5q9.5 -5.5 18.5 -5.5q14 0 19 15q2 6 2.5 18.5q0.5 12.5 0.5 20.5v285q0 25 -1.5 33q-1.5 8 -2.5 10q-5 13 -18 13q-7 0 -14.5 -2q-7.5 -2 -12.5 -9q-5 -5 -8 -14.5q-3 -9.5 -3 -25.5zM30 -150v850h68v-221q13 22 31.5 32.5q18.5 10.5 33.5 10.5q12 0 24 -5.5q12 -5.5 21 -16.5q14 -17 16 -37.5q2 -20.5 2 -39.5v-333q0 -17 -2 -36q-2 -19 -11 -34q-8 -13 -21.5 -21.5q-13.5 -8.5 -30.5 -8.5q-11 0 -28.5 7q-17.5 7 -34.5 36l0 -183z" />
<glyph unicode="&#255;" horiz-adv-x="220" d="M23 -86q8 -2 15 -2.5q7 -0.5 16 -0.5q8 0 18 2q10 2 16 13q5 9 3 23q-2 14 -6 39l-75 524h68l33 -361h3l28 361h68l-61 -574q-2 -16 -6 -34q-4 -18 -15 -32q-13 -16 -29 -21q-16 -5 -30 -5q-26 0 -46 7zM16 614v86h68v-86zM134 614v86h68l0 -86z" />
<glyph unicode="&#256;" horiz-adv-x="290" d="M182 203l-36 346l-2 1l-36 -347zM203 0l-14 129h-88l-14 -129h-80l88 700h100l88 -700zM58 830h172v-68l-172 0z" />
<glyph unicode="&#257;" horiz-adv-x="238" d="M145 256q-5 -4 -13 -11.5q-8 -7.5 -16.5 -16.5q-8.5 -9 -16 -18.5q-7.5 -9.5 -10.5 -16.5q-2 -5 -4 -16q-2 -11 -2 -34v-42q0 -17 1 -24.5q1 -7.5 3 -12.5q5 -13 18 -13q19 0 29 17q8 12 9.5 22.5q1.5 10.5 1.5 20.5v145zM159 0l-9 31q-5 -9 -12.5 -16.5q-7.5 -7.5 -14.5 -12.5q-10 -7 -20.5 -9.5q-10.5 -2.5 -21.5 -2.5q-16 0 -28 5q-12 5 -22 20q-11 16 -13.5 33.5q-2.5 17.5 -2.5 30.5v75q0 15 1 27q1 12 5.5 24q4.5 12 12.5 24q8 12 22 26q16 16 35 31.5q19 15.5 54 40.5l0 93q0 7 -1 14q-1 7 -4 13q-5 8 -11 10.5q-6 2.5 -14 2.5q-8 0 -14 -2.5q-6 -2.5 -11 -10.5q-3 -6 -4 -13q-1 -7 -1 -14v-81h-68v70q0 19 2.5 40q2.5 21 18.5 41q7 8 25 20q18 12 53 12q19 0 33.5 -4q14.5 -4 23.5 -9.5q9 -5.5 14 -11q5 -5.5 7 -7.5q14 -18 16.5 -41.5q2.5 -23.5 2.5 -40.5v-408zM32 680h172v-68l-172 0z" />
<glyph unicode="&#258;" horiz-adv-x="290" d="M182 203l-36 346l-2 1l-36 -347zM203 0l-14 129h-88l-14 -129h-80l88 700h100l88 -700zM236 840q0 -14 -5 -33.5q-5 -19.5 -22 -35.5q-13 -12 -30 -18q-17 -6 -35 -6q-18 0 -35 6q-17 6 -30 18q-17 16 -22 35.5q-5 19.5 -5 33.5l60 0q0 -7 1 -14.5q1 -7.5 3 -11.5q3 -7 11 -12q8 -5 17 -5q9 0 17 5q8 5 11 12q2 4 3 11.5q1 7.5 1 14.5l60 0z" />
<glyph unicode="&#259;" horiz-adv-x="238" d="M145 256q-5 -4 -13 -11.5q-8 -7.5 -16.5 -16.5q-8.5 -9 -16 -18.5q-7.5 -9.5 -10.5 -16.5q-2 -5 -4 -16q-2 -11 -2 -34v-42q0 -17 1 -24.5q1 -7.5 3 -12.5q5 -13 18 -13q19 0 29 17q8 12 9.5 22.5q1.5 10.5 1.5 20.5v145zM159 0l-9 31q-5 -9 -12.5 -16.5q-7.5 -7.5 -14.5 -12.5q-10 -7 -20.5 -9.5q-10.5 -2.5 -21.5 -2.5q-16 0 -28 5q-12 5 -22 20q-11 16 -13.5 33.5q-2.5 17.5 -2.5 30.5v75q0 15 1 27q1 12 5.5 24q4.5 12 12.5 24q8 12 22 26q16 16 35 31.5q19 15.5 54 40.5l0 93q0 7 -1 14q-1 7 -4 13q-5 8 -11 10.5q-6 2.5 -14 2.5q-8 0 -14 -2.5q-6 -2.5 -11 -10.5q-3 -6 -4 -13q-1 -7 -1 -14v-81h-68v70q0 19 2.5 40q2.5 21 18.5 41q7 8 25 20q18 12 53 12q19 0 33.5 -4q14.5 -4 23.5 -9.5q9 -5.5 14 -11q5 -5.5 7 -7.5q14 -18 16.5 -41.5q2.5 -23.5 2.5 -40.5v-408zM216 700q1 -26 -8 -48.5q-9 -22.5 -23 -37.5q-9 -9 -25.5 -18.5q-16.5 -9.5 -41.5 -10.5q-25 1 -41.5 10.5q-16.5 9.5 -25.5 18.5q-14 15 -23 37.5q-9 22.5 -8 48.5l60 0q0 -8 1 -19q1 -11 3 -18q3 -10 11.5 -17.5q8.5 -7.5 23.5 -8.5q12 0 20 5.5q8 5.5 13 20.5q2 7 3 18q1 11 1 19z" />
<glyph unicode="&#260;" horiz-adv-x="290" d="M182 203l-36 346l-2 1l-36 -347zM282 0q-20 -34 -26 -45.5q-6 -11.5 -8 -15.5q-11 -21 -14.5 -36q-3.5 -15 -3.5 -27q0 -6 0.5 -12.5q0.5 -6.5 5.5 -11.5q5 -6 12.5 -8q7.5 -2 17.5 -2h17v-42h-24q-17 0 -32 3q-15 3 -29 18q-9 9 -14.5 22.5q-5.5 13.5 -5.5 36.5q0 20 6 39q6 19 12 30q5 10 14 23.5q9 13.5 24 27.5l-31 0l-14 129h-88l-14 -129h-80l88 700h100l88 -700z" />
<glyph unicode="&#261;" horiz-adv-x="238" d="M145 256q-5 -4 -13 -11.5q-8 -7.5 -16.5 -16.5q-8.5 -9 -16 -18.5q-7.5 -9.5 -10.5 -16.5q-2 -5 -4 -16q-2 -11 -2 -34v-49q0 -5 0.5 -14q0.5 -9 2.5 -14q2 -6 6.5 -10.5q4.5 -4.5 12.5 -4.5q12 0 19 6q7 6 10 11q7 11 9 21q2 10 2 18v149zM213 0q-8 -13 -18.5 -31q-10.5 -18 -16.5 -30q-9 -19 -13.5 -33.5q-4.5 -14.5 -4.5 -29.5q0 -6 0.5 -12.5q0.5 -6.5 5.5 -11.5q5 -6 12 -8q7 -2 18 -2h17v-42h-24q-17 0 -32 3q-15 3 -29 18q-9 9 -14.5 22.5q-5.5 13.5 -5.5 36.5q0 20 6 39q6 19 12 30q5 10 15 25q10 15 18 26l-9 31q-5 -9 -12.5 -16.5q-7.5 -7.5 -14.5 -12.5q-10 -7 -20.5 -9.5q-10.5 -2.5 -21.5 -2.5q-16 0 -28 5q-12 5 -22 20q-11 16 -13.5 33.5q-2.5 17.5 -2.5 30.5v75q0 15 1 27q1 12 5.5 24q4.5 12 12.5 24q8 12 22 26q16 16 35 31.5q19 15.5 54 40.5l0 93q0 7 -1 14q-1 7 -4 13q-5 8 -11 10.5q-6 2.5 -14 2.5q-8 0 -14 -2.5q-6 -2.5 -11 -10.5q-3 -6 -4 -13q-1 -7 -1 -14v-81h-68v70q0 19 2.5 40q2.5 21 18.5 41q7 8 25 20q18 12 53 12q19 0 33.5 -4q14.5 -4 23.5 -9.5q9 -5.5 14 -11q5 -5.5 7 -7.5q14 -18 16.5 -41.5q2.5 -23.5 2.5 -40.5l0 -408z" />
<glyph unicode="&#262;" horiz-adv-x="295" d="M151 64q15 0 23 6.5q8 6.5 10 11.5q5 9 6.5 24.5q1.5 15.5 1.5 42.5v115h78v-118q0 -45 -7 -70.5q-7 -25.5 -16 -39.5q-10 -14 -32 -30q-22 -16 -63 -16q-38 0 -60.5 16q-22.5 16 -33.5 31q-10 15 -15.5 32q-5.5 17 -7.5 34.5q-2 17.5 -2.5 34q-0.5 16.5 -0.5 29.5v384q0 31 3.5 60q3.5 29 22.5 55q11 14 34 29q23 15 64 15q26 0 48.5 -9q22.5 -9 39.5 -32q11 -15 16.5 -32q5.5 -17 7.5 -34.5q2 -17.5 2 -33.5q0 -16 0 -28v-77h-74v105q0 12 -1.5 27q-1.5 15 -9.5 26q-5 5 -12.5 9.5q-7.5 4.5 -19.5 4.5q-12 0 -19.5 -4.5q-7.5 -4.5 -12.5 -9.5q-8 -11 -9.5 -26q-1.5 -15 -1.5 -27v-420q0 -27 1.5 -42.5q1.5 -15.5 6.5 -24.5q2 -5 10 -11.5q8 -6.5 23 -6.5zt0 0zM55 758l149 109l35 -74l-173 -59z" />
<glyph unicode="&#263;" horiz-adv-x="245" d="M225 118q0 -32 -2.5 -47.5q-2.5 -15.5 -5.5 -24.5q-8 -23 -29 -39.5q-21 -16.5 -62 -16.5q-26 0 -50.5 11q-24.5 11 -38.5 43q-2 5 -7 23q-5 18 -5 56v261q0 25 1.5 48q1.5 23 11.5 41q8 16 29.5 32.5q21.5 16.5 56.5 16.5q26 0 50.5 -10.5q24.5 -10.5 37.5 -39.5q7 -15 9 -37q2 -22 2 -61v-59h-68v96q0 15 -1.5 22.5q-1.5 7.5 -3.5 10.5q-3 5 -9 9.5q-6 4.5 -17 4.5q-12 0 -18 -5q-6 -5 -8 -9q-2 -2 -3.5 -9q-1.5 -7 -1.5 -24v-305q0 -6 1 -17.5q1 -11.5 5 -19.5q8 -15 27 -15q11 0 17 4.5q6 4.5 9 10.5q1 2 3 10q2 8 2 28v89h68zM51 572l103 152l58 -56l-142 -114z" />
<glyph unicode="&#264;" horiz-adv-x="295" d="M151 64q15 0 23 6.5q8 6.5 10 11.5q5 9 6.5 24.5q1.5 15.5 1.5 42.5v115h78v-118q0 -45 -7 -70.5q-7 -25.5 -16 -39.5q-10 -14 -32 -30q-22 -16 -63 -16q-38 0 -60.5 16q-22.5 16 -33.5 31q-10 15 -15.5 32q-5.5 17 -7.5 34.5q-2 17.5 -2.5 34q-0.5 16.5 -0.5 29.5v384q0 31 3.5 60q3.5 29 22.5 55q11 14 34 29q23 15 64 15q26 0 48.5 -9q22.5 -9 39.5 -32q11 -15 16.5 -32q5.5 -17 7.5 -34.5q2 -17.5 2 -33.5q0 -16 0 -28v-77h-74v105q0 12 -1.5 27q-1.5 15 -9.5 26q-5 5 -12.5 9.5q-7.5 4.5 -19.5 4.5q-12 0 -19.5 -4.5q-7.5 -4.5 -12.5 -9.5q-8 -11 -9.5 -26q-1.5 -15 -1.5 -27v-420q0 -27 1.5 -42.5q1.5 -15.5 6.5 -24.5q2 -5 10 -11.5q8 -6.5 23 -6.5zt0 0zM53 772l95 89l94 -89v-36l-94 58l-95 -58z" />
<glyph unicode="&#265;" horiz-adv-x="245" d="M225 118q0 -32 -2.5 -47.5q-2.5 -15.5 -5.5 -24.5q-8 -23 -29 -39.5q-21 -16.5 -62 -16.5q-26 0 -50.5 11q-24.5 11 -38.5 43q-2 5 -7 23q-5 18 -5 56v261q0 25 1.5 48q1.5 23 11.5 41q8 16 29.5 32.5q21.5 16.5 56.5 16.5q26 0 50.5 -10.5q24.5 -10.5 37.5 -39.5q7 -15 9 -37q2 -22 2 -61v-59h-68v96q0 15 -1.5 22.5q-1.5 7.5 -3.5 10.5q-3 5 -9 9.5q-6 4.5 -17 4.5q-12 0 -18 -5q-6 -5 -8 -9q-2 -2 -3.5 -9q-1.5 -7 -1.5 -24v-305q0 -6 1 -17.5q1 -11.5 5 -19.5q8 -15 27 -15q11 0 17 4.5q6 4.5 9 10.5q1 2 3 10q2 8 2 28v89h68zM27 611l95 89l94 -89v-36l-94 58l-95 -58z" />
<glyph unicode="&#266;" horiz-adv-x="295" d="M151 64q15 0 23 6.5q8 6.5 10 11.5q5 9 6.5 24.5q1.5 15.5 1.5 42.5v115h78v-118q0 -45 -7 -70.5q-7 -25.5 -16 -39.5q-10 -14 -32 -30q-22 -16 -63 -16q-38 0 -60.5 16q-22.5 16 -33.5 31q-10 15 -15.5 32q-5.5 17 -7.5 34.5q-2 17.5 -2.5 34q-0.5 16.5 -0.5 29.5v384q0 31 3.5 60q3.5 29 22.5 55q11 14 34 29q23 15 64 15q26 0 48.5 -9q22.5 -9 39.5 -32q11 -15 16.5 -32q5.5 -17 7.5 -34.5q2 -17.5 2 -33.5q0 -16 0 -28v-77h-74v105q0 12 -1.5 27q-1.5 15 -9.5 26q-5 5 -12.5 9.5q-7.5 4.5 -19.5 4.5q-12 0 -19.5 -4.5q-7.5 -4.5 -12.5 -9.5q-8 -11 -9.5 -26q-1.5 -15 -1.5 -27v-420q0 -27 1.5 -42.5q1.5 -15.5 6.5 -24.5q2 -5 10 -11.5q8 -6.5 23 -6.5zt0 0zM101 746v122h93l0 -122z" />
<glyph unicode="&#267;" horiz-adv-x="245" d="M225 118q0 -32 -2.5 -47.5q-2.5 -15.5 -5.5 -24.5q-8 -23 -29 -39.5q-21 -16.5 -62 -16.5q-26 0 -50.5 11q-24.5 11 -38.5 43q-2 5 -7 23q-5 18 -5 56v261q0 25 1.5 48q1.5 23 11.5 41q8 16 29.5 32.5q21.5 16.5 56.5 16.5q26 0 50.5 -10.5q24.5 -10.5 37.5 -39.5q7 -15 9 -37q2 -22 2 -61v-59h-68v96q0 15 -1.5 22.5q-1.5 7.5 -3.5 10.5q-3 5 -9 9.5q-6 4.5 -17 4.5q-12 0 -18 -5q-6 -5 -8 -9q-2 -2 -3.5 -9q-1.5 -7 -1.5 -24v-305q0 -6 1 -17.5q1 -11.5 5 -19.5q8 -15 27 -15q11 0 17 4.5q6 4.5 9 10.5q1 2 3 10q2 8 2 28v89h68zM76 578v122h93l0 -122z" />
<glyph unicode="&#268;" horiz-adv-x="295" d="M151 64q15 0 23 6.5q8 6.5 10 11.5q5 9 6.5 24.5q1.5 15.5 1.5 42.5v115h78v-118q0 -45 -7 -70.5q-7 -25.5 -16 -39.5q-10 -14 -32 -30q-22 -16 -63 -16q-38 0 -60.5 16q-22.5 16 -33.5 31q-10 15 -15.5 32q-5.5 17 -7.5 34.5q-2 17.5 -2.5 34q-0.5 16.5 -0.5 29.5v384q0 31 3.5 60q3.5 29 22.5 55q11 14 34 29q23 15 64 15q26 0 48.5 -9q22.5 -9 39.5 -32q11 -15 16.5 -32q5.5 -17 7.5 -34.5q2 -17.5 2 -33.5q0 -16 0 -28v-77h-74v105q0 12 -1.5 27q-1.5 15 -9.5 26q-5 5 -12.5 9.5q-7.5 4.5 -19.5 4.5q-12 0 -19.5 -4.5q-7.5 -4.5 -12.5 -9.5q-8 -11 -9.5 -26q-1.5 -15 -1.5 -27v-420q0 -27 1.5 -42.5q1.5 -15.5 6.5 -24.5q2 -5 10 -11.5q8 -6.5 23 -6.5zt0 0zM242 825l-95 -89l-94 89v36l94 -58l95 58z" />
<glyph unicode="&#269;" horiz-adv-x="245" d="M225 118q0 -32 -2.5 -47.5q-2.5 -15.5 -5.5 -24.5q-8 -23 -29 -39.5q-21 -16.5 -62 -16.5q-26 0 -50.5 11q-24.5 11 -38.5 43q-2 5 -7 23q-5 18 -5 56v261q0 25 1.5 48q1.5 23 11.5 41q8 16 29.5 32.5q21.5 16.5 56.5 16.5q26 0 50.5 -10.5q24.5 -10.5 37.5 -39.5q7 -15 9 -37q2 -22 2 -61v-59h-68v96q0 15 -1.5 22.5q-1.5 7.5 -3.5 10.5q-3 5 -9 9.5q-6 4.5 -17 4.5q-12 0 -18 -5q-6 -5 -8 -9q-2 -2 -3.5 -9q-1.5 -7 -1.5 -24v-305q0 -6 1 -17.5q1 -11.5 5 -19.5q8 -15 27 -15q11 0 17 4.5q6 4.5 9 10.5q1 2 3 10q2 8 2 28v89h68zM28 700l95 -58l94 58v-36l-94 -89l-95 89z" />
<glyph unicode="&#270;" horiz-adv-x="309" d="M146 74q11 0 25 4q14 4 22 21q2 5 4 16.5q2 11.5 2 40.5v392q0 15 -1.5 32q-1.5 17 -6.5 26q-8 15 -22 17.5q-14 2.5 -22 2.5h-34v-552zM35 700h121q24 0 41 -5q17 -5 29 -12q12 -7 19 -14.5q7 -7.5 10 -12.5q6 -8 14 -32.5q8 -24.5 8 -81.5v-402q0 -22 -5 -50.5q-5 -28.5 -25 -51.5q-20 -24 -44.5 -31q-24.5 -7 -44.5 -7h-123zM249 825l-95 -89l-94 89v36l94 -58l95 58z" />
<glyph unicode="&#271;" horiz-adv-x="290" d="M330 581l-43 -108h-36l30 117h-28v110h77zM93 110q0 -25 1.5 -34.5q1.5 -9.5 4.5 -14.5q5 -7 11 -9q6 -2 11 -2q20 0 28 14q5 8 6.5 19.5q1.5 11.5 1.5 22.5v269q0 5 -1 22.5q-1 17.5 -6 29.5q-10 21 -31 21q-11 0 -15 -3.5q-4 -3.5 -6 -10.5q-4 -10 -4.5 -16.5q-0.5 -6.5 -0.5 -16.5v-291zM225 700v-700h-66v21q-9 -11 -20 -20q-9 -6 -17 -8.5q-8 -2.5 -22 -2.5q-20 0 -37 8.5q-17 8.5 -28 32.5q-7 16 -8.5 33.5q-1.5 17.5 -1.5 38.5v290q0 25 1 45.5q1 20.5 10 37.5q18 34 55 34q12 0 24.5 -3q12.5 -3 22.5 -10q11 -7 17 -16l2 0l0 219z" />
<glyph unicode="&#272;" horiz-adv-x="340" d="M177 74q4 0 10 0.5q6 0.5 13 3q7 2.5 13.5 7.5q6.5 5 10.5 14q2 5 4 15.5q2 10.5 2 41.5v392q0 15 -1.5 32q-1.5 17 -6.5 26q-8 15 -22 17.5q-14 2.5 -22 2.5h-34v-222h56v-74h-56v-256zM66 330h-61v74h61v296h124q38 0 61.5 -14.5q23.5 -14.5 34.5 -29.5q6 -8 14 -32.5q8 -24.5 8 -81.5v-402q0 -22 -5 -50.5q-5 -28.5 -25 -51.5q-20 -24 -44.5 -31q-24.5 -7 -44.5 -7l-123 0z" />
<glyph unicode="&#273;" horiz-adv-x="255" d="M93 110q0 -25 1.5 -34.5q1.5 -9.5 4.5 -14.5q5 -7 11 -9q6 -2 11 -2q20 0 28 14q5 8 6.5 19.5q1.5 11.5 1.5 22.5v269q0 5 -1 22.5q-1 17.5 -6 29.5q-10 21 -31 21q-11 0 -15 -3.5q-4 -3.5 -6 -10.5q-4 -10 -4.5 -16.5q-0.5 -6.5 -0.5 -16.5v-291zM225 700v-50h47v-56h-47v-594h-66v21q-9 -11 -20 -20q-9 -6 -17 -8.5q-8 -2.5 -22 -2.5q-20 0 -37 8.5q-17 8.5 -28 32.5q-7 16 -8.5 33.5q-1.5 17.5 -1.5 38.5v290q0 25 1 45.5q1 20.5 10 37.5q18 34 55 34q12 0 24.5 -3q12.5 -3 22.5 -10q11 -7 17 -16l2 0v113h-91v56h91l0 50z" />
<glyph unicode="&#274;" horiz-adv-x="251" d="M35 700h206v-74h-128v-219h82v-74h-82v-259h128v-74h-206zM48 830h172v-68l-172 0z" />
<glyph unicode="&#275;" horiz-adv-x="246" d="M153 414q0 9 -1 18.5q-1 9.5 -6 15.5q-2 3 -7.5 6.5q-5.5 3.5 -15.5 3.5q-10 0 -15.5 -3.5q-5.5 -3.5 -7.5 -6.5q-5 -6 -6 -15.5q-1 -9.5 -1 -18.5v-114h60zM221 102q0 -32 -5.5 -50q-5.5 -18 -12.5 -28q-8 -12 -26.5 -23q-18.5 -11 -49.5 -11q-30 0 -49 10.5q-19 10.5 -29 22.5q-17 21 -20.5 46.5q-3.5 25.5 -3.5 45.5v283q0 24 2.5 47.5q2.5 23.5 20.5 44.5q12 14 31.5 23q19.5 9 43.5 9q24 0 43.5 -9q19.5 -9 31.5 -23q18 -21 20.5 -44.5q2.5 -23.5 2.5 -47.5v-156h-128v-137q0 -19 2 -27q2 -8 4 -11q8 -13 26 -13q18 0 26 13q2 5 4 13q2 8 2 26v85h64zM36 680h172v-68l-172 0z" />
<glyph unicode="&#278;" horiz-adv-x="251" d="M35 700h206v-74h-128v-219h82v-74h-82v-259h128v-74h-206zM91 746v122h93l0 -122z" />
<glyph unicode="&#279;" horiz-adv-x="246" d="M153 414q0 9 -1 18.5q-1 9.5 -6 15.5q-2 3 -7.5 6.5q-5.5 3.5 -15.5 3.5q-10 0 -15.5 -3.5q-5.5 -3.5 -7.5 -6.5q-5 -6 -6 -15.5q-1 -9.5 -1 -18.5v-114h60zM221 102q0 -32 -5.5 -50q-5.5 -18 -12.5 -28q-8 -12 -26.5 -23q-18.5 -11 -49.5 -11q-30 0 -49 10.5q-19 10.5 -29 22.5q-17 21 -20.5 46.5q-3.5 25.5 -3.5 45.5v283q0 24 2.5 47.5q2.5 23.5 20.5 44.5q12 14 31.5 23q19.5 9 43.5 9q24 0 43.5 -9q19.5 -9 31.5 -23q18 -21 20.5 -44.5q2.5 -23.5 2.5 -47.5v-156h-128v-137q0 -19 2 -27q2 -8 4 -11q8 -13 26 -13q18 0 26 13q2 5 4 13q2 8 2 26v85h64zM76 578v122h93l0 -122z" />
<glyph unicode="&#280;" horiz-adv-x="251" d="M35 700h206v-74h-128v-219h82v-74h-82v-259h128v-74h-2q-19 -24 -35 -54q-7 -14 -11.5 -29q-4.5 -15 -4.5 -41q0 -6 0.5 -12.5q0.5 -6.5 5.5 -11.5q5 -6 12.5 -8q7.5 -2 17.5 -2h17v-42h-24q-17 0 -32 3q-15 3 -29 18q-9 9 -14.5 22.5q-5.5 13.5 -5.5 36.5q0 20 6 39q6 19 12 30q5 10 14 23.5q9 13.5 24 27.5l-157 0z" />
<glyph unicode="&#281;" horiz-adv-x="246" d="M153 414q0 9 -1 18.5q-1 9.5 -6 15.5q-2 3 -7.5 6.5q-5.5 3.5 -15.5 3.5q-10 0 -15.5 -3.5q-5.5 -3.5 -7.5 -6.5q-5 -6 -6 -15.5q-1 -9.5 -1 -18.5v-114h60zM221 102q0 -18 -3 -38q-3 -20 -15 -40q-9 -14 -17.5 -19.5q-8.5 -5.5 -18.5 -7.5q-17 -29 -22.5 -40q-5.5 -11 -9.5 -18q-11 -21 -14.5 -36q-3.5 -15 -3.5 -27q0 -6 0.5 -12.5q0.5 -6.5 5.5 -11.5q5 -6 12.5 -8q7.5 -2 17.5 -2h17v-42h-24q-17 0 -32 3q-15 3 -29 18q-9 9 -14.5 22.5q-5.5 13.5 -5.5 36.5q0 20 6 39q6 19 12 30q4 8 11 19q7 11 18 23q-21 2 -37 11q-16 9 -26 21q-17 21 -20.5 46.5q-3.5 25.5 -3.5 45.5v283q0 24 2.5 47.5q2.5 23.5 20.5 44.5q12 14 31.5 23q19.5 9 43.5 9q24 0 43.5 -9q19.5 -9 31.5 -23q18 -21 20.5 -44.5q2.5 -23.5 2.5 -47.5v-156h-128v-137q0 -19 2 -27q2 -8 4 -11q8 -13 26 -13q18 0 26 13q2 5 4 13q2 8 2 26v85l64 0z" />
<glyph unicode="&#282;" horiz-adv-x="251" d="M35 700h206v-74h-128v-219h82v-74h-82v-259h128v-74h-206zM225 825l-95 -89l-94 89v36l94 -58l95 58z" />
<glyph unicode="&#283;" horiz-adv-x="246" d="M153 414q0 9 -1 18.5q-1 9.5 -6 15.5q-2 3 -7.5 6.5q-5.5 3.5 -15.5 3.5q-10 0 -15.5 -3.5q-5.5 -3.5 -7.5 -6.5q-5 -6 -6 -15.5q-1 -9.5 -1 -18.5v-114h60zM221 102q0 -32 -5.5 -50q-5.5 -18 -12.5 -28q-8 -12 -26.5 -23q-18.5 -11 -49.5 -11q-30 0 -49 10.5q-19 10.5 -29 22.5q-17 21 -20.5 46.5q-3.5 25.5 -3.5 45.5v283q0 24 2.5 47.5q2.5 23.5 20.5 44.5q12 14 31.5 23q19.5 9 43.5 9q24 0 43.5 -9q19.5 -9 31.5 -23q18 -21 20.5 -44.5q2.5 -23.5 2.5 -47.5v-156h-128v-137q0 -19 2 -27q2 -8 4 -11q8 -13 26 -13q18 0 26 13q2 5 4 13q2 8 2 26v85h64zM28 700l95 -58l94 58v-36l-94 -89l-95 89z" />
<glyph unicode="&#284;" horiz-adv-x="300" d="M268 0h-39l-4 46h-3q-7 -20 -22 -35q-11 -10 -23.5 -15.5q-12.5 -5.5 -30.5 -5.5q-29 0 -51 10.5q-22 10.5 -36 27.5q-19 24 -23 52q-4 28 -4 56v437q0 25 5 52q5 27 27 50q15 16 38 25.5q23 9.5 48 9.5q25 0 48 -8q23 -8 39 -25q17 -18 24 -44q7 -26 7 -47v-110h-74v88q0 17 -1 32q-1 15 -9 26q-7 9 -15.5 11.5q-8.5 2.5 -16.5 2.5q-8 0 -16.5 -2.5q-8.5 -2.5 -15.5 -11.5q-8 -11 -9 -26.5q-1 -15.5 -1 -33.5v-432q0 -22 2.5 -33q2.5 -11 6.5 -17q6 -9 14.5 -12.5q8.5 -3.5 17.5 -3.5q22 0 32 16q8 11 9.5 25q1.5 14 1.5 28v158h-46v74h120zM55 772l95 89l94 -89v-36l-94 58l-95 -58z" />
<glyph unicode="&#285;" horiz-adv-x="255" d="M93 -27v-21q0 -9 1 -17q1 -8 5 -16q5 -9 11 -12q6 -3 15 -3q7 0 14 2q7 2 12 11q6 10 6 36v86q-7 -10 -13.5 -15.5q-6.5 -5.5 -14.5 -10.5q-7 -5 -16 -8.5q-9 -3.5 -23 -3.5q-17 0 -30 9.5q-13 9.5 -21 24.5q-10 18 -12 36q-2 18 -2 33v305q0 10 0 23q0 13 2 26q2 13 8 25.5q6 12.5 17 22.5q11 9 21 12.5q10 3.5 19 3.5q11 0 21.5 -4q10.5 -4 21.5 -14q7 -6 11 -12q4 -6 7 -11l2 0v31h70v-511q0 -47 -3 -72.5q-3 -25.5 -13 -40.5q-14 -23 -37 -30.5q-23 -7.5 -43 -7.5q-20 0 -43.5 5.5q-23.5 5.5 -40.5 28.5q-13 18 -16.5 41q-3.5 23 -3.5 48zM93 124q0 -8 1 -20q1 -12 3 -20q4 -14 12 -17.5q8 -3.5 14 -3.5q8 0 15.5 4q7.5 4 12.5 13q4 8 5 17q1 9 1 19v282q0 20 -2 29.5q-2 9.5 -4 13.5q-4 8 -10 13.5q-6 5.5 -17 5.5q-19 0 -26 -17q-4 -8 -4.5 -18q-0.5 -10 -0.5 -19zM32 611l95 89l94 -89v-36l-94 58l-95 -58z" />
<glyph unicode="&#286;" horiz-adv-x="300" d="M268 0h-39l-4 46h-3q-7 -20 -22 -35q-11 -10 -23.5 -15.5q-12.5 -5.5 -30.5 -5.5q-29 0 -51 10.5q-22 10.5 -36 27.5q-19 24 -23 52q-4 28 -4 56v437q0 25 5 52q5 27 27 50q15 16 38 25.5q23 9.5 48 9.5q25 0 48 -8q23 -8 39 -25q17 -18 24 -44q7 -26 7 -47v-110h-74v88q0 17 -1 32q-1 15 -9 26q-7 9 -15.5 11.5q-8.5 2.5 -16.5 2.5q-8 0 -16.5 -2.5q-8.5 -2.5 -15.5 -11.5q-8 -11 -9 -26.5q-1 -15.5 -1 -33.5v-432q0 -22 2.5 -33q2.5 -11 6.5 -17q6 -9 14.5 -12.5q8.5 -3.5 17.5 -3.5q22 0 32 16q8 11 9.5 25q1.5 14 1.5 28v158h-46v74h120zM241 840q0 -14 -5 -33.5q-5 -19.5 -22 -35.5q-13 -12 -30 -18q-17 -6 -35 -6q-18 0 -35 6q-17 6 -30 18q-17 16 -22 35.5q-5 19.5 -5 33.5l60 0q0 -7 1 -14.5q1 -7.5 3 -11.5q3 -7 11 -12q8 -5 17 -5q9 0 17 5q8 5 11 12q2 4 3 11.5q1 7.5 1 14.5l60 0z" />
<glyph unicode="&#287;" horiz-adv-x="255" d="M93 -27v-21q0 -9 1 -17q1 -8 5 -16q5 -9 11 -12q6 -3 15 -3q7 0 14 2q7 2 12 11q6 10 6 36v86q-7 -10 -13.5 -15.5q-6.5 -5.5 -14.5 -10.5q-7 -5 -16 -8.5q-9 -3.5 -23 -3.5q-17 0 -30 9.5q-13 9.5 -21 24.5q-10 18 -12 36q-2 18 -2 33v305q0 10 0 23q0 13 2 26q2 13 8 25.5q6 12.5 17 22.5q11 9 21 12.5q10 3.5 19 3.5q11 0 21.5 -4q10.5 -4 21.5 -14q7 -6 11 -12q4 -6 7 -11l2 0v31h70v-511q0 -47 -3 -72.5q-3 -25.5 -13 -40.5q-14 -23 -37 -30.5q-23 -7.5 -43 -7.5q-20 0 -43.5 5.5q-23.5 5.5 -40.5 28.5q-13 18 -16.5 41q-3.5 23 -3.5 48zM93 124q0 -8 1 -20q1 -12 3 -20q4 -14 12 -17.5q8 -3.5 14 -3.5q8 0 15.5 4q7.5 4 12.5 13q4 8 5 17q1 9 1 19v282q0 20 -2 29.5q-2 9.5 -4 13.5q-4 8 -10 13.5q-6 5.5 -17 5.5q-19 0 -26 -17q-4 -8 -4.5 -18q-0.5 -10 -0.5 -19zM225 700q1 -26 -8 -48.5q-9 -22.5 -23 -37.5q-9 -9 -25.5 -18.5q-16.5 -9.5 -41.5 -10.5q-25 1 -41.5 10.5q-16.5 9.5 -25.5 18.5q-14 15 -23 37.5q-9 22.5 -8 48.5l60 0q0 -8 1 -19q1 -11 3 -18q3 -10 11.5 -17.5q8.5 -7.5 23.5 -8.5q12 0 20 5.5q8 5.5 13 20.5q2 7 3 18q1 11 1 19z" />
<glyph unicode="&#288;" horiz-adv-x="300" d="M268 0h-39l-4 46h-3q-7 -20 -22 -35q-11 -10 -23.5 -15.5q-12.5 -5.5 -30.5 -5.5q-29 0 -51 10.5q-22 10.5 -36 27.5q-19 24 -23 52q-4 28 -4 56v437q0 25 5 52q5 27 27 50q15 16 38 25.5q23 9.5 48 9.5q25 0 48 -8q23 -8 39 -25q17 -18 24 -44q7 -26 7 -47v-110h-74v88q0 17 -1 32q-1 15 -9 26q-7 9 -15.5 11.5q-8.5 2.5 -16.5 2.5q-8 0 -16.5 -2.5q-8.5 -2.5 -15.5 -11.5q-8 -11 -9 -26.5q-1 -15.5 -1 -33.5v-432q0 -22 2.5 -33q2.5 -11 6.5 -17q6 -9 14.5 -12.5q8.5 -3.5 17.5 -3.5q22 0 32 16q8 11 9.5 25q1.5 14 1.5 28v158h-46v74h120zM103 746v122h93l0 -122z" />
<glyph unicode="&#289;" horiz-adv-x="255" d="M93 -27v-21q0 -9 1 -17q1 -8 5 -16q5 -9 11 -12q6 -3 15 -3q7 0 14 2q7 2 12 11q6 10 6 36v86q-7 -10 -13.5 -15.5q-6.5 -5.5 -14.5 -10.5q-7 -5 -16 -8.5q-9 -3.5 -23 -3.5q-17 0 -30 9.5q-13 9.5 -21 24.5q-10 18 -12 36q-2 18 -2 33v305q0 10 0 23q0 13 2 26q2 13 8 25.5q6 12.5 17 22.5q11 9 21 12.5q10 3.5 19 3.5q11 0 21.5 -4q10.5 -4 21.5 -14q7 -6 11 -12q4 -6 7 -11l2 0v31h70v-511q0 -47 -3 -72.5q-3 -25.5 -13 -40.5q-14 -23 -37 -30.5q-23 -7.5 -43 -7.5q-20 0 -43.5 5.5q-23.5 5.5 -40.5 28.5q-13 18 -16.5 41q-3.5 23 -3.5 48zM93 124q0 -8 1 -20q1 -12 3 -20q4 -14 12 -17.5q8 -3.5 14 -3.5q8 0 15.5 4q7.5 4 12.5 13q4 8 5 17q1 9 1 19v282q0 20 -2 29.5q-2 9.5 -4 13.5q-4 8 -10 13.5q-6 5.5 -17 5.5q-19 0 -26 -17q-4 -8 -4.5 -18q-0.5 -10 -0.5 -19zM81 578v122h93l0 -122z" />
<glyph unicode="&#290;" horiz-adv-x="300" d="M268 0h-39l-4 46h-3q-7 -20 -22 -35q-11 -10 -23.5 -15.5q-12.5 -5.5 -30.5 -5.5q-29 0 -51 10.5q-22 10.5 -36 27.5q-19 24 -23 52q-4 28 -4 56v437q0 25 5 52q5 27 27 50q15 16 38 25.5q23 9.5 48 9.5q25 0 48 -8q23 -8 39 -25q17 -18 24 -44q7 -26 7 -47v-110h-74v88q0 17 -1 32q-1 15 -9 26q-7 9 -15.5 11.5q-8.5 2.5 -16.5 2.5q-8 0 -16.5 -2.5q-8.5 -2.5 -15.5 -11.5q-8 -11 -9 -26.5q-1 -15.5 -1 -33.5v-432q0 -22 2.5 -33q2.5 -11 6.5 -17q6 -9 14.5 -12.5q8.5 -3.5 17.5 -3.5q22 0 32 16q8 11 9.5 25q1.5 14 1.5 28v158h-46v74h120zM184 -139l-38 -101h-36l30 108h-24v89l68 0z" />
<glyph unicode="&#291;" horiz-adv-x="255" d="M98 676l43 108h36l-30 -117h28v-110h-77zM93 122q0 -7 1 -17q1 -10 2 -15q3 -16 11 -21.5q8 -5.5 16 -5.5q8 0 15.5 4q7.5 4 12.5 13q4 8 5 17q1 9 1 19v282q0 21 -2 31q-2 10 -4 12q-5 11 -12 15q-7 4 -15 4q-19 0 -26 -17q-2 -6 -3.5 -14q-1.5 -8 -1.5 -22v-285zM93 -27v-21q0 -5 0.5 -15.5q0.5 -10.5 4.5 -17.5q5 -10 13 -12.5q8 -2.5 14 -2.5q8 0 14.5 2.5q6.5 2.5 11.5 10.5q6 10 6 36v86q-7 -10 -13.5 -15.5q-6.5 -5.5 -14.5 -10.5q-7 -5 -16 -8.5q-9 -3.5 -23 -3.5q-14 0 -27 8q-13 8 -23 26q-8 15 -11.5 33q-3.5 18 -3.5 36v305q0 26 4.5 53q4.5 27 22.5 44q9 8 20 12q11 4 21 4q8 0 19 -3.5q11 -3.5 23 -14.5q7 -6 11 -12q4 -6 7 -11l2 0v28h70v-508q0 -47 -3 -72.5q-3 -25.5 -13 -40.5q-14 -23 -37 -30.5q-23 -7.5 -43 -7.5q-20 0 -43.5 5.5q-23.5 5.5 -40.5 28.5q-13 18 -16.5 41q-3.5 23 -3.5 48z" />
<glyph unicode="&#292;" horiz-adv-x="310" d="M113 341v-341h-78v700h78v-285h84v285h78v-700h-78v341zM60 772l95 89l94 -89v-36l-94 58l-95 -58z" />
<glyph unicode="&#293;" horiz-adv-x="260" d="M162 0v389q0 38 -5 52q-6 16 -24 16q-8 0 -16 -4q-8 -4 -14 -17q-4 -8 -4.5 -15.5q-0.5 -7.5 -0.5 -16.5v-404h-68v700h68v-213q9 12 23 21q14 8 26 11q12 3 21 3q34 0 50 -33q6 -12 9 -31q3 -19 3 -52v-406zM-32 748l95 89l94 -89v-36l-94 58l-95 -58z" />
<glyph unicode="&#294;" horiz-adv-x="310" d="M2 616h33v84h78v-84h84v84h78v-84h33v-62h-33v-554h-78v341h-84v-341h-78v554h-33zM197 415v139h-84l0 -139z" />
<glyph unicode="&#295;" horiz-adv-x="260" d="M30 0v588h-60v58h60v54h68v-54h77v-58h-77v-101q9 12 23 21q14 8 26 11q12 3 21 3q34 0 50 -33q6 -12 9 -31q3 -19 3 -52v-406h-68v389q0 29 -1 38.5q-1 9.5 -3 12.5q-4 11 -11 14q-7 3 -14 3q-11 0 -18 -6q-7 -6 -11 -15q-3 -8 -4.5 -17.5q-1.5 -9.5 -1.5 -17.5l0 -401z" />
<glyph unicode="&#298;" horiz-adv-x="148" d="M35 700h78v-700h-78zM-12 830h172v-68l-172 0z" />
<glyph unicode="&#299;" horiz-adv-x="128" d="M30 0v512h68v-512zM-22 680h172v-68l-172 0z" />
<glyph unicode="&#302;" horiz-adv-x="148" d="M34 700h78v-700q-20 -34 -26 -45.5q-6 -11.5 -8 -15.5q-11 -21 -14.5 -36q-3.5 -15 -3.5 -27q0 -6 0.5 -12.5q0.5 -6.5 5.5 -11.5q5 -6 12.5 -8q7.5 -2 17.5 -2h17v-42h-24q-17 0 -32 3q-15 3 -29 18q-9 9 -14.5 22.5q-5.5 13.5 -5.5 36.5q0 20 6 39q6 19 12 30q5 10 14 23.5q9 13.5 24 27.5l-30 0z" />
<glyph unicode="&#303;" horiz-adv-x="128" d="M29 600v100h68v-100zM97 0q-20 -34 -26 -45.5q-6 -11.5 -8 -15.5q-11 -21 -14.5 -36q-3.5 -15 -3.5 -27q0 -6 0.5 -12.5q0.5 -6.5 5.5 -11.5q5 -6 12.5 -8q7.5 -2 17.5 -2h17v-42h-24q-17 0 -32 3q-15 3 -29 18q-9 9 -14.5 22.5q-5.5 13.5 -5.5 36.5q0 20 6 39q6 19 12 30q5 10 14 23.5q9 13.5 24 27.5l-20 0v512h68l0 -512z" />
<glyph unicode="&#304;" horiz-adv-x="148" d="M35 700h78v-700h-78zM28 746v122h93l0 -122z" />
<glyph unicode="&#305;" horiz-adv-x="128" d="M30 0v512h68l0 -512z" />
<glyph unicode="&#308;" horiz-adv-x="281" d="M246 154q0 -13 0 -29q0 -16 -2 -32.5q-2 -16.5 -7 -32.5q-5 -16 -15 -29q-11 -16 -31 -28.5q-20 -12.5 -52 -12.5q-31 0 -55 11.5q-24 11.5 -38 29.5q-11 14 -16.5 30q-5.5 16 -7.5 32q-2 16 -2 31q0 16 0 30v133h70v-153q0 -15 0.5 -28.5q0.5 -13.5 7.5 -24.5q4 -6 11 -11.5q7 -5.5 21 -5.5q12 0 19 4.5q7 4.5 12 12.5q5 10 6 23q1 13 1 30v566h78zM112 772l95 89l94 -89v-36l-94 58l-95 -58z" />
<glyph unicode="&#309;" horiz-adv-x="128" d="M-15 -90h24q7 0 14 7q7 7 7 28v567h68v-552q0 -29 -2.5 -47.5q-2.5 -18.5 -9.5 -31.5q-11 -20 -25.5 -25.5q-14.5 -5.5 -30.5 -5.5h-45zM-31 611l95 89l94 -89v-36l-94 58l-95 -58z" />
<glyph unicode="&#310;" horiz-adv-x="305" d="M35 0v700h78v-297l91 297h83l-106 -331l119 -369h-83l-104 338v-338zM187 -139l-38 -101h-36l30 108h-24v89l68 0z" />
<glyph unicode="&#311;" horiz-adv-x="235" d="M158 0l-58 219h-2v-219h-68v700h68v-387h3l61 199h70l-77 -251l72 -261zM154 -139l-38 -101h-36l30 108h-24v89l68 0z" />
<glyph unicode="&#313;" horiz-adv-x="247" d="M35 0v700h78v-626h129v-74zM31 758l149 109l35 -74l-173 -59z" />
<glyph unicode="&#314;" horiz-adv-x="128" d="M30 0v700h68v-700zM15 758l149 109l35 -74l-173 -59z" />
<glyph unicode="&#315;" horiz-adv-x="247" d="M35 0v700h78v-626h129v-74zM158 -139l-38 -101h-36l30 108h-24v89l68 0z" />
<glyph unicode="&#316;" horiz-adv-x="128" d="M30 0v700h68v-700zM101 -139l-38 -101h-36l30 108h-24v89l68 0z" />
<glyph unicode="&#317;" horiz-adv-x="247" d="M237 581l-43 -108h-36l30 117h-28v110h77zM35 0v700h78v-626h129l0 -74z" />
<glyph unicode="&#318;" horiz-adv-x="157" d="M197 581l-38 -108h-36l30 117h-24v110h68zM30 0v700h68l0 -700z" />
<glyph unicode="&#319;" horiz-adv-x="271" d="M35 0v700h78v-626h129v-74zM165 300v122h93l0 -122z" />
<glyph unicode="&#320;" horiz-adv-x="266" d="M30 0v700h68v-700zM152 301v122h93l0 -122z" />
</font>
</defs>
</svg>
