<?xml version="1.0" encoding="utf-8"?>
<!-- Generator: Adobe Illustrator 18.0.0, SVG Export Plug-In . SVG Version: 6.00 Build 0)  -->
<!DOCTYPE svg PUBLIC "-//W3C//DTD SVG 1.1//EN" "http://www.w3.org/Graphics/SVG/1.1/DTD/svg11.dtd">
<svg version="1.1" id="Layer_1" xmlns="http://www.w3.org/2000/svg" xmlns:xlink="http://www.w3.org/1999/xlink" x="0px" y="0px"
	 viewBox="0 0 96 80.7" enable-background="new 0 0 96 80.7" xml:space="preserve">
<g>
	<path fill="#FFFFFF" d="M14.7,78.3c0-2.4,1-4.5,2.5-6.1v0c1.6-1.6,3.7-2.5,6.1-2.5c2.4,0,4.5,1,6.1,2.5h0c1.6,1.6,2.5,3.7,2.5,6.1
		h-3c0-1.6-0.6-3-1.6-4v0c-1-1-2.4-1.6-4-1.6c-1.6,0-3,0.6-4,1.6c-1,1-1.6,2.4-1.6,4H14.7z"/>
	<path fill="#FFFFFF" d="M63.1,78.3c0-2.4,1-4.5,2.5-6.1v0c1.6-1.6,3.7-2.5,6.1-2.5c2.4,0,4.5,1,6.1,2.5h0c1.6,1.6,2.5,3.7,2.5,6.1
		h-3c0-1.6-0.6-3-1.7-4v0c-1-1-2.4-1.6-4-1.6c-1.6,0-3,0.6-4,1.6h0c-1,1-1.6,2.4-1.6,4H63.1z"/>
	<path fill="#FFFFFF" d="M38.9,78.3c0-2.4,1-4.5,2.5-6.1v0c1.6-1.6,3.7-2.5,6.1-2.5c2.4,0,4.5,1,6.1,2.5c1.6,1.6,2.5,3.7,2.5,6.1h-3
		c0-1.6-0.6-3-1.6-4c-1-1-2.4-1.6-4-1.6c-1.6,0-3,0.6-4,1.6h0c-1,1-1.6,2.4-1.6,4H38.9z"/>
	<polygon fill="#FFFFFF" points="51.4,50.8 49.7,53.4 54.4,54.4 49.5,55.4 50.7,57.9 48.4,56.6 47.5,61.6 46.5,56.4 43.6,58 
		45.3,55.4 40.6,54.4 45.5,53.4 44.3,50.9 46.5,52.2 47.5,47.2 48.5,52.4 	"/>
	<path fill="#FFFFFF" d="M91.4,65.2H64.1c0.9-0.8,1.9-1.7,2.7-2.6h24.7V65.2z M62.1,65.2h-2.8c0,0,0.4-0.4,0.4-0.5
		c6.9-8.1,3.4-14.1-1.6-18.6c-1.8-1.6-3.8-3-5.5-4.2c-2.3-1.7-4.2-3-4.4-3.9l-0.8-3.8L46.7,38c-0.2,0.9-2,2.2-4.4,3.9
		c-1.7,1.2-3.7,2.6-5.5,4.2c-5,4.5-8.5,10.5-1.6,18.6c0.1,0.1,0.4,0.5,0.4,0.5h-2.8c0,0-0.4-0.3-0.6-0.5c-6.8-5.5-6.5-10-3.4-14.1
		c2-2.6,5.1-5.2,8.2-7.7c3.8-3.1,8.3-6.3,10.4-9.8c0,0,0,0,0,0c0,0,0,0,0,0c2.1,3.5,6.6,6.7,10.4,9.8c3.1,2.6,6.2,5.1,8.2,7.7
		c3.1,4.1,3.5,8.6-3.4,14.1C62.5,64.9,62.1,65.2,62.1,65.2 M3.6,65.2v-2.6h24.7c0.8,0.9,1.7,1.8,2.7,2.6H3.6z M17.8,43.1h1.8v4.8
		h-1.8V43.1z M21.3,43.1h1.8v4.8h-1.8V43.1z M24.7,43.1h1.8v4.8h-1.8V43.1z M28.2,43.1H30v3.4l-1.3,1.4h-0.5V43.1z M31.8,43.1h1.8
		v0.2l-1.8,1.6V43.1z M63.2,43.1v1.8l-1.8-1.6v-0.2H63.2z M33.1,29.1h28.7v11.8h-4c-3.8-3.1-8.1-6.3-9.7-9.6v0l-0.7-1.4l-0.7,1.4v0
		c-1.6,3.4-5.9,6.5-9.7,9.6h-4V29.1z M65,43.1h1.8v4.8h-0.5L65,46.5V43.1z M68.5,43.1h1.8v4.8h-1.8V43.1z M71.9,43.1h1.8v4.8h-1.8
		V43.1z M75.4,43.1h1.8v4.8h-1.8V43.1z M78.7,47.9v-6.7c1-0.3,1.7-1.1,1.7-2.2c0-1.3-1-2.3-2.3-2.3c-1.3,0-2.3,1-2.3,2.3
		c0,1.1,0.7,2,1.7,2.2v0.3H64.9v-13h6.5l-13.2-5.7l-5.2-7.9l-5.3-8.1c1.2,0,2.2-1,2.2-2.3c0-1.3-1-2.3-2.3-2.3c-1.3,0-2.3,1-2.3,2.3
		c0,1.2,1,2.2,2.2,2.3l-5.3,8.1l-5.2,7.9l-13.2,5.7h6.5v13H17.5v-0.3c1-0.3,1.7-1.2,1.7-2.2c0-1.3-1-2.3-2.3-2.3
		c-1.3,0-2.3,1-2.3,2.3c0,1.1,0.7,2,1.7,2.2v6.7L1.8,61v5.6h4.1v11.6h2.2V66.7c10.3,0,20.6,0,30.9,0c-1.6-1.8-4.5-4.3-5.7-8.5
		c-1-3.7,0.5-7.1,4.6-10.8c1.7-1.5,3.6-2.9,5.2-4l0.1-0.1c2.1-1.5,3.4-2.5,4.2-3.4c0.8,0.9,2.2,1.9,4.2,3.4l0.1,0.1
		c1.7,1.2,3.5,2.5,5.2,4c4.1,3.7,5.6,7.2,4.6,10.8c-1.2,4.2-4.1,6.7-5.7,8.5c10.3,0,20.6,0,30.9,0v11.6h2.2V66.7h4.1V61L78.7,47.9z"
		/>
</g>
</svg>
