<?xml version="1.0" encoding="utf-8"?>
<!-- Generator: Adobe Illustrator 18.0.0, SVG Export Plug-In . SVG Version: 6.00 Build 0)  -->
<!DOCTYPE svg PUBLIC "-//W3C//DTD SVG 1.1//EN" "http://www.w3.org/Graphics/SVG/1.1/DTD/svg11.dtd">
<svg version="1.1" id="Layer_1" xmlns="http://www.w3.org/2000/svg" xmlns:xlink="http://www.w3.org/1999/xlink" x="0px" y="0px"
	 viewBox="0 0 107 35" enable-background="new 0 0 107 35" xml:space="preserve">
<g>
	<path fill="#FFFFFF" d="M56.9,17.8c-0.2,0.1-0.4,0.3-0.5,0.5c-0.1,0.2-0.2,0.5-0.2,0.7c0,0.3,0.1,0.5,0.2,0.7
		c0.1,0.2,0.3,0.4,0.5,0.5c0.2,0.1,0.5,0.2,0.7,0.2c0.3,0,0.5-0.1,0.7-0.2c0.2-0.1,0.4-0.3,0.5-0.5c0.1-0.2,0.2-0.5,0.2-0.7
		c0-0.3-0.1-0.5-0.2-0.7c-0.1-0.2-0.3-0.4-0.5-0.5c-0.2-0.1-0.5-0.2-0.7-0.2C57.4,17.6,57.2,17.7,56.9,17.8L56.9,17.8z M58.3,18.1
		c0.2,0.1,0.3,0.2,0.4,0.4c0.1,0.2,0.2,0.4,0.2,0.6c0,0.2-0.1,0.4-0.2,0.6c-0.1,0.2-0.3,0.3-0.4,0.4c-0.2,0.1-0.4,0.2-0.6,0.2
		c-0.2,0-0.4-0.1-0.6-0.2c-0.2-0.1-0.3-0.3-0.4-0.4c-0.1-0.2-0.2-0.4-0.2-0.6c0-0.2,0.1-0.4,0.2-0.6c0.1-0.2,0.3-0.3,0.4-0.4
		c0.2-0.1,0.4-0.2,0.6-0.2C57.9,17.9,58.1,18,58.3,18.1L58.3,18.1z M57.3,19.9v-0.6h0.1c0.1,0,0.2,0,0.2,0.1c0.1,0,0.1,0.2,0.2,0.3
		l0.1,0.3h0.4l-0.2-0.3c-0.1-0.1-0.1-0.2-0.1-0.2c0-0.1-0.1-0.1-0.1-0.1c0,0-0.1,0-0.1-0.1c0.1,0,0.2-0.1,0.3-0.2
		c0.1-0.1,0.1-0.2,0.1-0.3c0-0.1,0-0.2-0.1-0.2c0-0.1-0.1-0.1-0.1-0.2c-0.1,0-0.1-0.1-0.2-0.1c0,0-0.2,0-0.5,0H57v1.6H57.3
		L57.3,19.9z M57.3,18.6h0.1c0.2,0,0.3,0,0.3,0c0,0,0.1,0,0.1,0.1c0,0,0,0.1,0,0.1c0,0,0,0.1,0,0.1c0,0-0.1,0.1-0.1,0.1
		c0,0-0.2,0-0.3,0h-0.1V18.6L57.3,18.6z"/>
	<path fill="#FFFFFF" d="M40.6,34L39.3,28c-0.3,0.5-0.6,0.9-0.8,1.3c-0.2,0.4-0.4,0.8-0.5,1.2c-0.1,0.4-0.2,0.8-0.2,1.3
		c0,0.3,0,0.6,0.1,1.1c0.1,0.5,0.1,0.7,0.1,0.8v0.6c0,0.1-0.1,0.2-0.2,0.2c-0.1,0-0.2,0-0.3,0c-0.1,0-0.2,0-0.4,0
		c-0.1,0-0.2,0-0.3,0c-0.2,0-0.3,0-0.4,0c-0.1,0-0.2,0-0.2,0c-0.1,0-0.3-0.1-0.3-0.2c-0.1-0.1-0.1-0.3-0.1-0.7c0-0.6,0.1-1,0.2-1.5
		c0.2-0.5,0.4-0.9,0.6-1.3c0.2-0.4,0.6-0.9,1-1.5c0.4-0.6,0.8-1.1,1-1.4c0.2-0.4,0.3-0.7,0.3-1.1c0-0.3-0.7-0.3-0.9-0.3v-0.5h3.4
		v0.5h-0.7l1.5,7l1.3-7h-0.5v-0.5h3.2v0.5h-0.8l1.6,7.4H48v0.5h-3.2V34h0.5L44,27.8L42.8,34h0.6v0.5H40V34H40.6L40.6,34z"/>
	<path fill="#FFFFFF" d="M5,33.6v-14H4.3H3.9c-0.3,0-0.6,0.1-0.8,0.2c-0.2,0.1-0.4,0.4-0.6,0.9c-0.2,0.5-0.4,1.2-0.6,2.2
		c-0.1,0.5-0.2,0.8-0.2,0.9C1.7,24,1.5,24,1.4,24C1.2,24,1,23.9,1,23.8c-0.1-0.2-0.1-0.4-0.1-0.8c0-0.6-0.1-1.3-0.3-2
		c0-0.2-0.1-0.5-0.3-0.9C0.1,19.6,0,19.3,0,19.2c0-0.2,0.1-0.4,0.2-0.6c0.1-0.2,0.3-0.3,0.6-0.3c0.1,0,0.2,0,0.5,0.1
		c0.2,0.1,0.5,0.1,0.8,0.2c0.3,0,0.6,0.1,1.1,0.1c0.1,0,0.2,0,0.3,0c0.1,0,0.2,0,0.3,0H9c0.1,0,0.2,0,0.3,0c0.1,0,0.2,0,0.3,0
		c0.5,0,0.8,0,1.1-0.1c0.3,0,0.5-0.1,0.8-0.2c0.2-0.1,0.4-0.1,0.5-0.1c0.3,0,0.4,0.1,0.6,0.3c0.1,0.2,0.2,0.4,0.2,0.6
		c0,0.2-0.1,0.5-0.2,0.9c-0.1,0.4-0.3,0.7-0.3,1c-0.2,0.7-0.3,1.4-0.3,2c0,0.7-0.2,1-0.5,1c-0.1,0-0.2-0.1-0.3-0.2
		c-0.1-0.1-0.1-0.3-0.2-0.4c0-0.2-0.1-0.6-0.3-1.3c-0.2-0.8-0.3-1.4-0.5-1.7c-0.2-0.4-0.4-0.6-0.7-0.7c-0.2-0.1-0.6-0.2-1-0.2H7.8
		v14h1.5v1H3.6v-1H5L5,33.6z"/>
	<path fill="#FFFFFF" d="M31.9,31.8v0.5c1,0,0.5,0.7-0.1,1.3c-0.3,0.4-0.9,0.5-1.6,0.5c-0.2,0-0.3,0-0.4-0.1
		c0.1-0.2,0.1-0.4,0.1-0.6c0-0.4,0-0.7-0.1-0.9c-0.1-0.2-0.1-0.6-0.3-1c-0.1-0.4-0.2-0.8-0.3-1.4h5.6v-0.5h0c-0.1-1-0.4-2.3-1.2-3
		c-0.4-0.3-0.8-0.5-1.2-0.6c-0.4-0.1-0.8-0.2-1.2-0.2c-0.7,0-1.3,0.1-1.9,0.4c-0.6,0.2-1.1,0.6-1.6,1.2c-0.4,0.6-0.6,1.3-0.6,2.3
		c0,0.3,0,0.6,0.1,0.8c0.1,0.2,0.2,0.5,0.4,0.8c0.2,0.3,0.5,0.7,0.8,1.1c0.2,0.3,0.4,0.6,0.5,0.8c0.1,0.2,0.2,0.5,0.2,0.8
		c0,0.1,0,0.2,0,0.3c0.2,0.1,0.6,0.1,0.9,0.2c0.4,0,0.7,0.1,1,0.1c0.5,0,0.9-0.1,1.4-0.3c0.4-0.2,0.9-0.5,1.2-0.8
		c0.5-0.5,0.6-1.1,1.3-1.2v-0.5H31.9L31.9,31.8z M29.2,29c0-0.4,0.1-0.8,0.2-1.3c0.1-0.4,0.3-0.7,0.6-1c0.3-0.3,0.6-0.4,1-0.4
		c0.5,0,0.9,0.1,1.1,0.4c0.4,0.5,0.8,1.7,0.6,2.8h-3.4C29.2,29.4,29.2,29.2,29.2,29L29.2,29z"/>
	<path fill="#FFFFFF" d="M25.9,27.2c-0.2-0.4-0.6-0.7-1-0.9c-0.5-0.2-1-0.3-1.6-0.3c-0.6,0-1.2,0.2-1.7,0.5
		c-0.5,0.3-0.9,0.8-1.1,1.3c0,0.6,0,1.2,0,1.8v3.6c0,0.9-0.5,0.8-1,0.8c0,0.2,0,0.3,0,0.5h3.8V34c-0.3,0-1,0.2-1-0.8
		c0-0.6,0-0.8,0-1.4l0.8-1.1c0.1,0,0.1,0.1,0.3,0.1c0.2,0.1,0.4,0.2,0.5,0.2c0.1,0,0.3,0.1,0.5,0.1c0.4,0,0.7-0.1,1-0.3
		c0.7-0.3,1-1.8,1-2.4C26.2,28,26.1,27.6,25.9,27.2L25.9,27.2z M23.9,30c-0.2,0.2-0.3,0.3-0.5,0.3c0,0-0.1,0-0.2-0.1
		c-0.1,0-0.2-0.1-0.2-0.1l-0.8,1v-2v-0.3c0-0.5,0-0.8,0.1-1.1c0-0.3,0.1-0.6,0.3-0.8c0.1-0.2,0.4-0.3,0.7-0.3c0.4,0,0.7,0.2,0.8,0.5
		c0.1,0.3,0.2,0.8,0.2,1.4C24.1,29,24,29.8,23.9,30L23.9,30z"/>
	<path fill="#FFFFFF" d="M15.4,31.8v0.5c1,0,0.5,0.7-0.1,1.3c-0.3,0.4-0.9,0.5-1.6,0.5c-0.2,0-0.3,0-0.4-0.1
		c0.1-0.2,0.1-0.4,0.1-0.6c0-0.4,0-0.7-0.1-0.9c-0.1-0.2-0.1-0.6-0.3-1c-0.1-0.4-0.2-0.8-0.3-1.4h5.6v-0.5h0c-0.1-1-0.4-2.3-1.2-3
		c-0.4-0.3-0.8-0.5-1.2-0.6c-0.4-0.1-0.8-0.2-1.2-0.2c-0.7,0-1.3,0.1-1.9,0.4c-0.6,0.2-1.1,0.6-1.6,1.2c-0.4,0.6-0.6,1.3-0.6,2.3
		c0,0.3,0,0.6,0.1,0.8c0.1,0.2,0.2,0.5,0.4,0.8c0.2,0.3,0.5,0.7,0.8,1.1c0.2,0.3,0.4,0.6,0.5,0.8c0.1,0.2,0.2,0.5,0.2,0.8
		c0,0.1,0,0.2,0,0.3c0.2,0.1,0.6,0.1,0.9,0.2c0.4,0,0.7,0.1,1,0.1c0.5,0,0.9-0.1,1.4-0.3c0.4-0.2,0.9-0.5,1.2-0.8
		c0.5-0.5,0.6-1.1,1.3-1.2v-0.5H15.4L15.4,31.8z M12.8,29c0-0.4,0.1-0.8,0.2-1.3c0.1-0.4,0.3-0.7,0.6-1c0.3-0.3,0.6-0.4,1-0.4
		c0.5,0,0.9,0.1,1.1,0.4c0.4,0.5,0.8,1.7,0.6,2.8h-3.4C12.8,29.4,12.8,29.2,12.8,29L12.8,29z"/>
	<path fill="#FFFFFF" d="M58.7,27.3c-0.1-0.2-0.4-0.4-0.8-0.4c-0.3,0-0.5,0-0.7,0c-0.6,0-1.2-0.2-1.8-0.5c-0.7-0.3-1.2-0.8-1.7-1.3
		l0-5.5H55l0-1h-7c-0.2,0-0.5-0.1-0.9-0.2c0,0-0.3-0.1-0.5-0.1c-0.2,0-0.4,0.1-0.5,0.1c-0.1,0.1-0.3,0.3-0.3,0.7
		c0,0.6,0.4,1.5,0.5,1.7c0.1,0.7,0.3,0.8,0.3,1.7c0,0.5,0.1,0.9,0.1,1.2c0.1,0.2,0.2,0.3,0.4,0.3c0.2,0,0.3,0,0.3-0.2
		c0.1-0.1,0.1-0.4,0.2-0.8c0.2-0.9,0.3-1.5,0.5-2.1c0.4-1.4,1-1.4,1.6-1.4H51l0,14h-1.5v1h8.4c0.2,0,0.4,0,0.5-0.1
		c0.1-0.1,0.2-0.2,0.3-0.4c0.1-0.2,0.1-0.6,0.1-1.1v-4.6C58.9,27.9,58.8,27.5,58.7,27.3L58.7,27.3z M56.4,32.3
		c0,0.6-0.1,0.9-0.3,1.1c-0.2,0.1-0.5,0.2-0.9,0.2h-1.4v-7.2c0.5,0.6,1.1,1.1,1.8,1.4c0.4,0.2,0.6,0.3,0.7,0.5
		c0.1,0.1,0.1,0.4,0.1,0.8c0,0.2,0,0.3,0,0.3c0,0,0,0.1,0,0.3V32.3L56.4,32.3z"/>
	<path fill="#FFFFFF" d="M19.1,24c0-0.8,0.3-1.4,0.8-1.9v0c0.5-0.5,1.2-0.8,1.9-0.8c0.8,0,1.4,0.3,1.9,0.8h0
		c0.5,0.5,0.8,1.2,0.8,1.9h-0.9c0-0.5-0.2-0.9-0.5-1.3v0c-0.3-0.3-0.8-0.5-1.3-0.5c-0.5,0-0.9,0.2-1.3,0.5l0,0
		C20.2,23.1,20,23.5,20,24H19.1L19.1,24L19.1,24z"/>
	<path fill="#FFFFFF" d="M34.3,24c0-0.8,0.3-1.4,0.8-1.9v0c0.5-0.5,1.2-0.8,1.9-0.8c0.8,0,1.4,0.3,1.9,0.8h0
		c0.5,0.5,0.8,1.2,0.8,1.9h-0.9c0-0.5-0.2-0.9-0.5-1.3v0c-0.3-0.3-0.8-0.5-1.3-0.5c-0.5,0-0.9,0.2-1.3,0.5h0
		c-0.3,0.3-0.5,0.8-0.5,1.3H34.3L34.3,24L34.3,24z"/>
	<path fill="#FFFFFF" d="M26.7,24c0-0.8,0.3-1.4,0.8-1.9v0c0.5-0.5,1.2-0.8,1.9-0.8c0.8,0,1.4,0.3,1.9,0.8c0.5,0.5,0.8,1.2,0.8,1.9
		h-0.9c0-0.5-0.2-0.9-0.5-1.3c-0.3-0.3-0.8-0.5-1.3-0.5c-0.5,0-0.9,0.2-1.3,0.5h0c-0.3,0.3-0.5,0.8-0.5,1.3H26.7L26.7,24L26.7,24z"
		/>
	<polygon fill="#FFFFFF" points="30.7,15.3 30.1,16.2 31.6,16.5 30.1,16.8 30.5,17.6 29.7,17.2 29.4,18.7 29.1,17.1 28.2,17.6 
		28.7,16.8 27.3,16.5 28.8,16.2 28.4,15.4 29.1,15.8 29.4,14.2 29.7,15.8 30.7,15.3 	"/>
	<path fill="#FFFFFF" d="M39.3,14.4v-2.1c0.3-0.1,0.5-0.4,0.5-0.7c0-0.4-0.3-0.7-0.7-0.7c-0.4,0-0.7,0.3-0.7,0.7
		c0,0.3,0.2,0.6,0.5,0.7v0.1h-4V8.3H37l-4.2-1.8L31.1,4l-1.7-2.6c0.4,0,0.7-0.3,0.7-0.7c0-0.4-0.3-0.7-0.7-0.7
		c-0.4,0-0.7,0.3-0.7,0.7c0,0.4,0.3,0.7,0.7,0.7L27.7,4l-1.6,2.5l-4.2,1.8h2.1v4.1h-4v-0.1c0.3-0.1,0.5-0.4,0.5-0.7
		c0-0.4-0.3-0.7-0.7-0.7c-0.4,0-0.7,0.3-0.7,0.7c0,0.3,0.2,0.6,0.5,0.7v2.1L15,18.6v1.8h1.3V24H17v-3.7c3.2,0,6.5,0,9.7,0
		c-0.5-0.6-1.4-1.4-1.8-2.7c-0.3-1.2,0.2-2.3,1.5-3.4c0.5-0.5,1.1-0.9,1.6-1.3l0,0c0.6-0.5,1.1-0.8,1.3-1.1c0.3,0.3,0.7,0.6,1.3,1.1
		l0,0c0.5,0.4,1.1,0.8,1.6,1.3c1.3,1.2,1.8,2.3,1.5,3.4c-0.4,1.3-1.3,2.1-1.8,2.7c3.2,0,6.5,0,9.7,0V24h0.7v-3.7h1.3v-1.8L39.3,14.4
		z M38.2,12.9h0.6v1.5h-0.6V12.9z M37.1,12.9h0.6v1.5h-0.6V12.9z M36.1,12.9h0.6v1.5h-0.6V12.9z M34.9,12.9h0.6v1.5h-0.2L34.9,14
		V12.9z M24.9,8.5H34v3.7h-1.3c-1.2-1-2.6-2-3.1-3v0l-0.2-0.5l-0.2,0.5v0c-0.5,1.1-1.9,2.1-3.1,3h-1.3V8.5z M34.4,12.9v0.6L33.8,13
		v-0.1H34.4z M24.5,12.9H25V13l-0.6,0.5V12.9z M23.3,12.9h0.6V14l-0.4,0.4h-0.2V12.9z M22.2,12.9h0.6v1.5h-0.6V12.9z M21.1,12.9h0.6
		v1.5h-0.6V12.9z M20,12.9h0.6v1.5H20V12.9z M15.6,19.9V19h7.8c0.3,0.3,0.5,0.6,0.8,0.8H15.6z M34,19.9h-0.9c0,0,0.1-0.1,0.1-0.1
		c2.2-2.6,1.1-4.5-0.5-5.9c-0.6-0.5-1.2-0.9-1.7-1.3c-0.7-0.5-1.3-1-1.4-1.2l-0.3-1.2l-0.3,1.2c0,0.3-0.6,0.7-1.4,1.2
		c-0.5,0.4-1.2,0.8-1.7,1.3c-1.6,1.4-2.7,3.3-0.5,5.9c0,0,0.1,0.1,0.1,0.1h-0.9c0,0-0.1-0.1-0.2-0.2c-2.2-1.7-2-3.2-1.1-4.5
		c0.6-0.8,1.6-1.6,2.6-2.4c1.2-1,2.6-2,3.3-3.1c0,0,0,0,0,0c0,0,0,0,0,0c0.7,1.1,2.1,2.1,3.3,3.1c1,0.8,2,1.6,2.6,2.4
		c1,1.3,1.1,2.7-1.1,4.5C34.2,19.8,34,19.9,34,19.9z M43.3,19.9h-8.6c0.3-0.2,0.6-0.5,0.8-0.8h7.8V19.9z"/>
	<g>
		<path fill="#FFFFFF" d="M68.4,23.6c0,0.3-0.1,0.7-0.4,1c-0.3,0.2-0.7,0.4-1.1,0.4c-0.4,0-0.8-0.1-1.1-0.4
			c-0.4-0.4-0.4-0.8-0.4-1.2V20c0-0.4,0.1-0.7,0.4-1c0.3-0.3,0.7-0.4,1.1-0.4c0.5,0,0.8,0.2,1.1,0.4c0.4,0.4,0.5,0.8,0.5,1.1v0.7h-1
			V20c0-0.1,0-0.3-0.1-0.4c-0.1-0.1-0.2-0.1-0.4-0.1c-0.2,0-0.3,0.1-0.4,0.1c-0.1,0.1-0.2,0.3-0.2,0.5v3.5c0,0.2,0,0.3,0.1,0.4
			c0.1,0.1,0.3,0.2,0.4,0.2c0.1,0,0.3,0,0.4-0.2c0.1-0.1,0.1-0.3,0.1-0.4v-1h1V23.6z"/>
		<path fill="#FFFFFF" d="M69.7,24.9v-5.4h-1.1v-0.9h3.2v0.9h-1.1v5.4H69.7z"/>
		<path fill="#FFFFFF" d="M72.2,24.9v-6.2h1.7c0.4,0,0.8,0.2,1,0.4c0.3,0.3,0.3,0.7,0.3,1v0.9c0,0.3,0,0.7-0.3,1
			c-0.2,0.2-0.5,0.3-0.9,0.3c-0.2,0-0.5,0-0.8,0v2.6H72.2z M73.7,21.4c0.1,0,0.3,0,0.4-0.2c0,0,0-0.1,0-0.5v-0.7
			c0-0.1,0-0.3-0.1-0.4c-0.1-0.1-0.3-0.2-0.4-0.2h-0.5v1.9H73.7z"/>
		<path fill="#FFFFFF" d="M78.7,23.5c0,0.4,0,0.7-0.4,1.1c-0.4,0.3-0.8,0.4-1.1,0.4c-0.3,0-0.8-0.1-1.1-0.4
			c-0.4-0.4-0.4-0.7-0.4-1.1V20c0-0.4,0-0.7,0.4-1.1c0.4-0.3,0.8-0.4,1.1-0.4c0.3,0,0.8,0.1,1.1,0.4c0.4,0.4,0.4,0.7,0.4,1.1V23.5z
			 M76.6,23.5c0,0.1,0,0.3,0.1,0.4c0.1,0.2,0.3,0.2,0.4,0.2s0.3,0,0.4-0.2c0.1-0.1,0.1-0.3,0.1-0.4v-3.4c0-0.1,0-0.3-0.1-0.4
			c-0.1-0.2-0.3-0.2-0.4-0.2s-0.3,0-0.4,0.2c-0.1,0.1-0.1,0.3-0.1,0.4V23.5z"/>
		<path fill="#FFFFFF" d="M81.3,24.9v-3.1l0-0.5l-1.1,2.4v1.1h-1v-6.2h1v2.9l0,0.5l1.1-2.4v-1h1v6.2H81.3z"/>
		<path fill="#FFFFFF" d="M83.8,24.9v-5.4h-1.1v-0.9h3.2v0.9h-1.1v5.4H83.8z"/>
		<path fill="#FFFFFF" d="M86.2,18.6h2.6v0.9h-1.6V21h1.2v0.9h-1.2V24H89v0.9h-2.7V18.6z"/>
		<path fill="#FFFFFF" d="M91.7,24.9v-5.4h-0.8v2.1c0,1.2,0,2.2-0.4,2.8c-0.3,0.4-0.7,0.5-1,0.5h-0.4V24c0.2,0,0.4-0.1,0.5-0.2
			c0.2-0.2,0.2-0.6,0.2-1.5v-3.7h2.9v6.2H91.7z"/>
		<path fill="#FFFFFF" d="M93.4,18.6h1v2.4h0.5c0.3,0,0.7,0,1,0.3c0.5,0.3,0.5,0.9,0.5,1.3v0.7c0,0.3,0,0.9-0.4,1.2
			c-0.1,0.1-0.4,0.3-0.9,0.3h-1.7V18.6z M94.4,24h0.5c0.1,0,0.3,0,0.4-0.2c0.1-0.1,0.1-0.3,0.1-0.4v-0.8c0-0.1,0-0.3-0.1-0.5
			c-0.1-0.2-0.3-0.3-0.5-0.3h-0.4V24z"/>
		<path fill="#FFFFFF" d="M97.8,21.9v3h-1v-6.2h1V21h1.1v-2.4h1v6.2h-1v-3H97.8z"/>
		<path fill="#FFFFFF" d="M102.7,24.9l-0.2-1.1h-1.1l-0.2,1.1h-1.1l1.1-6.2h1.2l1.1,6.2H102.7z M102.4,22.9l-0.4-2.5h0l-0.4,2.5
			H102.4z"/>
		<path fill="#FFFFFF" d="M106,24.9v-2.8h-0.2c-0.2,0-0.4,0-0.5,0.2c-0.1,0.1-0.1,0.3-0.1,0.4V24c0,0.4,0,0.7-0.2,0.9h-1.1v0
			c0.2-0.3,0.3-0.6,0.3-0.8v-1.5c0-0.2,0-0.4,0.2-0.6c0.1-0.1,0.3-0.2,0.5-0.3v0c-0.1,0-0.3-0.1-0.5-0.3c-0.2-0.3-0.3-0.6-0.3-0.8
			v-0.6c0-0.3,0-0.7,0.4-1c0.4-0.3,0.9-0.3,1-0.3h1.6v6.2H106z M106,19.5h-0.4c-0.2,0-0.3,0-0.4,0.1c-0.1,0.1-0.1,0.3-0.1,0.4v0.4
			c0,0.2,0,0.3,0.1,0.4c0.1,0.1,0.2,0.3,0.5,0.3h0.4V19.5z"/>
		<path fill="#FFFFFF" d="M65.3,34.6v-6.2h1v2.4h0.3c0.2,0,0.3-0.1,0.4-0.6l0.2-1.1c0.1-0.3,0.2-0.5,0.4-0.6
			c0.2-0.1,0.4-0.1,0.7-0.1h0.3v0.9h-0.2c-0.2,0-0.3,0.2-0.3,0.3l-0.2,1.1c0,0.3-0.1,0.5-0.3,0.7l1,3.2h-1l-0.9-2.9h-0.4v2.9H65.3z"
			/>
		<path fill="#FFFFFF" d="M72.1,33.2c0,0.4,0,0.7-0.4,1.1c-0.4,0.3-0.8,0.4-1.1,0.4c-0.3,0-0.8-0.1-1.1-0.4C69,33.9,69,33.5,69,33.2
			v-3.5c0-0.4,0-0.7,0.4-1.1c0.4-0.3,0.8-0.4,1.1-0.4c0.3,0,0.8,0.1,1.1,0.4c0.4,0.4,0.4,0.7,0.4,1.1V33.2z M70,33.2
			c0,0.1,0,0.3,0.1,0.4c0.1,0.2,0.3,0.2,0.4,0.2s0.3,0,0.4-0.2c0.1-0.1,0.1-0.3,0.1-0.4v-3.4c0-0.1,0-0.3-0.1-0.4
			c-0.1-0.2-0.3-0.2-0.4-0.2s-0.3,0-0.4,0.2C70,29.4,70,29.6,70,29.7V33.2z"/>
		<path fill="#FFFFFF" d="M74.4,34.6l-0.7-4.7h0l0.1,0.8v3.9h-1v-6.2h1.6l0.6,4h0l0.6-4h1.6v6.2h-1v-3.9l0.1-0.8h0l-0.7,4.7H74.4z"
			/>
		<path fill="#FFFFFF" d="M79.8,34.6v-5.4h-1.1v5.4h-1v-6.2h3.1v6.2H79.8z"/>
		<path fill="#FFFFFF" d="M83.6,34.6l-0.2-1.1h-1.1l-0.2,1.1h-1.1l1.1-6.2h1.2l1.1,6.2H83.6z M83.3,32.5l-0.4-2.5h0l-0.4,2.5H83.3z"
			/>
		<path fill="#FFFFFF" d="M86,31.6v3h-1v-6.2h1v2.4H87v-2.4h1v6.2h-1v-3H86z"/>
		<path fill="#FFFFFF" d="M90.7,34.6v-3.1l0-0.5l-1.1,2.4v1.1h-1v-6.2h1v2.9l0,0.5l1.1-2.4v-1h1v6.2H90.7z"/>
		<path fill="#FFFFFF" d="M94.3,34.6v-2.8H94c-0.2,0-0.4,0-0.5,0.2c-0.1,0.1-0.1,0.3-0.1,0.4v1.4c0,0.4,0,0.7-0.2,0.9h-1.1v0
			c0.2-0.3,0.3-0.6,0.3-0.8v-1.5c0-0.2,0-0.4,0.2-0.6c0.1-0.1,0.3-0.2,0.5-0.3v0c-0.1,0-0.3-0.1-0.5-0.3c-0.2-0.3-0.3-0.6-0.3-0.8
			v-0.6c0-0.3,0-0.7,0.4-1c0.4-0.3,0.9-0.3,1-0.3h1.6v6.2H94.3z M94.3,29.2h-0.4c-0.2,0-0.3,0-0.4,0.1c-0.1,0.1-0.1,0.3-0.1,0.4v0.4
			c0,0.2,0,0.3,0.1,0.4c0.1,0.1,0.2,0.3,0.5,0.3h0.4V29.2z"/>
	</g>
</g>
</svg>
