<?xml version="1.0" encoding="utf-8"?>
<!-- Generator: Adobe Illustrator 18.0.0, SVG Export Plug-In . SVG Version: 6.00 Build 0)  -->
<!DOCTYPE svg PUBLIC "-//W3C//DTD SVG 1.1//EN" "http://www.w3.org/Graphics/SVG/1.1/DTD/svg11.dtd">
<svg version="1.1" id="Layer_1" xmlns="http://www.w3.org/2000/svg" xmlns:xlink="http://www.w3.org/1999/xlink" x="0px" y="0px"
	 viewBox="0 0 300 290" enable-background="new 0 0 300 290" xml:space="preserve">
<g>
	<rect fill="#AD0E1E" width="300" height="290"/>
	<g>
		<path fill="#FFFFFF" d="M267.9,120.1h0.5c0.8,0,1.3,0,1.5,0.1c0.2,0.1,0.3,0.2,0.5,0.3c0.1,0.1,0.2,0.3,0.2,0.5
			c0,0.2-0.1,0.4-0.2,0.5c-0.1,0.2-0.3,0.3-0.4,0.3c-0.2,0.1-0.7,0.1-1.5,0.1h-0.5V120.1z M267.9,125.7V123h0.4
			c0.4,0,0.7,0.1,0.9,0.3c0.2,0.2,0.6,0.7,0.9,1.4l0.6,1.1h1.7l-0.8-1.3c-0.3-0.5-0.4-0.7-0.5-0.8c-0.2-0.3-0.3-0.4-0.4-0.5
			c-0.1-0.1-0.3-0.2-0.5-0.2c0.6-0.1,1-0.3,1.3-0.6c0.3-0.3,0.5-0.8,0.5-1.2c0-0.3-0.1-0.7-0.3-1c-0.2-0.3-0.4-0.5-0.6-0.6
			c-0.2-0.1-0.6-0.2-1-0.3c-0.2,0-0.9,0-2.1,0h-1.4v6.7H267.9z M271.9,117.9c0.8,0.4,1.4,1.1,1.9,1.9c0.5,0.8,0.7,1.7,0.7,2.5
			c0,0.9-0.2,1.7-0.7,2.5c-0.5,0.8-1.1,1.4-1.9,1.9c-0.8,0.5-1.6,0.7-2.5,0.7c-0.9,0-1.7-0.2-2.5-0.7c-0.8-0.4-1.4-1.1-1.9-1.9
			c-0.4-0.8-0.7-1.6-0.7-2.5c0-0.9,0.2-1.7,0.7-2.5c0.5-0.8,1.1-1.4,1.9-1.9c0.8-0.4,1.6-0.6,2.5-0.6
			C270.3,117.3,271.1,117.5,271.9,117.9 M266.3,116.9c-1,0.5-1.8,1.3-2.3,2.3c-0.6,1-0.9,2.1-0.9,3.2c0,1.1,0.3,2.1,0.8,3.1
			c0.6,1,1.3,1.8,2.3,2.3c1,0.6,2,0.8,3.1,0.8c1.1,0,2.1-0.3,3.1-0.8c1-0.6,1.8-1.3,2.3-2.3c0.6-1,0.8-2,0.8-3.1
			c0-1.1-0.3-2.2-0.9-3.2c-0.6-1-1.3-1.8-2.3-2.3c-1-0.5-2-0.8-3.1-0.8C268.3,116.1,267.3,116.3,266.3,116.9"/>
		<path fill="#FFFFFF" d="M196.8,185.7l-5.5-25.8c-1.3,2-2.4,3.9-3.2,5.6c-0.9,1.8-1.5,3.5-1.9,5.3c-0.4,1.7-0.7,3.5-0.7,5.4
			c0,1.1,0.1,2.7,0.3,4.7c0.2,2,0.4,3,0.4,3.5v2.5c-0.1,0.5-0.3,0.9-0.7,1.1c-0.3,0.1-0.7,0.2-1.1,0.2c-0.4,0-1-0.1-1.8-0.2
			c-0.3,0-0.7,0-1.3,0c-0.7,0-1.3,0-1.6,0c-0.5,0.1-0.9,0.1-1.1,0.1c-0.6,0-1.1-0.2-1.4-0.7c-0.3-0.5-0.4-1.5-0.4-2.9
			c0-2.5,0.3-4.4,1-6.4c0.7-2,1.5-3.8,2.5-5.3c1-1.6,2.5-3.6,4.4-6.2c1.9-2.6,3.3-4.6,4.1-6.1c0.8-1.5,1.3-3,1.2-4.6
			c0-1.5-3-1.3-3.9-1.3v-2.1h14.5v2.1h-2.8l6.4,29.8l5.6-29.8h-2.2v-2.1h13.7v2.1H218l6.8,31.3h3.5v2.1h-13.6v-2.1h2.2l-5.7-26.7
			l-5,26.7h2.7v2.1h-14.8v-2.1H196.8z"/>
		<path fill="#FFFFFF" d="M45.7,183.8v-59.6h-3.2h-1.7c-1.4,0-2.5,0.3-3.4,0.8c-0.8,0.5-1.6,1.8-2.4,3.8c-0.8,2-1.6,5.2-2.4,9.5
			c-0.4,2-0.7,3.2-1,3.9c-0.2,0.6-0.7,1-1.5,1c-0.9,0-1.5-0.4-1.7-1.2c-0.3-0.8-0.4-1.9-0.5-3.3c-0.1-2.7-0.5-5.5-1.3-8.4
			c-0.2-0.7-0.6-2.1-1.3-3.9c-0.6-1.9-1-3.2-1-3.9c0-0.9,0.3-1.8,0.9-2.6c0.6-0.8,1.4-1.1,2.5-1.1c0.3,0,1,0.1,2.1,0.4
			c1,0.3,2.1,0.5,3.3,0.7c1.2,0.2,2.7,0.3,4.7,0.3c0.4,0,0.9,0,1.4-0.1c0.5,0,1,0,1.3,0h22.3c0.3,0,0.8,0,1.3,0c0.5,0,1,0.1,1.4,0.1
			c2,0,3.5-0.1,4.7-0.3c1.2-0.2,2.3-0.4,3.3-0.7c1-0.3,1.7-0.4,2-0.4c1.1,0,1.9,0.4,2.5,1.1c0.6,0.7,0.8,1.6,0.8,2.6
			c0,0.7-0.3,2-0.9,3.8c-0.6,1.8-1.1,3.1-1.3,4.1c-0.9,3-1.3,5.8-1.4,8.4c0,3-0.7,4.5-2.1,4.5c-0.6,0-1.1-0.3-1.4-0.8
			c-0.3-0.5-0.5-1.1-0.7-1.8c-0.2-0.7-0.5-2.5-1.1-5.5c-0.7-3.3-1.5-5.8-2.3-7.3c-0.8-1.5-1.7-2.5-2.8-2.9c-1-0.4-2.4-0.6-4.2-0.6
			h-3.2v59.6h6.2v4.1H39.5v-4.1H45.7z"/>
		<path fill="#FFFFFF" d="M148.5,164.4c0-1.8,0.2-3.6,0.7-5.3c0.5-1.7,1.3-3.1,2.4-4.2c1.1-1.1,2.5-1.6,4.2-1.6
			c2.1,0,3.6,0.6,4.7,1.8c1.9,2,3.2,7.1,2.6,11.7h-14.5C148.6,166,148.5,165.3,148.5,164.4 M159.8,176.3v2.1c4.4,0,2,2.9-0.3,5.3
			c-1.5,1.5-3.7,2.3-6.6,2.3c-0.8,0-1.4-0.1-1.9-0.3c0.3-0.9,0.5-1.8,0.5-2.7c0-1.6-0.1-3-0.3-4c-0.2-1-0.6-2.4-1.1-4.2
			c-0.5-1.6-0.9-3.5-1.3-5.8h23.8v-2.1h0c-0.4-4.2-1.5-9.9-5.2-12.6c-1.6-1.2-3.3-2-5.2-2.4c-1.8-0.4-3.6-0.7-5.3-0.7
			c-2.8,0-5.5,0.5-8.1,1.5c-2.6,1-4.8,2.8-6.6,5.2c-1.8,2.5-2.6,5.7-2.6,9.6c0,1.4,0.1,2.5,0.4,3.5c0.3,1,0.8,2.1,1.6,3.4
			c0.8,1.2,1.9,2.8,3.5,4.7c1,1.2,1.8,2.3,2.3,3.4c0.5,1,0.8,2.1,0.8,3.3c0,0.3,0,0.7-0.1,1.3c1.1,0.3,2.4,0.6,3.9,0.7
			c1.6,0.2,3,0.2,4.4,0.2c2,0,3.9-0.4,5.8-1.3c1.9-0.9,3.6-2,5.2-3.5c2.2-2.1,2.6-4.9,5.7-5v-2.1H159.8z"/>
		<path fill="#FFFFFF" d="M125.8,168.5c-0.7,0.9-1.5,1.3-2.3,1.3c-0.2,0-0.5-0.1-0.8-0.2c-0.4-0.2-0.7-0.4-1-0.6l-3.3,4.1v-8.6v-1.2
			c0-2,0.1-3.6,0.2-4.9c0.2-1.3,0.5-2.4,1.1-3.3c0.6-0.9,1.5-1.3,2.8-1.3c1.7,0,2.8,0.7,3.4,2.1c0.6,1.4,0.9,3.4,0.9,5.8
			C126.8,164.1,126.5,167.6,125.8,168.5 M134.3,156.6c-1-1.6-2.5-2.8-4.4-3.7c-1.9-0.9-4.2-1.3-6.9-1.3c-2.7,0-5.2,0.7-7.4,2.1
			c-2.2,1.4-3.8,3.3-4.8,5.7c-0.1,2.5-0.2,5.1-0.2,7.7v15.2c0,3.9-2.3,3.3-4.2,3.3v2.1h16.3v-2.1c-1.5-0.2-4.3,0.7-4.2-3.5v-6.2
			l3.5-4.6c0.2,0.1,0.6,0.3,1.1,0.6c1,0.5,1.7,0.9,2.2,1c0.5,0.2,1.1,0.3,2,0.3c1.6,0,3.1-0.4,4.4-1.3c2.9-1.4,4.2-7.6,4.2-10.3
			C135.8,159.9,135.3,158.2,134.3,156.6"/>
		<path fill="#FFFFFF" d="M78.6,164.4c0-1.8,0.2-3.6,0.7-5.3c0.5-1.7,1.3-3.1,2.4-4.2c1.1-1.1,2.5-1.6,4.2-1.6
			c2.1,0,3.6,0.6,4.7,1.8c1.9,2,3.2,7.1,2.6,11.7H78.8C78.7,166,78.6,165.3,78.6,164.4 M90,176.3v2.1c4.4,0,2,2.9-0.3,5.3
			c-1.5,1.5-3.7,2.3-6.6,2.3c-0.8,0-1.4-0.1-1.9-0.3c0.3-0.9,0.5-1.8,0.5-2.7c0-1.6-0.1-3-0.3-4c-0.2-1-0.6-2.4-1.1-4.2
			c-0.5-1.6-0.9-3.5-1.3-5.8h23.8v-2.1h0c-0.4-4.2-1.5-9.9-5.2-12.6c-1.6-1.2-3.3-2-5.1-2.4c-1.8-0.4-3.6-0.7-5.3-0.7
			c-2.8,0-5.5,0.5-8.1,1.5c-2.6,1-4.8,2.8-6.6,5.2c-1.8,2.5-2.7,5.7-2.7,9.6c0,1.4,0.1,2.5,0.4,3.5c0.3,1,0.8,2.1,1.6,3.4
			c0.8,1.2,1.9,2.8,3.5,4.7c1,1.2,1.8,2.3,2.3,3.4c0.5,1,0.8,2.1,0.8,3.3c0,0.3,0,0.7-0.1,1.3c1.1,0.3,2.4,0.6,3.9,0.7
			c1.6,0.2,3,0.2,4.4,0.2c2,0,3.9-0.4,5.8-1.3c1.9-0.9,3.6-2,5.2-3.5c2.2-2.1,2.6-4.9,5.7-5v-2.1H90z"/>
		<path fill="#FFFFFF" d="M263.9,178.4c0,2.4-0.5,3.9-1.4,4.5c-1,0.6-2.2,0.9-3.7,0.9h-6.1v-30.6c2.2,2.6,4.7,4.5,7.6,5.8
			c1.6,0.7,2.6,1.4,3,2c0.3,0.6,0.5,1.7,0.6,3.4c0,0.7,0,1.1,0,1.2c0,0.2,0,0.5,0,1.1V178.4z M273.7,157c-0.5-1.1-1.6-1.6-3.4-1.6
			c-1.3,0.1-2.2,0.2-2.8,0.2c-2.4,0-5-0.7-7.9-2.1c-2.8-1.4-5.2-3.3-7-5.6l-0.1-23.6h5.7l0.1-4.2h-29.7c-0.9,0-2.2-0.4-3.8-0.8
			c-0.2,0-1.2-0.4-1.9-0.4c-0.7,0-1.6,0.3-2,0.6c-0.4,0.3-1.4,1.4-1.3,3.1c0,2.5,1.9,6.3,2,7.1c0.6,2.8,1.2,3.3,1.5,7.3
			c0.2,2.3,0.3,4,0.5,4.9c0.2,1,0.9,1.4,1.8,1.4c0.7,0,1.2-0.2,1.5-0.8c0.2-0.6,0.6-1.8,0.9-3.2c0.7-3.8,1.4-6.4,2.2-9.1
			c1.7-5.9,4.1-5.8,6.6-5.8h4.5l0,59.5h-6.3v4.1h35.6c0.9,0,1.7-0.1,2.2-0.4c0.5-0.2,1-0.9,1.3-1.9c0.3-1,0.5-2.5,0.5-4.6v-19.4
			C274.5,159.6,274.2,158,273.7,157"/>
		<path fill="#FFFFFF" d="M105.3,143.1c0-3.2,1.3-6.1,3.4-8.2v0c2.1-2.1,5-3.4,8.2-3.4c3.2,0,6.1,1.3,8.2,3.4h0
			c2.1,2.1,3.4,5,3.4,8.2h-4c0-2.1-0.8-4-2.2-5.3v0c-1.4-1.4-3.2-2.2-5.3-2.2c-2.1,0-4,0.8-5.3,2.2c-1.4,1.4-2.2,3.3-2.2,5.3H105.3z
			"/>
		<path fill="#FFFFFF" d="M170.3,143.1c0-3.2,1.3-6.1,3.4-8.2v0c2.1-2.1,5-3.4,8.2-3.4c3.2,0,6.1,1.3,8.2,3.4h0
			c2.1,2.1,3.4,5,3.4,8.2h-4c0-2.1-0.8-4-2.2-5.3v0c-1.4-1.4-3.2-2.2-5.3-2.2c-2.1,0-4,0.8-5.3,2.2h0c-1.4,1.4-2.2,3.3-2.2,5.3
			H170.3z"/>
		<path fill="#FFFFFF" d="M137.8,143.1c0-3.2,1.3-6.1,3.4-8.2v0c2.1-2.1,5-3.4,8.2-3.4c3.2,0,6.1,1.3,8.2,3.4c2.1,2.1,3.4,5,3.4,8.2
			h-4c0-2.1-0.8-4-2.2-5.3c-1.4-1.4-3.3-2.2-5.3-2.2c-2.1,0-4,0.8-5.3,2.2h0c-1.4,1.4-2.2,3.3-2.2,5.3H137.8z"/>
		<polygon fill="#FFFFFF" points="154.6,106.2 152.3,109.8 158.6,111.1 152.1,112.4 153.7,115.8 150.6,114 149.4,120.7 148.1,113.8 
			144.1,115.9 146.5,112.4 140.1,111.1 146.6,109.7 145,106.4 148.1,108.2 149.4,101.5 150.7,108.4 		"/>
		<path fill="#FFFFFF" d="M208.3,125.5h-36.7c1.2-1.1,2.5-2.3,3.6-3.5h33.1V125.5z M169,125.5h-3.8c0,0,0.5-0.5,0.6-0.6
			c9.2-10.9,4.6-18.9-2.1-25c-2.4-2.2-5-4-7.3-5.7c-3.1-2.2-5.7-4-5.9-5.2l-1.1-5l-1.1,5c-0.2,1.2-2.7,3-5.9,5.2
			c-2.3,1.6-4.9,3.5-7.3,5.7c-6.7,6-11.4,14.1-2.1,25c0.1,0.2,0.6,0.6,0.6,0.6h-3.8c0,0-0.6-0.4-0.8-0.6c-9.2-7.4-8.7-13.4-4.5-19
			c2.7-3.5,6.8-7,11-10.4c5.1-4.2,11.2-8.4,14-13.2c0,0,0,0,0,0c0,0,0,0,0,0c2.8,4.7,8.9,9,14,13.2c4.2,3.4,8.3,6.9,11,10.4
			c4.2,5.5,4.7,11.6-4.5,19C169.5,125.1,169,125.5,169,125.5 M90.4,125.5V122h33.1c1.1,1.2,2.3,2.5,3.6,3.5H90.4z M109.5,95.8h2.4
			v6.5h-2.4V95.8z M114.2,95.8h2.4v6.5h-2.4V95.8z M118.8,95.8h2.4v6.5h-2.4V95.8z M123.5,95.8h2.4v4.6l-1.8,1.8h-0.7V95.8z
			 M128.3,95.8h2.4v0.3l-2.4,2.1V95.8z M170.4,95.8v2.4l-2.4-2.1v-0.3H170.4z M130.1,77.2h38.5v15.8h-5.3c-5-4.2-10.9-8.4-13-12.9v0
			l-0.9-1.9l-0.9,1.9v0c-2.1,4.5-8,8.8-13,12.9h-5.3V77.2z M172.8,95.8h2.4v6.5h-0.7l-1.8-1.8V95.8z M177.6,95.8h2.4v6.5h-2.4V95.8z
			 M182.1,95.8h2.4v6.5h-2.4V95.8z M186.8,95.8h2.4v6.5h-2.4V95.8z M191.2,102.3v-9c1.3-0.3,2.3-1.5,2.3-3c0-1.7-1.4-3.1-3.1-3.1
			c-1.7,0-3.1,1.4-3.1,3.1c0,1.4,1,2.6,2.3,3v0.4h-17V76.2h8.7l-17.8-7.6l-7-10.6l-7.2-10.8c1.6-0.1,3-1.4,3-3.1
			c0-1.7-1.4-3.1-3.1-3.1c-1.7,0-3.1,1.4-3.1,3.1c0,1.7,1.3,3,3,3.1L142.1,58l-7,10.6l-17.8,7.6h8.7v17.4h-17v-0.4
			c1.3-0.3,2.3-1.5,2.3-3c0-1.7-1.4-3.1-3.1-3.1c-1.7,0-3.1,1.4-3.1,3.1c0,1.4,1,2.6,2.3,3v9L88,120v7.6h5.5v15.6h3v-15.6
			c13.8,0,27.7,0,41.4,0c-2.1-2.4-6.1-5.8-7.6-11.5c-1.4-4.9,0.7-9.6,6.2-14.5c2.2-2,4.8-3.8,7-5.4l0.2-0.1c2.8-2,4.6-3.3,5.7-4.5
			c1.1,1.2,2.9,2.6,5.7,4.5l0.2,0.1c2.2,1.6,4.7,3.4,7,5.4c5.5,5,7.6,9.6,6.2,14.5c-1.6,5.7-5.5,9-7.6,11.5c13.8,0,27.6,0,41.4,0
			v15.6h3v-15.6h5.5V120L191.2,102.3z"/>
		<g>
			<path fill="#FFFFFF" d="M113.4,238.2v4.1c0,0.9,0,1.7,0.4,2.2c0.6,0.8,1.7,0.8,2.2,0.8c0.8,0,1.6-0.1,2.1-0.8
				c0.4-0.6,0.4-1.4,0.4-2.1v-3.8c0-0.7,0-1.9-0.6-2.6c-0.7-0.9-2.3-1-3.5-1h-2.5v-4h3.1c1,0,2,0,2.6-1c0.4-0.6,0.5-1.6,0.5-2.4v-3
				c0-0.5-0.1-1.1-0.5-1.6c-0.5-0.6-1.3-0.7-1.9-0.7c-0.6,0-1.4,0.1-1.9,0.7c-0.5,0.6-0.5,1.4-0.5,1.9v2.8h-4.8v-2.8
				c0-1.7,0.3-3.6,1.9-5c1.3-1.1,3.4-1.7,5.3-1.7c2,0,4.2,0.6,5.5,1.8c1.6,1.5,1.7,3.4,1.7,4.5v3c0,1.2,0.1,2.9-1.1,4.1
				c-0.5,0.6-1.4,1-2.2,1.2v0.1c1,0.3,1.8,0.8,2.4,1.4c1,1.1,1.3,2.8,1.3,4.7v3.2c0,1.8,0,3.9-1.9,5.6c-1.7,1.5-4,1.7-5.7,1.7
				c-1.4,0-4.1-0.2-5.8-1.7c-0.6-0.6-1.8-2.1-1.8-5.2v-4.5H113.4z"/>
			<path fill="#FFFFFF" d="M125.3,218.6H138v4.3h-7.8v7.3h6v4.3h-6v10.4h8.4v4.3h-13.4V218.6z"/>
			<path fill="#FFFFFF" d="M148.3,249.2l-3.6-23h-0.2l0.3,4.1v18.9h-5v-30.6h7.9l2.9,19.7h0.2l2.9-19.7h7.9v30.6h-5v-18.9l0.3-4.1
				h-0.2l-3.6,23H148.3z"/>
			<path fill="#FFFFFF" d="M175.2,249.2v-26.3h-4.1V233c0,6.1,0.1,10.9-1.7,13.7c-1.4,2.1-3.5,2.4-5.1,2.4h-1.8v-4.3
				c1.1,0.1,2.1-0.3,2.7-1c0.8-0.9,1-2.8,1-7.4v-17.9h14.1v30.6H175.2z"/>
			<path fill="#FFFFFF" d="M191.6,249.2v-13.7h-1.2c-0.8,0-1.9,0-2.5,0.7c-0.4,0.6-0.4,1.4-0.4,2v6.8c0,2.2-0.2,3.2-1.1,4.2h-5.3
				v-0.2c1.1-1.3,1.4-2.8,1.4-3.9v-7.4c0-0.9,0-2.1,0.7-3c0.5-0.7,1.4-1.2,2.3-1.4v-0.1c-0.7-0.1-1.6-0.3-2.4-1.3
				c-1.2-1.3-1.3-3-1.3-4v-3.1c0-1.4,0.2-3.4,2-4.8c1.7-1.4,4.4-1.4,4.8-1.4h7.9v30.6H191.6z M191.6,222.9h-2.1
				c-0.7,0-1.5,0.2-2,0.7c-0.6,0.6-0.7,1.4-0.7,2.1v2.1c0,0.7,0.1,1.6,0.5,2.2c0.3,0.5,1,1.3,2.3,1.3h1.9V222.9z"/>
		</g>
	</g>
</g>
</svg>
