<?xml version="1.0" encoding="utf-8"?>
<!-- Generator: Adobe Illustrator 18.0.0, SVG Export Plug-In . SVG Version: 6.00 Build 0)  -->
<!DOCTYPE svg PUBLIC "-//W3C//DTD SVG 1.1//EN" "http://www.w3.org/Graphics/SVG/1.1/DTD/svg11.dtd">
<svg version="1.1" id="Layer_1" xmlns="http://www.w3.org/2000/svg" xmlns:xlink="http://www.w3.org/1999/xlink" x="0px" y="0px"
	 viewBox="0 0 204.1 85" enable-background="new 0 0 204.1 85" xml:space="preserve">
<g>
	<path fill="#FFFFFF" d="M196.2,13.9h0.4c0.6,0,1,0,1.2,0.1c0.2,0.1,0.3,0.1,0.4,0.3c0.1,0.1,0.1,0.2,0.1,0.4c0,0.2,0,0.3-0.1,0.4
		c-0.1,0.1-0.2,0.2-0.4,0.2c-0.2,0.1-0.5,0.1-1.2,0.1h-0.4V13.9z M196.2,18.4v-2.2h0.3c0.3,0,0.6,0.1,0.7,0.2
		c0.2,0.2,0.4,0.5,0.7,1.1l0.4,0.9h1.3l-0.6-1.1c-0.2-0.4-0.4-0.6-0.4-0.6c-0.2-0.2-0.3-0.3-0.4-0.4c-0.1-0.1-0.2-0.1-0.4-0.2
		c0.5-0.1,0.8-0.2,1.1-0.5c0.3-0.3,0.4-0.6,0.4-1c0-0.3-0.1-0.5-0.2-0.8c-0.1-0.2-0.3-0.4-0.5-0.5c-0.2-0.1-0.5-0.2-0.8-0.2
		c-0.1,0-0.7,0-1.7,0h-1.1v5.3H196.2z M199.4,12.2c0.6,0.3,1.1,0.8,1.5,1.5c0.4,0.6,0.6,1.3,0.6,2c0,0.7-0.2,1.4-0.5,2
		c-0.4,0.6-0.9,1.1-1.5,1.5c-0.6,0.4-1.3,0.5-2,0.5c-0.7,0-1.4-0.2-2-0.5c-0.6-0.4-1.1-0.9-1.5-1.5c-0.4-0.6-0.5-1.3-0.5-2
		c0-0.7,0.2-1.4,0.5-2c0.4-0.6,0.9-1.1,1.5-1.5c0.6-0.3,1.3-0.5,2-0.5C198.1,11.7,198.8,11.9,199.4,12.2 M194.9,11.4
		c-0.8,0.4-1.4,1.1-1.9,1.9c-0.5,0.8-0.7,1.6-0.7,2.5c0,0.9,0.2,1.7,0.7,2.5c0.4,0.8,1.1,1.4,1.9,1.9c0.8,0.4,1.6,0.7,2.5,0.7
		c0.9,0,1.7-0.2,2.5-0.7c0.8-0.4,1.4-1.1,1.9-1.9c0.4-0.8,0.7-1.6,0.7-2.5c0-0.9-0.2-1.7-0.7-2.5c-0.4-0.8-1.1-1.4-1.9-1.9
		c-0.8-0.4-1.6-0.6-2.5-0.6C196.5,10.7,195.7,10.9,194.9,11.4"/>
	<path fill="#FFFFFF" d="M139.4,66.3L135,45.7c-1,1.6-1.9,3.1-2.6,4.5c-0.7,1.4-1.2,2.8-1.5,4.2c-0.3,1.4-0.5,2.8-0.5,4.3
		c0,0.9,0.1,2.1,0.3,3.7c0.2,1.6,0.3,2.4,0.3,2.8v2c0,0.4-0.2,0.7-0.6,0.8c-0.2,0.1-0.5,0.2-0.9,0.2c-0.3,0-0.8-0.1-1.5-0.2
		c-0.2,0-0.6,0-1.1,0c-0.6,0-1,0-1.3,0c-0.4,0.1-0.7,0.1-0.8,0.1c-0.5,0-0.9-0.2-1.1-0.6c-0.2-0.4-0.3-1.2-0.3-2.3
		c0-2,0.3-3.5,0.8-5.1c0.5-1.6,1.2-3,2-4.2c0.8-1.2,2-2.9,3.6-5c1.5-2,2.6-3.7,3.3-4.9c0.7-1.2,1-2.4,1-3.7c0-1.2-2.4-1-3.1-1v-1.7
		h11.6v1.7h-2.3l5.1,23.8l4.5-23.8h-1.8v-1.7H159v1.7h-2.6l5.4,25h2.8V68h-10.9v-1.7h1.8L151,45l-4,21.3h2.1V68h-11.8v-1.7H139.4z"
		/>
	<path fill="#FFFFFF" d="M18.9,64.8V17.3h-2.6h-1.4c-1.1,0-2,0.2-2.7,0.7c-0.7,0.4-1.3,1.5-1.9,3.1c-0.6,1.6-1.2,4.1-1.9,7.5
		c-0.3,1.6-0.6,2.6-0.8,3.1c-0.2,0.5-0.6,0.8-1.2,0.8c-0.7,0-1.2-0.3-1.4-1c-0.2-0.6-0.3-1.5-0.4-2.6c-0.1-2.1-0.4-4.4-1.1-6.7
		c-0.2-0.6-0.5-1.6-1-3.2c-0.5-1.5-0.8-2.5-0.8-3.1c0-0.8,0.2-1.4,0.7-2c0.5-0.6,1.1-0.9,2-0.9c0.3,0,0.8,0.1,1.6,0.4
		c0.8,0.2,1.7,0.4,2.6,0.6c0.9,0.2,2.2,0.2,3.8,0.2c0.3,0,0.7,0,1.1,0c0.4,0,0.8,0,1,0h17.8c0.3,0,0.6,0,1.1,0c0.4,0,0.8,0,1.1,0
		c1.6,0,2.8-0.1,3.8-0.2c0.9-0.1,1.8-0.3,2.6-0.6c0.8-0.2,1.4-0.4,1.6-0.4c0.9,0,1.5,0.3,2,0.9c0.4,0.6,0.7,1.3,0.7,2
		c0,0.6-0.2,1.6-0.7,3c-0.5,1.4-0.9,2.5-1.1,3.2c-0.7,2.4-1.1,4.6-1.1,6.7c0,2.4-0.6,3.6-1.7,3.6c-0.5,0-0.8-0.2-1.1-0.6
		c-0.3-0.4-0.4-0.9-0.5-1.4c-0.1-0.5-0.4-2-0.9-4.4c-0.6-2.7-1.2-4.6-1.8-5.9c-0.6-1.2-1.4-2-2.2-2.4c-0.8-0.3-1.9-0.5-3.3-0.5h-2.6
		v47.5h5V68H13.9v-3.2H18.9z"/>
	<path fill="#FFFFFF" d="M100.9,49.3c0-1.5,0.2-2.9,0.6-4.2c0.4-1.4,1-2.5,1.9-3.3c0.9-0.9,2-1.3,3.3-1.3c1.7,0,2.9,0.5,3.8,1.4
		c1.5,1.6,2.6,5.7,2.1,9.4H101C100.9,50.6,100.9,50,100.9,49.3 M110,58.8v1.7c3.5,0,1.6,2.3-0.2,4.2c-1.2,1.2-2.9,1.8-5.3,1.8
		c-0.6,0-1.1-0.1-1.5-0.3c0.3-0.7,0.4-1.4,0.4-2.2c0-1.3-0.1-2.4-0.3-3.2c-0.2-0.8-0.5-2-0.9-3.4c-0.4-1.2-0.7-2.8-1-4.6h19v-1.7h0
		c-0.4-3.4-1.2-7.9-4.2-10c-1.3-0.9-2.7-1.6-4.1-1.9c-1.4-0.4-2.8-0.5-4.2-0.5c-2.2,0-4.4,0.4-6.5,1.2c-2.1,0.8-3.9,2.2-5.3,4.2
		c-1.4,2-2.1,4.5-2.1,7.7c0,1.1,0.1,2,0.3,2.8c0.2,0.8,0.6,1.7,1.3,2.7c0.6,1,1.6,2.2,2.8,3.8c0.8,1,1.4,1.9,1.8,2.7
		c0.4,0.8,0.6,1.7,0.6,2.7c0,0.2,0,0.6-0.1,1.1c0.8,0.3,1.9,0.5,3.2,0.6c1.2,0.1,2.4,0.2,3.5,0.2c1.6,0,3.1-0.3,4.6-1
		c1.5-0.7,2.9-1.6,4.1-2.8c1.8-1.7,2.1-3.9,4.6-4v-1.7H110z"/>
	<path fill="#FFFFFF" d="M82.8,52.6c-0.6,0.7-1.2,1.1-1.8,1.1c-0.1,0-0.4-0.1-0.7-0.2c-0.3-0.1-0.6-0.3-0.8-0.5l-2.6,3.3v-6.9v-1
		c0-1.6,0.1-2.9,0.2-3.9c0.1-1,0.4-1.9,0.9-2.6c0.5-0.7,1.2-1.1,2.2-1.1c1.3,0,2.2,0.6,2.7,1.7c0.5,1.1,0.7,2.7,0.7,4.6
		C83.6,49.1,83.3,51.8,82.8,52.6 M89.5,43.1c-0.8-1.2-2-2.2-3.5-2.9c-1.5-0.7-3.4-1.1-5.5-1.1c-2.2,0-4.1,0.6-5.9,1.7
		c-1.8,1.1-3.1,2.6-3.9,4.6c-0.1,2-0.1,4.1-0.1,6.2v12.2c0,3.2-1.8,2.6-3.4,2.7V68h13v-1.7c-1.2-0.1-3.4,0.5-3.4-2.8v-4.9l2.8-3.6
		c0.2,0.1,0.5,0.2,0.9,0.4c0.8,0.4,1.4,0.7,1.7,0.8c0.4,0.1,0.9,0.2,1.6,0.2c1.3,0,2.5-0.3,3.5-1c2.3-1.1,3.4-6.1,3.4-8.3
		C90.7,45.7,90.3,44.3,89.5,43.1"/>
	<path fill="#FFFFFF" d="M45.1,49.3c0-1.5,0.2-2.9,0.6-4.2c0.4-1.4,1-2.5,1.9-3.3c0.9-0.9,2-1.3,3.3-1.3c1.7,0,2.9,0.5,3.8,1.4
		c1.5,1.6,2.6,5.7,2.1,9.4H45.2C45.2,50.6,45.1,50,45.1,49.3 M54.2,58.8v1.7c3.5,0,1.6,2.3-0.2,4.2c-1.2,1.2-2.9,1.8-5.3,1.8
		c-0.6,0-1.1-0.1-1.5-0.3c0.3-0.7,0.4-1.4,0.4-2.2c0-1.3-0.1-2.4-0.3-3.2c-0.2-0.8-0.5-2-0.9-3.4c-0.4-1.2-0.7-2.8-1-4.6h19v-1.7h0
		c-0.4-3.4-1.2-7.9-4.2-10c-1.3-0.9-2.7-1.6-4.1-1.9c-1.4-0.4-2.8-0.5-4.2-0.5c-2.2,0-4.4,0.4-6.5,1.2c-2.1,0.8-3.9,2.2-5.3,4.2
		c-1.4,2-2.1,4.5-2.1,7.7c0,1.1,0.1,2,0.3,2.8c0.2,0.8,0.6,1.7,1.2,2.7c0.6,1,1.6,2.2,2.8,3.8c0.8,1,1.4,1.9,1.8,2.7
		c0.4,0.8,0.6,1.7,0.6,2.7c0,0.2,0,0.6-0.1,1.1c0.8,0.3,1.9,0.5,3.1,0.6c1.2,0.1,2.4,0.2,3.5,0.2c1.6,0,3.1-0.3,4.6-1
		c1.5-0.7,2.9-1.6,4.1-2.8c1.8-1.7,2.1-3.9,4.6-4v-1.7H54.2z"/>
	<path fill="#FFFFFF" d="M193,60.5c0,1.9-0.4,3.1-1.1,3.6c-0.8,0.5-1.7,0.7-2.9,0.7H184V40.4c1.7,2.1,3.8,3.6,6.1,4.7
		c1.3,0.6,2.1,1.1,2.4,1.6c0.3,0.5,0.4,1.4,0.5,2.7c0,0.5,0,0.9,0,1c0,0.1,0,0.4,0,0.9V60.5z M200.8,43.4c-0.4-0.8-1.3-1.3-2.7-1.3
		c-1,0.1-1.8,0.2-2.2,0.2c-1.9,0-4-0.6-6.3-1.7c-2.3-1.1-4.1-2.6-5.6-4.4l0-18.8h4.5l0.1-3.4h-23.7c-0.7,0-1.8-0.3-3.1-0.7
		c-0.1,0-0.9-0.3-1.5-0.3c-0.6,0-1.3,0.2-1.6,0.5c-0.3,0.2-1.1,1.1-1.1,2.5c0,2,1.5,5,1.6,5.6c0.5,2.2,1,2.6,1.2,5.8
		c0.1,1.8,0.2,3.2,0.4,3.9c0.2,0.8,0.8,1.1,1.4,1.1c0.6,0,1-0.2,1.2-0.6c0.2-0.5,0.5-1.4,0.7-2.6c0.6-3,1.1-5.1,1.7-7.3
		c1.4-4.7,3.2-4.6,5.3-4.6h3.6l0,47.5h-5V68h28.4c0.8,0,1.4-0.1,1.8-0.3c0.4-0.2,0.8-0.7,1.1-1.5c0.3-0.8,0.4-2,0.4-3.6V47.2
		C201.4,45.5,201.2,44.2,200.8,43.4"/>
</g>
</svg>
