<?xml version="1.0" encoding="utf-8"?>
<!-- Generator: Adobe Illustrator 18.0.0, SVG Export Plug-In . SVG Version: 6.00 Build 0)  -->
<!DOCTYPE svg PUBLIC "-//W3C//DTD SVG 1.1//EN" "http://www.w3.org/Graphics/SVG/1.1/DTD/svg11.dtd">
<svg version="1.1" id="Layer_1" xmlns="http://www.w3.org/2000/svg" xmlns:xlink="http://www.w3.org/1999/xlink" x="0px" y="0px"
	 viewBox="0 0 68 28.4" enable-background="new 0 0 68 28.4" xml:space="preserve">
<g>
	<path fill="#FFFFFF" d="M5,17.8v3.1c0,0.7,0,1.2,0.3,1.6C5.7,23,6.6,23.1,7,23.1c0.6,0,1.2-0.1,1.6-0.6c0.3-0.5,0.3-1,0.3-1.6v-2.8
		c0-0.5,0-1.4-0.4-2c-0.6-0.7-1.7-0.7-2.6-0.7H3.9v-3h2.3c0.7,0,1.5,0,2-0.7c0.3-0.4,0.4-1.2,0.4-1.8V7.7c0-0.4-0.1-0.8-0.4-1.2
		C7.9,6.1,7.3,6,6.9,6c-0.5,0-1,0.1-1.4,0.5C5.1,6.9,5.1,7.6,5.1,7.9v2H1.5V7.8c0-1.3,0.2-2.7,1.4-3.7c1-0.8,2.6-1.3,4-1.3
		c1.5,0,3.2,0.4,4.1,1.4c1.2,1.1,1.3,2.6,1.3,3.4v2.2c0,0.9,0.1,2.1-0.8,3.1c-0.4,0.4-1,0.7-1.7,0.9v0.1c0.7,0.2,1.3,0.6,1.8,1
		c0.7,0.8,1,2.1,1,3.5v2.4c0,1.4,0,2.9-1.4,4.2c-1.2,1.1-3,1.3-4.2,1.3c-1,0-3.1-0.1-4.3-1.3c-0.5-0.5-1.3-1.6-1.3-3.8v-3.4H5z"/>
	<path fill="#FFFFFF" d="M13.9,3.2h9.5v3.2h-5.8v5.5h4.5V15h-4.5v7.7h6.3v3.2h-10V3.2z"/>
	<path fill="#FFFFFF" d="M31.1,25.9L28.4,8.8h-0.2l0.2,3v14.1h-3.7V3.2h5.9l2.2,14.7h0.1l2.2-14.7h5.9v22.8h-3.7V11.8l0.2-3h-0.2
		l-2.7,17.1H31.1z"/>
	<path fill="#FFFFFF" d="M51.1,25.9V6.3H48v7.5c0,4.5,0.1,8.1-1.3,10.2c-1,1.6-2.6,1.8-3.8,1.8h-1.4v-3.2c0.8,0.1,1.6-0.3,2-0.7
		c0.6-0.7,0.7-2.1,0.7-5.5V3.2h10.5v22.8H51.1z"/>
	<path fill="#FFFFFF" d="M63.3,25.9V15.7h-0.9c-0.6,0-1.4,0-1.9,0.6c-0.3,0.4-0.3,1.1-0.3,1.5v5c0,1.6-0.2,2.4-0.8,3.2h-3.9v-0.2
		c0.8-0.9,1-2.1,1-2.9v-5.5c0-0.7,0-1.5,0.6-2.2c0.4-0.5,1-0.9,1.7-1.1V14c-0.5-0.1-1.2-0.3-1.8-0.9c-0.9-1-0.9-2.2-0.9-3V7.8
		c0-1.1,0.2-2.6,1.5-3.6c1.3-1,3.3-1,3.6-1H67v22.8H63.3z M63.3,6.3h-1.6c-0.6,0-1.1,0.2-1.5,0.5c-0.4,0.4-0.5,1-0.5,1.5V10
		c0,0.6,0.1,1.2,0.4,1.6c0.2,0.4,0.7,0.9,1.7,0.9h1.4V6.3z"/>
</g>
</svg>
